M48
; DRILL file {KiCad 6.0.11-2627ca5db0~126~ubuntu22.04.1} date Mon 13 Feb 2023 08:28:25 AM -04
; FORMAT={-:-/ absolute / inch / decimal}
; #@! TF.CreationDate,2023-02-13T08:28:25-04:00
; #@! TF.GenerationSoftware,Kicad,Pcbnew,6.0.11-2627ca5db0~126~ubuntu22.04.1
; #@! TF.FileFunction,NonPlated,1,2,NPTH
FMAT,2
INCH
; #@! TA.AperFunction,NonPlated,NPTH,ComponentDrill
T1C0.0256
; #@! TA.AperFunction,NonPlated,NPTH,ComponentDrill
T2C0.0748
; #@! TA.AperFunction,NonPlated,NPTH,ComponentDrill
T3C0.1339
; #@! TA.AperFunction,NonPlated,NPTH,ComponentDrill
T4C0.1417
%
G90
G05
T1
X0.998Y-2.5634
X0.998Y-2.7909
T2
X0.9646Y-1.1811
X0.9646Y-1.9291
X0.9646Y-3.4252
X0.9646Y-4.1732
X1.3976Y-1.1811
X1.3976Y-1.9291
X1.3976Y-3.4252
X1.3976Y-4.1732
X1.8307Y-1.1811
X1.8307Y-1.9291
X1.8307Y-2.6772
X1.8307Y-3.4252
X1.8307Y-4.1732
X2.2638Y-1.1811
X2.2638Y-1.9291
X2.2638Y-2.6772
X2.2638Y-3.4252
X2.2638Y-4.1732
X2.5787Y-1.1811
X2.5787Y-1.9291
X2.5787Y-2.6772
X2.5787Y-3.4252
X2.5787Y-4.1732
X3.0118Y-1.1811
X3.0118Y-1.9291
X3.0118Y-2.6772
X3.0118Y-3.4252
X3.0118Y-4.1732
X3.3268Y-1.1811
X3.3268Y-1.9291
X3.3268Y-2.6772
X3.3268Y-3.4252
X3.3268Y-4.1732
X3.7598Y-1.1811
X3.7598Y-1.9291
X3.7598Y-2.6772
X3.7598Y-3.4252
X3.7598Y-4.1732
X4.0748Y-1.1811
X4.0748Y-1.9291
X4.0748Y-2.6772
X4.0748Y-3.4252
X4.0748Y-4.1732
X4.5079Y-1.1811
X4.5079Y-1.9291
X4.5079Y-2.6772
X4.5079Y-3.4252
X4.5079Y-4.1732
X4.8228Y-1.1811
X4.8228Y-1.9291
X4.8228Y-2.6772
X4.8228Y-3.4252
X4.8228Y-4.1732
X5.2559Y-1.1811
X5.2559Y-1.9291
X5.2559Y-2.6772
X5.2559Y-3.4252
X5.2559Y-4.1732
X5.5709Y-1.1811
X5.5709Y-1.9291
X5.5709Y-2.6772
X5.5709Y-3.4252
X5.5709Y-4.1732
X6.0039Y-1.9291
X6.0039Y-2.6772
X6.0039Y-3.4252
X6.3189Y-1.9291
X6.3189Y-2.6772
X6.3189Y-3.4252
X6.752Y-1.1811
X6.752Y-1.9291
X6.752Y-2.6772
X6.752Y-3.4252
X6.752Y-4.1732
X7.0669Y-1.1811
X7.0669Y-1.9291
X7.0669Y-2.6772
X7.0669Y-3.4252
X7.0669Y-4.1732
X7.5Y-1.1811
X7.5Y-1.9291
X7.5Y-2.6772
X7.5Y-3.4252
X7.5Y-4.1732
X7.815Y-1.1811
X7.815Y-1.9291
X7.815Y-2.6772
X7.815Y-3.4252
X7.815Y-4.1732
X8.248Y-1.1811
X8.248Y-1.9291
X8.248Y-2.6772
X8.248Y-3.4252
X8.248Y-4.1732
X8.563Y-1.1811
X8.563Y-1.9291
X8.563Y-2.6772
X8.563Y-3.4252
X8.563Y-4.1732
X8.9961Y-1.1811
X8.9961Y-1.9291
X8.9961Y-2.6772
X8.9961Y-3.4252
X8.9961Y-4.1732
X9.311Y-1.1811
X9.311Y-1.9291
X9.311Y-2.6772
X9.311Y-3.4252
X9.311Y-4.1732
X9.7441Y-1.1811
X9.7441Y-1.9291
X9.7441Y-2.6772
X9.7441Y-3.4252
X9.7441Y-4.1732
X10.0591Y-1.1811
X10.0591Y-1.9291
X10.0591Y-2.6772
X10.0591Y-3.4252
X10.0591Y-4.1732
X10.4921Y-1.1811
X10.4921Y-1.9291
X10.4921Y-2.6772
X10.4921Y-3.4252
X10.4921Y-4.1732
T3
X1.1811Y-1.1811
X1.1811Y-1.9291
X1.1811Y-3.4252
X1.1811Y-4.1732
X2.0472Y-1.1811
X2.0472Y-1.9291
X2.0472Y-2.6772
X2.0472Y-3.4252
X2.0472Y-4.1732
X2.7953Y-1.1811
X2.7953Y-1.9291
X2.7953Y-2.6772
X2.7953Y-3.4252
X2.7953Y-4.1732
X3.5433Y-1.1811
X3.5433Y-1.9291
X3.5433Y-2.6772
X3.5433Y-3.4252
X3.5433Y-4.1732
X4.2913Y-1.1811
X4.2913Y-1.9291
X4.2913Y-2.6772
X4.2913Y-3.4252
X4.2913Y-4.1732
X5.0394Y-1.1811
X5.0394Y-1.9291
X5.0394Y-2.6772
X5.0394Y-3.4252
X5.0394Y-4.1732
X5.7874Y-1.1811
X5.7874Y-1.9291
X5.7874Y-2.6772
X5.7874Y-3.4252
X5.7874Y-4.1732
X6.1614Y-1.1811
X6.1614Y-4.1732
X6.5354Y-1.1811
X6.5354Y-1.9291
X6.5354Y-2.6772
X6.5354Y-3.4252
X6.5354Y-4.1732
X7.2835Y-1.1811
X7.2835Y-1.9291
X7.2835Y-2.6772
X7.2835Y-3.4252
X7.2835Y-4.1732
X8.0315Y-1.1811
X8.0315Y-1.9291
X8.0315Y-2.6772
X8.0315Y-3.4252
X8.0315Y-4.1732
X8.7795Y-1.1811
X8.7795Y-1.9291
X8.7795Y-2.6772
X8.7795Y-3.4252
X8.7795Y-4.1732
X9.5276Y-1.1811
X9.5276Y-1.9291
X9.5276Y-2.6772
X9.5276Y-3.4252
X9.5276Y-4.1732
X10.2756Y-1.1811
X10.2756Y-1.9291
X10.2756Y-2.6772
X10.2756Y-3.4252
X10.2756Y-4.1732
T4
X1.6142Y-1.5551
X1.6142Y-3.7992
X6.1614Y-2.3031
X6.1614Y-3.0512
X9.9016Y-1.5551
X9.9016Y-3.7992
T2
G00X5.9449Y-1.1811
M15
G01X6.0039Y-1.1811
M16
G05
G00X5.9449Y-4.1732
M15
G01X6.0039Y-4.1732
M16
G05
G00X6.3189Y-1.1811
M15
G01X6.378Y-1.1811
M16
G05
G00X6.3189Y-4.1732
M15
G01X6.378Y-4.1732
M16
G05
T0
M30
