%TF.GenerationSoftware,KiCad,Pcbnew,6.0.11-2627ca5db0~126~ubuntu22.04.1*%
%TF.CreationDate,2023-02-13T08:28:21-04:00*%
%TF.ProjectId,Topo_v0,546f706f-5f76-4302-9e6b-696361645f70,v0*%
%TF.SameCoordinates,Original*%
%TF.FileFunction,Legend,Bot*%
%TF.FilePolarity,Positive*%
%FSLAX46Y46*%
G04 Gerber Fmt 4.6, Leading zero omitted, Abs format (unit mm)*
G04 Created by KiCad (PCBNEW 6.0.11-2627ca5db0~126~ubuntu22.04.1) date 2023-02-13 08:28:21*
%MOMM*%
%LPD*%
G01*
G04 APERTURE LIST*
%ADD10C,1.000000*%
%ADD11C,0.152400*%
%ADD12C,0.120000*%
G04 APERTURE END LIST*
D10*
X268000000Y-115000000D02*
X23500000Y-115000000D01*
X21000000Y-71000000D02*
X21000000Y-65000000D01*
X270000000Y-23500000D02*
G75*
G03*
X267500000Y-21000000I-2500000J0D01*
G01*
X270000000Y-23500000D02*
X270000000Y-112500000D01*
X21000000Y-23500000D02*
X21000000Y-62500000D01*
X21000000Y-112500000D02*
G75*
G03*
X23500000Y-115000000I2500000J0D01*
G01*
X267500000Y-115000000D02*
G75*
G03*
X270000000Y-112500000I0J2500000D01*
G01*
X267500000Y-21000000D02*
X23500000Y-21000000D01*
X23500000Y-21000000D02*
G75*
G03*
X21000000Y-23500000I0J-2500000D01*
G01*
X21000000Y-112500000D02*
X21000000Y-73500000D01*
D11*
%TO.C,SW52*%
X259621142Y-56588761D02*
X259730000Y-56540380D01*
X259911428Y-56540380D01*
X259984000Y-56588761D01*
X260020285Y-56637142D01*
X260056571Y-56733904D01*
X260056571Y-56830666D01*
X260020285Y-56927428D01*
X259984000Y-56975809D01*
X259911428Y-57024190D01*
X259766285Y-57072571D01*
X259693714Y-57120952D01*
X259657428Y-57169333D01*
X259621142Y-57266095D01*
X259621142Y-57362857D01*
X259657428Y-57459619D01*
X259693714Y-57508000D01*
X259766285Y-57556380D01*
X259947714Y-57556380D01*
X260056571Y-57508000D01*
X260310571Y-57556380D02*
X260492000Y-56540380D01*
X260637142Y-57266095D01*
X260782285Y-56540380D01*
X260963714Y-57556380D01*
X261616857Y-57556380D02*
X261254000Y-57556380D01*
X261217714Y-57072571D01*
X261254000Y-57120952D01*
X261326571Y-57169333D01*
X261508000Y-57169333D01*
X261580571Y-57120952D01*
X261616857Y-57072571D01*
X261653142Y-56975809D01*
X261653142Y-56733904D01*
X261616857Y-56637142D01*
X261580571Y-56588761D01*
X261508000Y-56540380D01*
X261326571Y-56540380D01*
X261254000Y-56588761D01*
X261217714Y-56637142D01*
X261943428Y-57459619D02*
X261979714Y-57508000D01*
X262052285Y-57556380D01*
X262233714Y-57556380D01*
X262306285Y-57508000D01*
X262342571Y-57459619D01*
X262378857Y-57362857D01*
X262378857Y-57266095D01*
X262342571Y-57120952D01*
X261907142Y-56540380D01*
X262378857Y-56540380D01*
%TO.C,SW42*%
X69621142Y-56588761D02*
X69730000Y-56540380D01*
X69911428Y-56540380D01*
X69984000Y-56588761D01*
X70020285Y-56637142D01*
X70056571Y-56733904D01*
X70056571Y-56830666D01*
X70020285Y-56927428D01*
X69984000Y-56975809D01*
X69911428Y-57024190D01*
X69766285Y-57072571D01*
X69693714Y-57120952D01*
X69657428Y-57169333D01*
X69621142Y-57266095D01*
X69621142Y-57362857D01*
X69657428Y-57459619D01*
X69693714Y-57508000D01*
X69766285Y-57556380D01*
X69947714Y-57556380D01*
X70056571Y-57508000D01*
X70310571Y-57556380D02*
X70492000Y-56540380D01*
X70637142Y-57266095D01*
X70782285Y-56540380D01*
X70963714Y-57556380D01*
X71580571Y-57217714D02*
X71580571Y-56540380D01*
X71399142Y-57604761D02*
X71217714Y-56879047D01*
X71689428Y-56879047D01*
X71943428Y-57459619D02*
X71979714Y-57508000D01*
X72052285Y-57556380D01*
X72233714Y-57556380D01*
X72306285Y-57508000D01*
X72342571Y-57459619D01*
X72378857Y-57362857D01*
X72378857Y-57266095D01*
X72342571Y-57120952D01*
X71907142Y-56540380D01*
X72378857Y-56540380D01*
%TO.C,SW41*%
X50621142Y-56588761D02*
X50730000Y-56540380D01*
X50911428Y-56540380D01*
X50984000Y-56588761D01*
X51020285Y-56637142D01*
X51056571Y-56733904D01*
X51056571Y-56830666D01*
X51020285Y-56927428D01*
X50984000Y-56975809D01*
X50911428Y-57024190D01*
X50766285Y-57072571D01*
X50693714Y-57120952D01*
X50657428Y-57169333D01*
X50621142Y-57266095D01*
X50621142Y-57362857D01*
X50657428Y-57459619D01*
X50693714Y-57508000D01*
X50766285Y-57556380D01*
X50947714Y-57556380D01*
X51056571Y-57508000D01*
X51310571Y-57556380D02*
X51492000Y-56540380D01*
X51637142Y-57266095D01*
X51782285Y-56540380D01*
X51963714Y-57556380D01*
X52580571Y-57217714D02*
X52580571Y-56540380D01*
X52399142Y-57604761D02*
X52217714Y-56879047D01*
X52689428Y-56879047D01*
X53378857Y-56540380D02*
X52943428Y-56540380D01*
X53161142Y-56540380D02*
X53161142Y-57556380D01*
X53088571Y-57411238D01*
X53016000Y-57314476D01*
X52943428Y-57266095D01*
%TO.C,SW43*%
X88621142Y-56588761D02*
X88730000Y-56540380D01*
X88911428Y-56540380D01*
X88984000Y-56588761D01*
X89020285Y-56637142D01*
X89056571Y-56733904D01*
X89056571Y-56830666D01*
X89020285Y-56927428D01*
X88984000Y-56975809D01*
X88911428Y-57024190D01*
X88766285Y-57072571D01*
X88693714Y-57120952D01*
X88657428Y-57169333D01*
X88621142Y-57266095D01*
X88621142Y-57362857D01*
X88657428Y-57459619D01*
X88693714Y-57508000D01*
X88766285Y-57556380D01*
X88947714Y-57556380D01*
X89056571Y-57508000D01*
X89310571Y-57556380D02*
X89492000Y-56540380D01*
X89637142Y-57266095D01*
X89782285Y-56540380D01*
X89963714Y-57556380D01*
X90580571Y-57217714D02*
X90580571Y-56540380D01*
X90399142Y-57604761D02*
X90217714Y-56879047D01*
X90689428Y-56879047D01*
X90907142Y-57556380D02*
X91378857Y-57556380D01*
X91124857Y-57169333D01*
X91233714Y-57169333D01*
X91306285Y-57120952D01*
X91342571Y-57072571D01*
X91378857Y-56975809D01*
X91378857Y-56733904D01*
X91342571Y-56637142D01*
X91306285Y-56588761D01*
X91233714Y-56540380D01*
X91016000Y-56540380D01*
X90943428Y-56588761D01*
X90907142Y-56637142D01*
%TO.C,SW12*%
X221621142Y-97088761D02*
X221730000Y-97040380D01*
X221911428Y-97040380D01*
X221984000Y-97088761D01*
X222020285Y-97137142D01*
X222056571Y-97233904D01*
X222056571Y-97330666D01*
X222020285Y-97427428D01*
X221984000Y-97475809D01*
X221911428Y-97524190D01*
X221766285Y-97572571D01*
X221693714Y-97620952D01*
X221657428Y-97669333D01*
X221621142Y-97766095D01*
X221621142Y-97862857D01*
X221657428Y-97959619D01*
X221693714Y-98008000D01*
X221766285Y-98056380D01*
X221947714Y-98056380D01*
X222056571Y-98008000D01*
X222310571Y-98056380D02*
X222492000Y-97040380D01*
X222637142Y-97766095D01*
X222782285Y-97040380D01*
X222963714Y-98056380D01*
X223653142Y-97040380D02*
X223217714Y-97040380D01*
X223435428Y-97040380D02*
X223435428Y-98056380D01*
X223362857Y-97911238D01*
X223290285Y-97814476D01*
X223217714Y-97766095D01*
X223943428Y-97959619D02*
X223979714Y-98008000D01*
X224052285Y-98056380D01*
X224233714Y-98056380D01*
X224306285Y-98008000D01*
X224342571Y-97959619D01*
X224378857Y-97862857D01*
X224378857Y-97766095D01*
X224342571Y-97620952D01*
X223907142Y-97040380D01*
X224378857Y-97040380D01*
%TO.C,SW4*%
X50984000Y-97088761D02*
X51092857Y-97040380D01*
X51274285Y-97040380D01*
X51346857Y-97088761D01*
X51383142Y-97137142D01*
X51419428Y-97233904D01*
X51419428Y-97330666D01*
X51383142Y-97427428D01*
X51346857Y-97475809D01*
X51274285Y-97524190D01*
X51129142Y-97572571D01*
X51056571Y-97620952D01*
X51020285Y-97669333D01*
X50984000Y-97766095D01*
X50984000Y-97862857D01*
X51020285Y-97959619D01*
X51056571Y-98008000D01*
X51129142Y-98056380D01*
X51310571Y-98056380D01*
X51419428Y-98008000D01*
X51673428Y-98056380D02*
X51854857Y-97040380D01*
X52000000Y-97766095D01*
X52145142Y-97040380D01*
X52326571Y-98056380D01*
X52943428Y-97717714D02*
X52943428Y-97040380D01*
X52762000Y-98104761D02*
X52580571Y-97379047D01*
X53052285Y-97379047D01*
%TO.C,SW7*%
X107984000Y-97088761D02*
X108092857Y-97040380D01*
X108274285Y-97040380D01*
X108346857Y-97088761D01*
X108383142Y-97137142D01*
X108419428Y-97233904D01*
X108419428Y-97330666D01*
X108383142Y-97427428D01*
X108346857Y-97475809D01*
X108274285Y-97524190D01*
X108129142Y-97572571D01*
X108056571Y-97620952D01*
X108020285Y-97669333D01*
X107984000Y-97766095D01*
X107984000Y-97862857D01*
X108020285Y-97959619D01*
X108056571Y-98008000D01*
X108129142Y-98056380D01*
X108310571Y-98056380D01*
X108419428Y-98008000D01*
X108673428Y-98056380D02*
X108854857Y-97040380D01*
X109000000Y-97766095D01*
X109145142Y-97040380D01*
X109326571Y-98056380D01*
X109544285Y-98056380D02*
X110052285Y-98056380D01*
X109725714Y-97040380D01*
%TO.C,SW57*%
X107621142Y-37588761D02*
X107730000Y-37540380D01*
X107911428Y-37540380D01*
X107984000Y-37588761D01*
X108020285Y-37637142D01*
X108056571Y-37733904D01*
X108056571Y-37830666D01*
X108020285Y-37927428D01*
X107984000Y-37975809D01*
X107911428Y-38024190D01*
X107766285Y-38072571D01*
X107693714Y-38120952D01*
X107657428Y-38169333D01*
X107621142Y-38266095D01*
X107621142Y-38362857D01*
X107657428Y-38459619D01*
X107693714Y-38508000D01*
X107766285Y-38556380D01*
X107947714Y-38556380D01*
X108056571Y-38508000D01*
X108310571Y-38556380D02*
X108492000Y-37540380D01*
X108637142Y-38266095D01*
X108782285Y-37540380D01*
X108963714Y-38556380D01*
X109616857Y-38556380D02*
X109254000Y-38556380D01*
X109217714Y-38072571D01*
X109254000Y-38120952D01*
X109326571Y-38169333D01*
X109508000Y-38169333D01*
X109580571Y-38120952D01*
X109616857Y-38072571D01*
X109653142Y-37975809D01*
X109653142Y-37733904D01*
X109616857Y-37637142D01*
X109580571Y-37588761D01*
X109508000Y-37540380D01*
X109326571Y-37540380D01*
X109254000Y-37588761D01*
X109217714Y-37637142D01*
X109907142Y-38556380D02*
X110415142Y-38556380D01*
X110088571Y-37540380D01*
%TO.C,SW53*%
X28621142Y-37588761D02*
X28730000Y-37540380D01*
X28911428Y-37540380D01*
X28984000Y-37588761D01*
X29020285Y-37637142D01*
X29056571Y-37733904D01*
X29056571Y-37830666D01*
X29020285Y-37927428D01*
X28984000Y-37975809D01*
X28911428Y-38024190D01*
X28766285Y-38072571D01*
X28693714Y-38120952D01*
X28657428Y-38169333D01*
X28621142Y-38266095D01*
X28621142Y-38362857D01*
X28657428Y-38459619D01*
X28693714Y-38508000D01*
X28766285Y-38556380D01*
X28947714Y-38556380D01*
X29056571Y-38508000D01*
X29310571Y-38556380D02*
X29492000Y-37540380D01*
X29637142Y-38266095D01*
X29782285Y-37540380D01*
X29963714Y-38556380D01*
X30616857Y-38556380D02*
X30254000Y-38556380D01*
X30217714Y-38072571D01*
X30254000Y-38120952D01*
X30326571Y-38169333D01*
X30508000Y-38169333D01*
X30580571Y-38120952D01*
X30616857Y-38072571D01*
X30653142Y-37975809D01*
X30653142Y-37733904D01*
X30616857Y-37637142D01*
X30580571Y-37588761D01*
X30508000Y-37540380D01*
X30326571Y-37540380D01*
X30254000Y-37588761D01*
X30217714Y-37637142D01*
X30907142Y-38556380D02*
X31378857Y-38556380D01*
X31124857Y-38169333D01*
X31233714Y-38169333D01*
X31306285Y-38120952D01*
X31342571Y-38072571D01*
X31378857Y-37975809D01*
X31378857Y-37733904D01*
X31342571Y-37637142D01*
X31306285Y-37588761D01*
X31233714Y-37540380D01*
X31016000Y-37540380D01*
X30943428Y-37588761D01*
X30907142Y-37637142D01*
%TO.C,SW31*%
X107621142Y-75588761D02*
X107730000Y-75540380D01*
X107911428Y-75540380D01*
X107984000Y-75588761D01*
X108020285Y-75637142D01*
X108056571Y-75733904D01*
X108056571Y-75830666D01*
X108020285Y-75927428D01*
X107984000Y-75975809D01*
X107911428Y-76024190D01*
X107766285Y-76072571D01*
X107693714Y-76120952D01*
X107657428Y-76169333D01*
X107621142Y-76266095D01*
X107621142Y-76362857D01*
X107657428Y-76459619D01*
X107693714Y-76508000D01*
X107766285Y-76556380D01*
X107947714Y-76556380D01*
X108056571Y-76508000D01*
X108310571Y-76556380D02*
X108492000Y-75540380D01*
X108637142Y-76266095D01*
X108782285Y-75540380D01*
X108963714Y-76556380D01*
X109181428Y-76556380D02*
X109653142Y-76556380D01*
X109399142Y-76169333D01*
X109508000Y-76169333D01*
X109580571Y-76120952D01*
X109616857Y-76072571D01*
X109653142Y-75975809D01*
X109653142Y-75733904D01*
X109616857Y-75637142D01*
X109580571Y-75588761D01*
X109508000Y-75540380D01*
X109290285Y-75540380D01*
X109217714Y-75588761D01*
X109181428Y-75637142D01*
X110378857Y-75540380D02*
X109943428Y-75540380D01*
X110161142Y-75540380D02*
X110161142Y-76556380D01*
X110088571Y-76411238D01*
X110016000Y-76314476D01*
X109943428Y-76266095D01*
%TO.C,SW55*%
X69621142Y-37588761D02*
X69730000Y-37540380D01*
X69911428Y-37540380D01*
X69984000Y-37588761D01*
X70020285Y-37637142D01*
X70056571Y-37733904D01*
X70056571Y-37830666D01*
X70020285Y-37927428D01*
X69984000Y-37975809D01*
X69911428Y-38024190D01*
X69766285Y-38072571D01*
X69693714Y-38120952D01*
X69657428Y-38169333D01*
X69621142Y-38266095D01*
X69621142Y-38362857D01*
X69657428Y-38459619D01*
X69693714Y-38508000D01*
X69766285Y-38556380D01*
X69947714Y-38556380D01*
X70056571Y-38508000D01*
X70310571Y-38556380D02*
X70492000Y-37540380D01*
X70637142Y-38266095D01*
X70782285Y-37540380D01*
X70963714Y-38556380D01*
X71616857Y-38556380D02*
X71254000Y-38556380D01*
X71217714Y-38072571D01*
X71254000Y-38120952D01*
X71326571Y-38169333D01*
X71508000Y-38169333D01*
X71580571Y-38120952D01*
X71616857Y-38072571D01*
X71653142Y-37975809D01*
X71653142Y-37733904D01*
X71616857Y-37637142D01*
X71580571Y-37588761D01*
X71508000Y-37540380D01*
X71326571Y-37540380D01*
X71254000Y-37588761D01*
X71217714Y-37637142D01*
X72342571Y-38556380D02*
X71979714Y-38556380D01*
X71943428Y-38072571D01*
X71979714Y-38120952D01*
X72052285Y-38169333D01*
X72233714Y-38169333D01*
X72306285Y-38120952D01*
X72342571Y-38072571D01*
X72378857Y-37975809D01*
X72378857Y-37733904D01*
X72342571Y-37637142D01*
X72306285Y-37588761D01*
X72233714Y-37540380D01*
X72052285Y-37540380D01*
X71979714Y-37588761D01*
X71943428Y-37637142D01*
%TO.C,SW25*%
X221621142Y-94588761D02*
X221730000Y-94540380D01*
X221911428Y-94540380D01*
X221984000Y-94588761D01*
X222020285Y-94637142D01*
X222056571Y-94733904D01*
X222056571Y-94830666D01*
X222020285Y-94927428D01*
X221984000Y-94975809D01*
X221911428Y-95024190D01*
X221766285Y-95072571D01*
X221693714Y-95120952D01*
X221657428Y-95169333D01*
X221621142Y-95266095D01*
X221621142Y-95362857D01*
X221657428Y-95459619D01*
X221693714Y-95508000D01*
X221766285Y-95556380D01*
X221947714Y-95556380D01*
X222056571Y-95508000D01*
X222310571Y-95556380D02*
X222492000Y-94540380D01*
X222637142Y-95266095D01*
X222782285Y-94540380D01*
X222963714Y-95556380D01*
X223217714Y-95459619D02*
X223254000Y-95508000D01*
X223326571Y-95556380D01*
X223508000Y-95556380D01*
X223580571Y-95508000D01*
X223616857Y-95459619D01*
X223653142Y-95362857D01*
X223653142Y-95266095D01*
X223616857Y-95120952D01*
X223181428Y-94540380D01*
X223653142Y-94540380D01*
X224342571Y-95556380D02*
X223979714Y-95556380D01*
X223943428Y-95072571D01*
X223979714Y-95120952D01*
X224052285Y-95169333D01*
X224233714Y-95169333D01*
X224306285Y-95120952D01*
X224342571Y-95072571D01*
X224378857Y-94975809D01*
X224378857Y-94733904D01*
X224342571Y-94637142D01*
X224306285Y-94588761D01*
X224233714Y-94540380D01*
X224052285Y-94540380D01*
X223979714Y-94588761D01*
X223943428Y-94637142D01*
%TO.C,SW32*%
X126621142Y-75588761D02*
X126730000Y-75540380D01*
X126911428Y-75540380D01*
X126984000Y-75588761D01*
X127020285Y-75637142D01*
X127056571Y-75733904D01*
X127056571Y-75830666D01*
X127020285Y-75927428D01*
X126984000Y-75975809D01*
X126911428Y-76024190D01*
X126766285Y-76072571D01*
X126693714Y-76120952D01*
X126657428Y-76169333D01*
X126621142Y-76266095D01*
X126621142Y-76362857D01*
X126657428Y-76459619D01*
X126693714Y-76508000D01*
X126766285Y-76556380D01*
X126947714Y-76556380D01*
X127056571Y-76508000D01*
X127310571Y-76556380D02*
X127492000Y-75540380D01*
X127637142Y-76266095D01*
X127782285Y-75540380D01*
X127963714Y-76556380D01*
X128181428Y-76556380D02*
X128653142Y-76556380D01*
X128399142Y-76169333D01*
X128508000Y-76169333D01*
X128580571Y-76120952D01*
X128616857Y-76072571D01*
X128653142Y-75975809D01*
X128653142Y-75733904D01*
X128616857Y-75637142D01*
X128580571Y-75588761D01*
X128508000Y-75540380D01*
X128290285Y-75540380D01*
X128217714Y-75588761D01*
X128181428Y-75637142D01*
X128943428Y-76459619D02*
X128979714Y-76508000D01*
X129052285Y-76556380D01*
X129233714Y-76556380D01*
X129306285Y-76508000D01*
X129342571Y-76459619D01*
X129378857Y-76362857D01*
X129378857Y-76266095D01*
X129342571Y-76120952D01*
X128907142Y-75540380D01*
X129378857Y-75540380D01*
%TO.C,SW49*%
X202621142Y-56588761D02*
X202730000Y-56540380D01*
X202911428Y-56540380D01*
X202984000Y-56588761D01*
X203020285Y-56637142D01*
X203056571Y-56733904D01*
X203056571Y-56830666D01*
X203020285Y-56927428D01*
X202984000Y-56975809D01*
X202911428Y-57024190D01*
X202766285Y-57072571D01*
X202693714Y-57120952D01*
X202657428Y-57169333D01*
X202621142Y-57266095D01*
X202621142Y-57362857D01*
X202657428Y-57459619D01*
X202693714Y-57508000D01*
X202766285Y-57556380D01*
X202947714Y-57556380D01*
X203056571Y-57508000D01*
X203310571Y-57556380D02*
X203492000Y-56540380D01*
X203637142Y-57266095D01*
X203782285Y-56540380D01*
X203963714Y-57556380D01*
X204580571Y-57217714D02*
X204580571Y-56540380D01*
X204399142Y-57604761D02*
X204217714Y-56879047D01*
X204689428Y-56879047D01*
X205016000Y-56540380D02*
X205161142Y-56540380D01*
X205233714Y-56588761D01*
X205270000Y-56637142D01*
X205342571Y-56782285D01*
X205378857Y-56975809D01*
X205378857Y-57362857D01*
X205342571Y-57459619D01*
X205306285Y-57508000D01*
X205233714Y-57556380D01*
X205088571Y-57556380D01*
X205016000Y-57508000D01*
X204979714Y-57459619D01*
X204943428Y-57362857D01*
X204943428Y-57120952D01*
X204979714Y-57024190D01*
X205016000Y-56975809D01*
X205088571Y-56927428D01*
X205233714Y-56927428D01*
X205306285Y-56975809D01*
X205342571Y-57024190D01*
X205378857Y-57120952D01*
%TO.C,SW15*%
X28621142Y-94588761D02*
X28730000Y-94540380D01*
X28911428Y-94540380D01*
X28984000Y-94588761D01*
X29020285Y-94637142D01*
X29056571Y-94733904D01*
X29056571Y-94830666D01*
X29020285Y-94927428D01*
X28984000Y-94975809D01*
X28911428Y-95024190D01*
X28766285Y-95072571D01*
X28693714Y-95120952D01*
X28657428Y-95169333D01*
X28621142Y-95266095D01*
X28621142Y-95362857D01*
X28657428Y-95459619D01*
X28693714Y-95508000D01*
X28766285Y-95556380D01*
X28947714Y-95556380D01*
X29056571Y-95508000D01*
X29310571Y-95556380D02*
X29492000Y-94540380D01*
X29637142Y-95266095D01*
X29782285Y-94540380D01*
X29963714Y-95556380D01*
X30653142Y-94540380D02*
X30217714Y-94540380D01*
X30435428Y-94540380D02*
X30435428Y-95556380D01*
X30362857Y-95411238D01*
X30290285Y-95314476D01*
X30217714Y-95266095D01*
X31342571Y-95556380D02*
X30979714Y-95556380D01*
X30943428Y-95072571D01*
X30979714Y-95120952D01*
X31052285Y-95169333D01*
X31233714Y-95169333D01*
X31306285Y-95120952D01*
X31342571Y-95072571D01*
X31378857Y-94975809D01*
X31378857Y-94733904D01*
X31342571Y-94637142D01*
X31306285Y-94588761D01*
X31233714Y-94540380D01*
X31052285Y-94540380D01*
X30979714Y-94588761D01*
X30943428Y-94637142D01*
%TO.C,SW28*%
X50621142Y-75588761D02*
X50730000Y-75540380D01*
X50911428Y-75540380D01*
X50984000Y-75588761D01*
X51020285Y-75637142D01*
X51056571Y-75733904D01*
X51056571Y-75830666D01*
X51020285Y-75927428D01*
X50984000Y-75975809D01*
X50911428Y-76024190D01*
X50766285Y-76072571D01*
X50693714Y-76120952D01*
X50657428Y-76169333D01*
X50621142Y-76266095D01*
X50621142Y-76362857D01*
X50657428Y-76459619D01*
X50693714Y-76508000D01*
X50766285Y-76556380D01*
X50947714Y-76556380D01*
X51056571Y-76508000D01*
X51310571Y-76556380D02*
X51492000Y-75540380D01*
X51637142Y-76266095D01*
X51782285Y-75540380D01*
X51963714Y-76556380D01*
X52217714Y-76459619D02*
X52254000Y-76508000D01*
X52326571Y-76556380D01*
X52508000Y-76556380D01*
X52580571Y-76508000D01*
X52616857Y-76459619D01*
X52653142Y-76362857D01*
X52653142Y-76266095D01*
X52616857Y-76120952D01*
X52181428Y-75540380D01*
X52653142Y-75540380D01*
X53088571Y-76120952D02*
X53016000Y-76169333D01*
X52979714Y-76217714D01*
X52943428Y-76314476D01*
X52943428Y-76362857D01*
X52979714Y-76459619D01*
X53016000Y-76508000D01*
X53088571Y-76556380D01*
X53233714Y-76556380D01*
X53306285Y-76508000D01*
X53342571Y-76459619D01*
X53378857Y-76362857D01*
X53378857Y-76314476D01*
X53342571Y-76217714D01*
X53306285Y-76169333D01*
X53233714Y-76120952D01*
X53088571Y-76120952D01*
X53016000Y-76072571D01*
X52979714Y-76024190D01*
X52943428Y-75927428D01*
X52943428Y-75733904D01*
X52979714Y-75637142D01*
X53016000Y-75588761D01*
X53088571Y-75540380D01*
X53233714Y-75540380D01*
X53306285Y-75588761D01*
X53342571Y-75637142D01*
X53378857Y-75733904D01*
X53378857Y-75927428D01*
X53342571Y-76024190D01*
X53306285Y-76072571D01*
X53233714Y-76120952D01*
%TO.C,SW16*%
X50621142Y-94588761D02*
X50730000Y-94540380D01*
X50911428Y-94540380D01*
X50984000Y-94588761D01*
X51020285Y-94637142D01*
X51056571Y-94733904D01*
X51056571Y-94830666D01*
X51020285Y-94927428D01*
X50984000Y-94975809D01*
X50911428Y-95024190D01*
X50766285Y-95072571D01*
X50693714Y-95120952D01*
X50657428Y-95169333D01*
X50621142Y-95266095D01*
X50621142Y-95362857D01*
X50657428Y-95459619D01*
X50693714Y-95508000D01*
X50766285Y-95556380D01*
X50947714Y-95556380D01*
X51056571Y-95508000D01*
X51310571Y-95556380D02*
X51492000Y-94540380D01*
X51637142Y-95266095D01*
X51782285Y-94540380D01*
X51963714Y-95556380D01*
X52653142Y-94540380D02*
X52217714Y-94540380D01*
X52435428Y-94540380D02*
X52435428Y-95556380D01*
X52362857Y-95411238D01*
X52290285Y-95314476D01*
X52217714Y-95266095D01*
X53306285Y-95556380D02*
X53161142Y-95556380D01*
X53088571Y-95508000D01*
X53052285Y-95459619D01*
X52979714Y-95314476D01*
X52943428Y-95120952D01*
X52943428Y-94733904D01*
X52979714Y-94637142D01*
X53016000Y-94588761D01*
X53088571Y-94540380D01*
X53233714Y-94540380D01*
X53306285Y-94588761D01*
X53342571Y-94637142D01*
X53378857Y-94733904D01*
X53378857Y-94975809D01*
X53342571Y-95072571D01*
X53306285Y-95120952D01*
X53233714Y-95169333D01*
X53088571Y-95169333D01*
X53016000Y-95120952D01*
X52979714Y-95072571D01*
X52943428Y-94975809D01*
%TO.C,SW30*%
X88621142Y-75588761D02*
X88730000Y-75540380D01*
X88911428Y-75540380D01*
X88984000Y-75588761D01*
X89020285Y-75637142D01*
X89056571Y-75733904D01*
X89056571Y-75830666D01*
X89020285Y-75927428D01*
X88984000Y-75975809D01*
X88911428Y-76024190D01*
X88766285Y-76072571D01*
X88693714Y-76120952D01*
X88657428Y-76169333D01*
X88621142Y-76266095D01*
X88621142Y-76362857D01*
X88657428Y-76459619D01*
X88693714Y-76508000D01*
X88766285Y-76556380D01*
X88947714Y-76556380D01*
X89056571Y-76508000D01*
X89310571Y-76556380D02*
X89492000Y-75540380D01*
X89637142Y-76266095D01*
X89782285Y-75540380D01*
X89963714Y-76556380D01*
X90181428Y-76556380D02*
X90653142Y-76556380D01*
X90399142Y-76169333D01*
X90508000Y-76169333D01*
X90580571Y-76120952D01*
X90616857Y-76072571D01*
X90653142Y-75975809D01*
X90653142Y-75733904D01*
X90616857Y-75637142D01*
X90580571Y-75588761D01*
X90508000Y-75540380D01*
X90290285Y-75540380D01*
X90217714Y-75588761D01*
X90181428Y-75637142D01*
X91124857Y-76556380D02*
X91197428Y-76556380D01*
X91270000Y-76508000D01*
X91306285Y-76459619D01*
X91342571Y-76362857D01*
X91378857Y-76169333D01*
X91378857Y-75927428D01*
X91342571Y-75733904D01*
X91306285Y-75637142D01*
X91270000Y-75588761D01*
X91197428Y-75540380D01*
X91124857Y-75540380D01*
X91052285Y-75588761D01*
X91016000Y-75637142D01*
X90979714Y-75733904D01*
X90943428Y-75927428D01*
X90943428Y-76169333D01*
X90979714Y-76362857D01*
X91016000Y-76459619D01*
X91052285Y-76508000D01*
X91124857Y-76556380D01*
%TO.C,SW56*%
X88621142Y-37588761D02*
X88730000Y-37540380D01*
X88911428Y-37540380D01*
X88984000Y-37588761D01*
X89020285Y-37637142D01*
X89056571Y-37733904D01*
X89056571Y-37830666D01*
X89020285Y-37927428D01*
X88984000Y-37975809D01*
X88911428Y-38024190D01*
X88766285Y-38072571D01*
X88693714Y-38120952D01*
X88657428Y-38169333D01*
X88621142Y-38266095D01*
X88621142Y-38362857D01*
X88657428Y-38459619D01*
X88693714Y-38508000D01*
X88766285Y-38556380D01*
X88947714Y-38556380D01*
X89056571Y-38508000D01*
X89310571Y-38556380D02*
X89492000Y-37540380D01*
X89637142Y-38266095D01*
X89782285Y-37540380D01*
X89963714Y-38556380D01*
X90616857Y-38556380D02*
X90254000Y-38556380D01*
X90217714Y-38072571D01*
X90254000Y-38120952D01*
X90326571Y-38169333D01*
X90508000Y-38169333D01*
X90580571Y-38120952D01*
X90616857Y-38072571D01*
X90653142Y-37975809D01*
X90653142Y-37733904D01*
X90616857Y-37637142D01*
X90580571Y-37588761D01*
X90508000Y-37540380D01*
X90326571Y-37540380D01*
X90254000Y-37588761D01*
X90217714Y-37637142D01*
X91306285Y-38556380D02*
X91161142Y-38556380D01*
X91088571Y-38508000D01*
X91052285Y-38459619D01*
X90979714Y-38314476D01*
X90943428Y-38120952D01*
X90943428Y-37733904D01*
X90979714Y-37637142D01*
X91016000Y-37588761D01*
X91088571Y-37540380D01*
X91233714Y-37540380D01*
X91306285Y-37588761D01*
X91342571Y-37637142D01*
X91378857Y-37733904D01*
X91378857Y-37975809D01*
X91342571Y-38072571D01*
X91306285Y-38120952D01*
X91233714Y-38169333D01*
X91088571Y-38169333D01*
X91016000Y-38120952D01*
X90979714Y-38072571D01*
X90943428Y-37975809D01*
%TO.C,SW35*%
X183621142Y-75588761D02*
X183730000Y-75540380D01*
X183911428Y-75540380D01*
X183984000Y-75588761D01*
X184020285Y-75637142D01*
X184056571Y-75733904D01*
X184056571Y-75830666D01*
X184020285Y-75927428D01*
X183984000Y-75975809D01*
X183911428Y-76024190D01*
X183766285Y-76072571D01*
X183693714Y-76120952D01*
X183657428Y-76169333D01*
X183621142Y-76266095D01*
X183621142Y-76362857D01*
X183657428Y-76459619D01*
X183693714Y-76508000D01*
X183766285Y-76556380D01*
X183947714Y-76556380D01*
X184056571Y-76508000D01*
X184310571Y-76556380D02*
X184492000Y-75540380D01*
X184637142Y-76266095D01*
X184782285Y-75540380D01*
X184963714Y-76556380D01*
X185181428Y-76556380D02*
X185653142Y-76556380D01*
X185399142Y-76169333D01*
X185508000Y-76169333D01*
X185580571Y-76120952D01*
X185616857Y-76072571D01*
X185653142Y-75975809D01*
X185653142Y-75733904D01*
X185616857Y-75637142D01*
X185580571Y-75588761D01*
X185508000Y-75540380D01*
X185290285Y-75540380D01*
X185217714Y-75588761D01*
X185181428Y-75637142D01*
X186342571Y-76556380D02*
X185979714Y-76556380D01*
X185943428Y-76072571D01*
X185979714Y-76120952D01*
X186052285Y-76169333D01*
X186233714Y-76169333D01*
X186306285Y-76120952D01*
X186342571Y-76072571D01*
X186378857Y-75975809D01*
X186378857Y-75733904D01*
X186342571Y-75637142D01*
X186306285Y-75588761D01*
X186233714Y-75540380D01*
X186052285Y-75540380D01*
X185979714Y-75588761D01*
X185943428Y-75637142D01*
%TO.C,SW47*%
X164621142Y-56588761D02*
X164730000Y-56540380D01*
X164911428Y-56540380D01*
X164984000Y-56588761D01*
X165020285Y-56637142D01*
X165056571Y-56733904D01*
X165056571Y-56830666D01*
X165020285Y-56927428D01*
X164984000Y-56975809D01*
X164911428Y-57024190D01*
X164766285Y-57072571D01*
X164693714Y-57120952D01*
X164657428Y-57169333D01*
X164621142Y-57266095D01*
X164621142Y-57362857D01*
X164657428Y-57459619D01*
X164693714Y-57508000D01*
X164766285Y-57556380D01*
X164947714Y-57556380D01*
X165056571Y-57508000D01*
X165310571Y-57556380D02*
X165492000Y-56540380D01*
X165637142Y-57266095D01*
X165782285Y-56540380D01*
X165963714Y-57556380D01*
X166580571Y-57217714D02*
X166580571Y-56540380D01*
X166399142Y-57604761D02*
X166217714Y-56879047D01*
X166689428Y-56879047D01*
X166907142Y-57556380D02*
X167415142Y-57556380D01*
X167088571Y-56540380D01*
%TO.C,SW39*%
X259621142Y-75588761D02*
X259730000Y-75540380D01*
X259911428Y-75540380D01*
X259984000Y-75588761D01*
X260020285Y-75637142D01*
X260056571Y-75733904D01*
X260056571Y-75830666D01*
X260020285Y-75927428D01*
X259984000Y-75975809D01*
X259911428Y-76024190D01*
X259766285Y-76072571D01*
X259693714Y-76120952D01*
X259657428Y-76169333D01*
X259621142Y-76266095D01*
X259621142Y-76362857D01*
X259657428Y-76459619D01*
X259693714Y-76508000D01*
X259766285Y-76556380D01*
X259947714Y-76556380D01*
X260056571Y-76508000D01*
X260310571Y-76556380D02*
X260492000Y-75540380D01*
X260637142Y-76266095D01*
X260782285Y-75540380D01*
X260963714Y-76556380D01*
X261181428Y-76556380D02*
X261653142Y-76556380D01*
X261399142Y-76169333D01*
X261508000Y-76169333D01*
X261580571Y-76120952D01*
X261616857Y-76072571D01*
X261653142Y-75975809D01*
X261653142Y-75733904D01*
X261616857Y-75637142D01*
X261580571Y-75588761D01*
X261508000Y-75540380D01*
X261290285Y-75540380D01*
X261217714Y-75588761D01*
X261181428Y-75637142D01*
X262016000Y-75540380D02*
X262161142Y-75540380D01*
X262233714Y-75588761D01*
X262270000Y-75637142D01*
X262342571Y-75782285D01*
X262378857Y-75975809D01*
X262378857Y-76362857D01*
X262342571Y-76459619D01*
X262306285Y-76508000D01*
X262233714Y-76556380D01*
X262088571Y-76556380D01*
X262016000Y-76508000D01*
X261979714Y-76459619D01*
X261943428Y-76362857D01*
X261943428Y-76120952D01*
X261979714Y-76024190D01*
X262016000Y-75975809D01*
X262088571Y-75927428D01*
X262233714Y-75927428D01*
X262306285Y-75975809D01*
X262342571Y-76024190D01*
X262378857Y-76120952D01*
%TO.C,SW13*%
X240621142Y-97088761D02*
X240730000Y-97040380D01*
X240911428Y-97040380D01*
X240984000Y-97088761D01*
X241020285Y-97137142D01*
X241056571Y-97233904D01*
X241056571Y-97330666D01*
X241020285Y-97427428D01*
X240984000Y-97475809D01*
X240911428Y-97524190D01*
X240766285Y-97572571D01*
X240693714Y-97620952D01*
X240657428Y-97669333D01*
X240621142Y-97766095D01*
X240621142Y-97862857D01*
X240657428Y-97959619D01*
X240693714Y-98008000D01*
X240766285Y-98056380D01*
X240947714Y-98056380D01*
X241056571Y-98008000D01*
X241310571Y-98056380D02*
X241492000Y-97040380D01*
X241637142Y-97766095D01*
X241782285Y-97040380D01*
X241963714Y-98056380D01*
X242653142Y-97040380D02*
X242217714Y-97040380D01*
X242435428Y-97040380D02*
X242435428Y-98056380D01*
X242362857Y-97911238D01*
X242290285Y-97814476D01*
X242217714Y-97766095D01*
X242907142Y-98056380D02*
X243378857Y-98056380D01*
X243124857Y-97669333D01*
X243233714Y-97669333D01*
X243306285Y-97620952D01*
X243342571Y-97572571D01*
X243378857Y-97475809D01*
X243378857Y-97233904D01*
X243342571Y-97137142D01*
X243306285Y-97088761D01*
X243233714Y-97040380D01*
X243016000Y-97040380D01*
X242943428Y-97088761D01*
X242907142Y-97137142D01*
%TO.C,SW63*%
X240621142Y-37588761D02*
X240730000Y-37540380D01*
X240911428Y-37540380D01*
X240984000Y-37588761D01*
X241020285Y-37637142D01*
X241056571Y-37733904D01*
X241056571Y-37830666D01*
X241020285Y-37927428D01*
X240984000Y-37975809D01*
X240911428Y-38024190D01*
X240766285Y-38072571D01*
X240693714Y-38120952D01*
X240657428Y-38169333D01*
X240621142Y-38266095D01*
X240621142Y-38362857D01*
X240657428Y-38459619D01*
X240693714Y-38508000D01*
X240766285Y-38556380D01*
X240947714Y-38556380D01*
X241056571Y-38508000D01*
X241310571Y-38556380D02*
X241492000Y-37540380D01*
X241637142Y-38266095D01*
X241782285Y-37540380D01*
X241963714Y-38556380D01*
X242580571Y-38556380D02*
X242435428Y-38556380D01*
X242362857Y-38508000D01*
X242326571Y-38459619D01*
X242254000Y-38314476D01*
X242217714Y-38120952D01*
X242217714Y-37733904D01*
X242254000Y-37637142D01*
X242290285Y-37588761D01*
X242362857Y-37540380D01*
X242508000Y-37540380D01*
X242580571Y-37588761D01*
X242616857Y-37637142D01*
X242653142Y-37733904D01*
X242653142Y-37975809D01*
X242616857Y-38072571D01*
X242580571Y-38120952D01*
X242508000Y-38169333D01*
X242362857Y-38169333D01*
X242290285Y-38120952D01*
X242254000Y-38072571D01*
X242217714Y-37975809D01*
X242907142Y-38556380D02*
X243378857Y-38556380D01*
X243124857Y-38169333D01*
X243233714Y-38169333D01*
X243306285Y-38120952D01*
X243342571Y-38072571D01*
X243378857Y-37975809D01*
X243378857Y-37733904D01*
X243342571Y-37637142D01*
X243306285Y-37588761D01*
X243233714Y-37540380D01*
X243016000Y-37540380D01*
X242943428Y-37588761D01*
X242907142Y-37637142D01*
%TO.C,SW23*%
X183621142Y-94588761D02*
X183730000Y-94540380D01*
X183911428Y-94540380D01*
X183984000Y-94588761D01*
X184020285Y-94637142D01*
X184056571Y-94733904D01*
X184056571Y-94830666D01*
X184020285Y-94927428D01*
X183984000Y-94975809D01*
X183911428Y-95024190D01*
X183766285Y-95072571D01*
X183693714Y-95120952D01*
X183657428Y-95169333D01*
X183621142Y-95266095D01*
X183621142Y-95362857D01*
X183657428Y-95459619D01*
X183693714Y-95508000D01*
X183766285Y-95556380D01*
X183947714Y-95556380D01*
X184056571Y-95508000D01*
X184310571Y-95556380D02*
X184492000Y-94540380D01*
X184637142Y-95266095D01*
X184782285Y-94540380D01*
X184963714Y-95556380D01*
X185217714Y-95459619D02*
X185254000Y-95508000D01*
X185326571Y-95556380D01*
X185508000Y-95556380D01*
X185580571Y-95508000D01*
X185616857Y-95459619D01*
X185653142Y-95362857D01*
X185653142Y-95266095D01*
X185616857Y-95120952D01*
X185181428Y-94540380D01*
X185653142Y-94540380D01*
X185907142Y-95556380D02*
X186378857Y-95556380D01*
X186124857Y-95169333D01*
X186233714Y-95169333D01*
X186306285Y-95120952D01*
X186342571Y-95072571D01*
X186378857Y-94975809D01*
X186378857Y-94733904D01*
X186342571Y-94637142D01*
X186306285Y-94588761D01*
X186233714Y-94540380D01*
X186016000Y-94540380D01*
X185943428Y-94588761D01*
X185907142Y-94637142D01*
%TO.C,SW5*%
X69984000Y-97088761D02*
X70092857Y-97040380D01*
X70274285Y-97040380D01*
X70346857Y-97088761D01*
X70383142Y-97137142D01*
X70419428Y-97233904D01*
X70419428Y-97330666D01*
X70383142Y-97427428D01*
X70346857Y-97475809D01*
X70274285Y-97524190D01*
X70129142Y-97572571D01*
X70056571Y-97620952D01*
X70020285Y-97669333D01*
X69984000Y-97766095D01*
X69984000Y-97862857D01*
X70020285Y-97959619D01*
X70056571Y-98008000D01*
X70129142Y-98056380D01*
X70310571Y-98056380D01*
X70419428Y-98008000D01*
X70673428Y-98056380D02*
X70854857Y-97040380D01*
X71000000Y-97766095D01*
X71145142Y-97040380D01*
X71326571Y-98056380D01*
X71979714Y-98056380D02*
X71616857Y-98056380D01*
X71580571Y-97572571D01*
X71616857Y-97620952D01*
X71689428Y-97669333D01*
X71870857Y-97669333D01*
X71943428Y-97620952D01*
X71979714Y-97572571D01*
X72016000Y-97475809D01*
X72016000Y-97233904D01*
X71979714Y-97137142D01*
X71943428Y-97088761D01*
X71870857Y-97040380D01*
X71689428Y-97040380D01*
X71616857Y-97088761D01*
X71580571Y-97137142D01*
%TO.C,SW48*%
X183621142Y-56588761D02*
X183730000Y-56540380D01*
X183911428Y-56540380D01*
X183984000Y-56588761D01*
X184020285Y-56637142D01*
X184056571Y-56733904D01*
X184056571Y-56830666D01*
X184020285Y-56927428D01*
X183984000Y-56975809D01*
X183911428Y-57024190D01*
X183766285Y-57072571D01*
X183693714Y-57120952D01*
X183657428Y-57169333D01*
X183621142Y-57266095D01*
X183621142Y-57362857D01*
X183657428Y-57459619D01*
X183693714Y-57508000D01*
X183766285Y-57556380D01*
X183947714Y-57556380D01*
X184056571Y-57508000D01*
X184310571Y-57556380D02*
X184492000Y-56540380D01*
X184637142Y-57266095D01*
X184782285Y-56540380D01*
X184963714Y-57556380D01*
X185580571Y-57217714D02*
X185580571Y-56540380D01*
X185399142Y-57604761D02*
X185217714Y-56879047D01*
X185689428Y-56879047D01*
X186088571Y-57120952D02*
X186016000Y-57169333D01*
X185979714Y-57217714D01*
X185943428Y-57314476D01*
X185943428Y-57362857D01*
X185979714Y-57459619D01*
X186016000Y-57508000D01*
X186088571Y-57556380D01*
X186233714Y-57556380D01*
X186306285Y-57508000D01*
X186342571Y-57459619D01*
X186378857Y-57362857D01*
X186378857Y-57314476D01*
X186342571Y-57217714D01*
X186306285Y-57169333D01*
X186233714Y-57120952D01*
X186088571Y-57120952D01*
X186016000Y-57072571D01*
X185979714Y-57024190D01*
X185943428Y-56927428D01*
X185943428Y-56733904D01*
X185979714Y-56637142D01*
X186016000Y-56588761D01*
X186088571Y-56540380D01*
X186233714Y-56540380D01*
X186306285Y-56588761D01*
X186342571Y-56637142D01*
X186378857Y-56733904D01*
X186378857Y-56927428D01*
X186342571Y-57024190D01*
X186306285Y-57072571D01*
X186233714Y-57120952D01*
%TO.C,SW21*%
X145621142Y-94588761D02*
X145730000Y-94540380D01*
X145911428Y-94540380D01*
X145984000Y-94588761D01*
X146020285Y-94637142D01*
X146056571Y-94733904D01*
X146056571Y-94830666D01*
X146020285Y-94927428D01*
X145984000Y-94975809D01*
X145911428Y-95024190D01*
X145766285Y-95072571D01*
X145693714Y-95120952D01*
X145657428Y-95169333D01*
X145621142Y-95266095D01*
X145621142Y-95362857D01*
X145657428Y-95459619D01*
X145693714Y-95508000D01*
X145766285Y-95556380D01*
X145947714Y-95556380D01*
X146056571Y-95508000D01*
X146310571Y-95556380D02*
X146492000Y-94540380D01*
X146637142Y-95266095D01*
X146782285Y-94540380D01*
X146963714Y-95556380D01*
X147217714Y-95459619D02*
X147254000Y-95508000D01*
X147326571Y-95556380D01*
X147508000Y-95556380D01*
X147580571Y-95508000D01*
X147616857Y-95459619D01*
X147653142Y-95362857D01*
X147653142Y-95266095D01*
X147616857Y-95120952D01*
X147181428Y-94540380D01*
X147653142Y-94540380D01*
X148378857Y-94540380D02*
X147943428Y-94540380D01*
X148161142Y-94540380D02*
X148161142Y-95556380D01*
X148088571Y-95411238D01*
X148016000Y-95314476D01*
X147943428Y-95266095D01*
%TO.C,SW17*%
X69621142Y-94588761D02*
X69730000Y-94540380D01*
X69911428Y-94540380D01*
X69984000Y-94588761D01*
X70020285Y-94637142D01*
X70056571Y-94733904D01*
X70056571Y-94830666D01*
X70020285Y-94927428D01*
X69984000Y-94975809D01*
X69911428Y-95024190D01*
X69766285Y-95072571D01*
X69693714Y-95120952D01*
X69657428Y-95169333D01*
X69621142Y-95266095D01*
X69621142Y-95362857D01*
X69657428Y-95459619D01*
X69693714Y-95508000D01*
X69766285Y-95556380D01*
X69947714Y-95556380D01*
X70056571Y-95508000D01*
X70310571Y-95556380D02*
X70492000Y-94540380D01*
X70637142Y-95266095D01*
X70782285Y-94540380D01*
X70963714Y-95556380D01*
X71653142Y-94540380D02*
X71217714Y-94540380D01*
X71435428Y-94540380D02*
X71435428Y-95556380D01*
X71362857Y-95411238D01*
X71290285Y-95314476D01*
X71217714Y-95266095D01*
X71907142Y-95556380D02*
X72415142Y-95556380D01*
X72088571Y-94540380D01*
%TO.C,SW38*%
X240621142Y-75588761D02*
X240730000Y-75540380D01*
X240911428Y-75540380D01*
X240984000Y-75588761D01*
X241020285Y-75637142D01*
X241056571Y-75733904D01*
X241056571Y-75830666D01*
X241020285Y-75927428D01*
X240984000Y-75975809D01*
X240911428Y-76024190D01*
X240766285Y-76072571D01*
X240693714Y-76120952D01*
X240657428Y-76169333D01*
X240621142Y-76266095D01*
X240621142Y-76362857D01*
X240657428Y-76459619D01*
X240693714Y-76508000D01*
X240766285Y-76556380D01*
X240947714Y-76556380D01*
X241056571Y-76508000D01*
X241310571Y-76556380D02*
X241492000Y-75540380D01*
X241637142Y-76266095D01*
X241782285Y-75540380D01*
X241963714Y-76556380D01*
X242181428Y-76556380D02*
X242653142Y-76556380D01*
X242399142Y-76169333D01*
X242508000Y-76169333D01*
X242580571Y-76120952D01*
X242616857Y-76072571D01*
X242653142Y-75975809D01*
X242653142Y-75733904D01*
X242616857Y-75637142D01*
X242580571Y-75588761D01*
X242508000Y-75540380D01*
X242290285Y-75540380D01*
X242217714Y-75588761D01*
X242181428Y-75637142D01*
X243088571Y-76120952D02*
X243016000Y-76169333D01*
X242979714Y-76217714D01*
X242943428Y-76314476D01*
X242943428Y-76362857D01*
X242979714Y-76459619D01*
X243016000Y-76508000D01*
X243088571Y-76556380D01*
X243233714Y-76556380D01*
X243306285Y-76508000D01*
X243342571Y-76459619D01*
X243378857Y-76362857D01*
X243378857Y-76314476D01*
X243342571Y-76217714D01*
X243306285Y-76169333D01*
X243233714Y-76120952D01*
X243088571Y-76120952D01*
X243016000Y-76072571D01*
X242979714Y-76024190D01*
X242943428Y-75927428D01*
X242943428Y-75733904D01*
X242979714Y-75637142D01*
X243016000Y-75588761D01*
X243088571Y-75540380D01*
X243233714Y-75540380D01*
X243306285Y-75588761D01*
X243342571Y-75637142D01*
X243378857Y-75733904D01*
X243378857Y-75927428D01*
X243342571Y-76024190D01*
X243306285Y-76072571D01*
X243233714Y-76120952D01*
%TO.C,SW60*%
X183621142Y-37588761D02*
X183730000Y-37540380D01*
X183911428Y-37540380D01*
X183984000Y-37588761D01*
X184020285Y-37637142D01*
X184056571Y-37733904D01*
X184056571Y-37830666D01*
X184020285Y-37927428D01*
X183984000Y-37975809D01*
X183911428Y-38024190D01*
X183766285Y-38072571D01*
X183693714Y-38120952D01*
X183657428Y-38169333D01*
X183621142Y-38266095D01*
X183621142Y-38362857D01*
X183657428Y-38459619D01*
X183693714Y-38508000D01*
X183766285Y-38556380D01*
X183947714Y-38556380D01*
X184056571Y-38508000D01*
X184310571Y-38556380D02*
X184492000Y-37540380D01*
X184637142Y-38266095D01*
X184782285Y-37540380D01*
X184963714Y-38556380D01*
X185580571Y-38556380D02*
X185435428Y-38556380D01*
X185362857Y-38508000D01*
X185326571Y-38459619D01*
X185254000Y-38314476D01*
X185217714Y-38120952D01*
X185217714Y-37733904D01*
X185254000Y-37637142D01*
X185290285Y-37588761D01*
X185362857Y-37540380D01*
X185508000Y-37540380D01*
X185580571Y-37588761D01*
X185616857Y-37637142D01*
X185653142Y-37733904D01*
X185653142Y-37975809D01*
X185616857Y-38072571D01*
X185580571Y-38120952D01*
X185508000Y-38169333D01*
X185362857Y-38169333D01*
X185290285Y-38120952D01*
X185254000Y-38072571D01*
X185217714Y-37975809D01*
X186124857Y-38556380D02*
X186197428Y-38556380D01*
X186270000Y-38508000D01*
X186306285Y-38459619D01*
X186342571Y-38362857D01*
X186378857Y-38169333D01*
X186378857Y-37927428D01*
X186342571Y-37733904D01*
X186306285Y-37637142D01*
X186270000Y-37588761D01*
X186197428Y-37540380D01*
X186124857Y-37540380D01*
X186052285Y-37588761D01*
X186016000Y-37637142D01*
X185979714Y-37733904D01*
X185943428Y-37927428D01*
X185943428Y-38169333D01*
X185979714Y-38362857D01*
X186016000Y-38459619D01*
X186052285Y-38508000D01*
X186124857Y-38556380D01*
%TO.C,SW6*%
X88984000Y-97088761D02*
X89092857Y-97040380D01*
X89274285Y-97040380D01*
X89346857Y-97088761D01*
X89383142Y-97137142D01*
X89419428Y-97233904D01*
X89419428Y-97330666D01*
X89383142Y-97427428D01*
X89346857Y-97475809D01*
X89274285Y-97524190D01*
X89129142Y-97572571D01*
X89056571Y-97620952D01*
X89020285Y-97669333D01*
X88984000Y-97766095D01*
X88984000Y-97862857D01*
X89020285Y-97959619D01*
X89056571Y-98008000D01*
X89129142Y-98056380D01*
X89310571Y-98056380D01*
X89419428Y-98008000D01*
X89673428Y-98056380D02*
X89854857Y-97040380D01*
X90000000Y-97766095D01*
X90145142Y-97040380D01*
X90326571Y-98056380D01*
X90943428Y-98056380D02*
X90798285Y-98056380D01*
X90725714Y-98008000D01*
X90689428Y-97959619D01*
X90616857Y-97814476D01*
X90580571Y-97620952D01*
X90580571Y-97233904D01*
X90616857Y-97137142D01*
X90653142Y-97088761D01*
X90725714Y-97040380D01*
X90870857Y-97040380D01*
X90943428Y-97088761D01*
X90979714Y-97137142D01*
X91016000Y-97233904D01*
X91016000Y-97475809D01*
X90979714Y-97572571D01*
X90943428Y-97620952D01*
X90870857Y-97669333D01*
X90725714Y-97669333D01*
X90653142Y-97620952D01*
X90616857Y-97572571D01*
X90580571Y-97475809D01*
%TO.C,SW40*%
X28621142Y-56588761D02*
X28730000Y-56540380D01*
X28911428Y-56540380D01*
X28984000Y-56588761D01*
X29020285Y-56637142D01*
X29056571Y-56733904D01*
X29056571Y-56830666D01*
X29020285Y-56927428D01*
X28984000Y-56975809D01*
X28911428Y-57024190D01*
X28766285Y-57072571D01*
X28693714Y-57120952D01*
X28657428Y-57169333D01*
X28621142Y-57266095D01*
X28621142Y-57362857D01*
X28657428Y-57459619D01*
X28693714Y-57508000D01*
X28766285Y-57556380D01*
X28947714Y-57556380D01*
X29056571Y-57508000D01*
X29310571Y-57556380D02*
X29492000Y-56540380D01*
X29637142Y-57266095D01*
X29782285Y-56540380D01*
X29963714Y-57556380D01*
X30580571Y-57217714D02*
X30580571Y-56540380D01*
X30399142Y-57604761D02*
X30217714Y-56879047D01*
X30689428Y-56879047D01*
X31124857Y-57556380D02*
X31197428Y-57556380D01*
X31270000Y-57508000D01*
X31306285Y-57459619D01*
X31342571Y-57362857D01*
X31378857Y-57169333D01*
X31378857Y-56927428D01*
X31342571Y-56733904D01*
X31306285Y-56637142D01*
X31270000Y-56588761D01*
X31197428Y-56540380D01*
X31124857Y-56540380D01*
X31052285Y-56588761D01*
X31016000Y-56637142D01*
X30979714Y-56733904D01*
X30943428Y-56927428D01*
X30943428Y-57169333D01*
X30979714Y-57362857D01*
X31016000Y-57459619D01*
X31052285Y-57508000D01*
X31124857Y-57556380D01*
%TO.C,SW8*%
X126984000Y-97088761D02*
X127092857Y-97040380D01*
X127274285Y-97040380D01*
X127346857Y-97088761D01*
X127383142Y-97137142D01*
X127419428Y-97233904D01*
X127419428Y-97330666D01*
X127383142Y-97427428D01*
X127346857Y-97475809D01*
X127274285Y-97524190D01*
X127129142Y-97572571D01*
X127056571Y-97620952D01*
X127020285Y-97669333D01*
X126984000Y-97766095D01*
X126984000Y-97862857D01*
X127020285Y-97959619D01*
X127056571Y-98008000D01*
X127129142Y-98056380D01*
X127310571Y-98056380D01*
X127419428Y-98008000D01*
X127673428Y-98056380D02*
X127854857Y-97040380D01*
X128000000Y-97766095D01*
X128145142Y-97040380D01*
X128326571Y-98056380D01*
X128725714Y-97620952D02*
X128653142Y-97669333D01*
X128616857Y-97717714D01*
X128580571Y-97814476D01*
X128580571Y-97862857D01*
X128616857Y-97959619D01*
X128653142Y-98008000D01*
X128725714Y-98056380D01*
X128870857Y-98056380D01*
X128943428Y-98008000D01*
X128979714Y-97959619D01*
X129016000Y-97862857D01*
X129016000Y-97814476D01*
X128979714Y-97717714D01*
X128943428Y-97669333D01*
X128870857Y-97620952D01*
X128725714Y-97620952D01*
X128653142Y-97572571D01*
X128616857Y-97524190D01*
X128580571Y-97427428D01*
X128580571Y-97233904D01*
X128616857Y-97137142D01*
X128653142Y-97088761D01*
X128725714Y-97040380D01*
X128870857Y-97040380D01*
X128943428Y-97088761D01*
X128979714Y-97137142D01*
X129016000Y-97233904D01*
X129016000Y-97427428D01*
X128979714Y-97524190D01*
X128943428Y-97572571D01*
X128870857Y-97620952D01*
%TO.C,SW14*%
X259621142Y-97088761D02*
X259730000Y-97040380D01*
X259911428Y-97040380D01*
X259984000Y-97088761D01*
X260020285Y-97137142D01*
X260056571Y-97233904D01*
X260056571Y-97330666D01*
X260020285Y-97427428D01*
X259984000Y-97475809D01*
X259911428Y-97524190D01*
X259766285Y-97572571D01*
X259693714Y-97620952D01*
X259657428Y-97669333D01*
X259621142Y-97766095D01*
X259621142Y-97862857D01*
X259657428Y-97959619D01*
X259693714Y-98008000D01*
X259766285Y-98056380D01*
X259947714Y-98056380D01*
X260056571Y-98008000D01*
X260310571Y-98056380D02*
X260492000Y-97040380D01*
X260637142Y-97766095D01*
X260782285Y-97040380D01*
X260963714Y-98056380D01*
X261653142Y-97040380D02*
X261217714Y-97040380D01*
X261435428Y-97040380D02*
X261435428Y-98056380D01*
X261362857Y-97911238D01*
X261290285Y-97814476D01*
X261217714Y-97766095D01*
X262306285Y-97717714D02*
X262306285Y-97040380D01*
X262124857Y-98104761D02*
X261943428Y-97379047D01*
X262415142Y-97379047D01*
%TO.C,SW44*%
X107621142Y-56588761D02*
X107730000Y-56540380D01*
X107911428Y-56540380D01*
X107984000Y-56588761D01*
X108020285Y-56637142D01*
X108056571Y-56733904D01*
X108056571Y-56830666D01*
X108020285Y-56927428D01*
X107984000Y-56975809D01*
X107911428Y-57024190D01*
X107766285Y-57072571D01*
X107693714Y-57120952D01*
X107657428Y-57169333D01*
X107621142Y-57266095D01*
X107621142Y-57362857D01*
X107657428Y-57459619D01*
X107693714Y-57508000D01*
X107766285Y-57556380D01*
X107947714Y-57556380D01*
X108056571Y-57508000D01*
X108310571Y-57556380D02*
X108492000Y-56540380D01*
X108637142Y-57266095D01*
X108782285Y-56540380D01*
X108963714Y-57556380D01*
X109580571Y-57217714D02*
X109580571Y-56540380D01*
X109399142Y-57604761D02*
X109217714Y-56879047D01*
X109689428Y-56879047D01*
X110306285Y-57217714D02*
X110306285Y-56540380D01*
X110124857Y-57604761D02*
X109943428Y-56879047D01*
X110415142Y-56879047D01*
%TO.C,SW24*%
X202621142Y-94588761D02*
X202730000Y-94540380D01*
X202911428Y-94540380D01*
X202984000Y-94588761D01*
X203020285Y-94637142D01*
X203056571Y-94733904D01*
X203056571Y-94830666D01*
X203020285Y-94927428D01*
X202984000Y-94975809D01*
X202911428Y-95024190D01*
X202766285Y-95072571D01*
X202693714Y-95120952D01*
X202657428Y-95169333D01*
X202621142Y-95266095D01*
X202621142Y-95362857D01*
X202657428Y-95459619D01*
X202693714Y-95508000D01*
X202766285Y-95556380D01*
X202947714Y-95556380D01*
X203056571Y-95508000D01*
X203310571Y-95556380D02*
X203492000Y-94540380D01*
X203637142Y-95266095D01*
X203782285Y-94540380D01*
X203963714Y-95556380D01*
X204217714Y-95459619D02*
X204254000Y-95508000D01*
X204326571Y-95556380D01*
X204508000Y-95556380D01*
X204580571Y-95508000D01*
X204616857Y-95459619D01*
X204653142Y-95362857D01*
X204653142Y-95266095D01*
X204616857Y-95120952D01*
X204181428Y-94540380D01*
X204653142Y-94540380D01*
X205306285Y-95217714D02*
X205306285Y-94540380D01*
X205124857Y-95604761D02*
X204943428Y-94879047D01*
X205415142Y-94879047D01*
%TO.C,SW54*%
X50621142Y-37588761D02*
X50730000Y-37540380D01*
X50911428Y-37540380D01*
X50984000Y-37588761D01*
X51020285Y-37637142D01*
X51056571Y-37733904D01*
X51056571Y-37830666D01*
X51020285Y-37927428D01*
X50984000Y-37975809D01*
X50911428Y-38024190D01*
X50766285Y-38072571D01*
X50693714Y-38120952D01*
X50657428Y-38169333D01*
X50621142Y-38266095D01*
X50621142Y-38362857D01*
X50657428Y-38459619D01*
X50693714Y-38508000D01*
X50766285Y-38556380D01*
X50947714Y-38556380D01*
X51056571Y-38508000D01*
X51310571Y-38556380D02*
X51492000Y-37540380D01*
X51637142Y-38266095D01*
X51782285Y-37540380D01*
X51963714Y-38556380D01*
X52616857Y-38556380D02*
X52254000Y-38556380D01*
X52217714Y-38072571D01*
X52254000Y-38120952D01*
X52326571Y-38169333D01*
X52508000Y-38169333D01*
X52580571Y-38120952D01*
X52616857Y-38072571D01*
X52653142Y-37975809D01*
X52653142Y-37733904D01*
X52616857Y-37637142D01*
X52580571Y-37588761D01*
X52508000Y-37540380D01*
X52326571Y-37540380D01*
X52254000Y-37588761D01*
X52217714Y-37637142D01*
X53306285Y-38217714D02*
X53306285Y-37540380D01*
X53124857Y-38604761D02*
X52943428Y-37879047D01*
X53415142Y-37879047D01*
%TO.C,SW59*%
X155121142Y-37588761D02*
X155230000Y-37540380D01*
X155411428Y-37540380D01*
X155484000Y-37588761D01*
X155520285Y-37637142D01*
X155556571Y-37733904D01*
X155556571Y-37830666D01*
X155520285Y-37927428D01*
X155484000Y-37975809D01*
X155411428Y-38024190D01*
X155266285Y-38072571D01*
X155193714Y-38120952D01*
X155157428Y-38169333D01*
X155121142Y-38266095D01*
X155121142Y-38362857D01*
X155157428Y-38459619D01*
X155193714Y-38508000D01*
X155266285Y-38556380D01*
X155447714Y-38556380D01*
X155556571Y-38508000D01*
X155810571Y-38556380D02*
X155992000Y-37540380D01*
X156137142Y-38266095D01*
X156282285Y-37540380D01*
X156463714Y-38556380D01*
X157116857Y-38556380D02*
X156754000Y-38556380D01*
X156717714Y-38072571D01*
X156754000Y-38120952D01*
X156826571Y-38169333D01*
X157008000Y-38169333D01*
X157080571Y-38120952D01*
X157116857Y-38072571D01*
X157153142Y-37975809D01*
X157153142Y-37733904D01*
X157116857Y-37637142D01*
X157080571Y-37588761D01*
X157008000Y-37540380D01*
X156826571Y-37540380D01*
X156754000Y-37588761D01*
X156717714Y-37637142D01*
X157516000Y-37540380D02*
X157661142Y-37540380D01*
X157733714Y-37588761D01*
X157770000Y-37637142D01*
X157842571Y-37782285D01*
X157878857Y-37975809D01*
X157878857Y-38362857D01*
X157842571Y-38459619D01*
X157806285Y-38508000D01*
X157733714Y-38556380D01*
X157588571Y-38556380D01*
X157516000Y-38508000D01*
X157479714Y-38459619D01*
X157443428Y-38362857D01*
X157443428Y-38120952D01*
X157479714Y-38024190D01*
X157516000Y-37975809D01*
X157588571Y-37927428D01*
X157733714Y-37927428D01*
X157806285Y-37975809D01*
X157842571Y-38024190D01*
X157878857Y-38120952D01*
%TO.C,SW50*%
X221621142Y-56588761D02*
X221730000Y-56540380D01*
X221911428Y-56540380D01*
X221984000Y-56588761D01*
X222020285Y-56637142D01*
X222056571Y-56733904D01*
X222056571Y-56830666D01*
X222020285Y-56927428D01*
X221984000Y-56975809D01*
X221911428Y-57024190D01*
X221766285Y-57072571D01*
X221693714Y-57120952D01*
X221657428Y-57169333D01*
X221621142Y-57266095D01*
X221621142Y-57362857D01*
X221657428Y-57459619D01*
X221693714Y-57508000D01*
X221766285Y-57556380D01*
X221947714Y-57556380D01*
X222056571Y-57508000D01*
X222310571Y-57556380D02*
X222492000Y-56540380D01*
X222637142Y-57266095D01*
X222782285Y-56540380D01*
X222963714Y-57556380D01*
X223616857Y-57556380D02*
X223254000Y-57556380D01*
X223217714Y-57072571D01*
X223254000Y-57120952D01*
X223326571Y-57169333D01*
X223508000Y-57169333D01*
X223580571Y-57120952D01*
X223616857Y-57072571D01*
X223653142Y-56975809D01*
X223653142Y-56733904D01*
X223616857Y-56637142D01*
X223580571Y-56588761D01*
X223508000Y-56540380D01*
X223326571Y-56540380D01*
X223254000Y-56588761D01*
X223217714Y-56637142D01*
X224124857Y-57556380D02*
X224197428Y-57556380D01*
X224270000Y-57508000D01*
X224306285Y-57459619D01*
X224342571Y-57362857D01*
X224378857Y-57169333D01*
X224378857Y-56927428D01*
X224342571Y-56733904D01*
X224306285Y-56637142D01*
X224270000Y-56588761D01*
X224197428Y-56540380D01*
X224124857Y-56540380D01*
X224052285Y-56588761D01*
X224016000Y-56637142D01*
X223979714Y-56733904D01*
X223943428Y-56927428D01*
X223943428Y-57169333D01*
X223979714Y-57362857D01*
X224016000Y-57459619D01*
X224052285Y-57508000D01*
X224124857Y-57556380D01*
%TO.C,SW37*%
X221621142Y-75588761D02*
X221730000Y-75540380D01*
X221911428Y-75540380D01*
X221984000Y-75588761D01*
X222020285Y-75637142D01*
X222056571Y-75733904D01*
X222056571Y-75830666D01*
X222020285Y-75927428D01*
X221984000Y-75975809D01*
X221911428Y-76024190D01*
X221766285Y-76072571D01*
X221693714Y-76120952D01*
X221657428Y-76169333D01*
X221621142Y-76266095D01*
X221621142Y-76362857D01*
X221657428Y-76459619D01*
X221693714Y-76508000D01*
X221766285Y-76556380D01*
X221947714Y-76556380D01*
X222056571Y-76508000D01*
X222310571Y-76556380D02*
X222492000Y-75540380D01*
X222637142Y-76266095D01*
X222782285Y-75540380D01*
X222963714Y-76556380D01*
X223181428Y-76556380D02*
X223653142Y-76556380D01*
X223399142Y-76169333D01*
X223508000Y-76169333D01*
X223580571Y-76120952D01*
X223616857Y-76072571D01*
X223653142Y-75975809D01*
X223653142Y-75733904D01*
X223616857Y-75637142D01*
X223580571Y-75588761D01*
X223508000Y-75540380D01*
X223290285Y-75540380D01*
X223217714Y-75588761D01*
X223181428Y-75637142D01*
X223907142Y-76556380D02*
X224415142Y-76556380D01*
X224088571Y-75540380D01*
%TO.C,SW34*%
X164621142Y-75588761D02*
X164730000Y-75540380D01*
X164911428Y-75540380D01*
X164984000Y-75588761D01*
X165020285Y-75637142D01*
X165056571Y-75733904D01*
X165056571Y-75830666D01*
X165020285Y-75927428D01*
X164984000Y-75975809D01*
X164911428Y-76024190D01*
X164766285Y-76072571D01*
X164693714Y-76120952D01*
X164657428Y-76169333D01*
X164621142Y-76266095D01*
X164621142Y-76362857D01*
X164657428Y-76459619D01*
X164693714Y-76508000D01*
X164766285Y-76556380D01*
X164947714Y-76556380D01*
X165056571Y-76508000D01*
X165310571Y-76556380D02*
X165492000Y-75540380D01*
X165637142Y-76266095D01*
X165782285Y-75540380D01*
X165963714Y-76556380D01*
X166181428Y-76556380D02*
X166653142Y-76556380D01*
X166399142Y-76169333D01*
X166508000Y-76169333D01*
X166580571Y-76120952D01*
X166616857Y-76072571D01*
X166653142Y-75975809D01*
X166653142Y-75733904D01*
X166616857Y-75637142D01*
X166580571Y-75588761D01*
X166508000Y-75540380D01*
X166290285Y-75540380D01*
X166217714Y-75588761D01*
X166181428Y-75637142D01*
X167306285Y-76217714D02*
X167306285Y-75540380D01*
X167124857Y-76604761D02*
X166943428Y-75879047D01*
X167415142Y-75879047D01*
%TO.C,SW10*%
X183621142Y-97088761D02*
X183730000Y-97040380D01*
X183911428Y-97040380D01*
X183984000Y-97088761D01*
X184020285Y-97137142D01*
X184056571Y-97233904D01*
X184056571Y-97330666D01*
X184020285Y-97427428D01*
X183984000Y-97475809D01*
X183911428Y-97524190D01*
X183766285Y-97572571D01*
X183693714Y-97620952D01*
X183657428Y-97669333D01*
X183621142Y-97766095D01*
X183621142Y-97862857D01*
X183657428Y-97959619D01*
X183693714Y-98008000D01*
X183766285Y-98056380D01*
X183947714Y-98056380D01*
X184056571Y-98008000D01*
X184310571Y-98056380D02*
X184492000Y-97040380D01*
X184637142Y-97766095D01*
X184782285Y-97040380D01*
X184963714Y-98056380D01*
X185653142Y-97040380D02*
X185217714Y-97040380D01*
X185435428Y-97040380D02*
X185435428Y-98056380D01*
X185362857Y-97911238D01*
X185290285Y-97814476D01*
X185217714Y-97766095D01*
X186124857Y-98056380D02*
X186197428Y-98056380D01*
X186270000Y-98008000D01*
X186306285Y-97959619D01*
X186342571Y-97862857D01*
X186378857Y-97669333D01*
X186378857Y-97427428D01*
X186342571Y-97233904D01*
X186306285Y-97137142D01*
X186270000Y-97088761D01*
X186197428Y-97040380D01*
X186124857Y-97040380D01*
X186052285Y-97088761D01*
X186016000Y-97137142D01*
X185979714Y-97233904D01*
X185943428Y-97427428D01*
X185943428Y-97669333D01*
X185979714Y-97862857D01*
X186016000Y-97959619D01*
X186052285Y-98008000D01*
X186124857Y-98056380D01*
%TO.C,SW9*%
X155484000Y-97088761D02*
X155592857Y-97040380D01*
X155774285Y-97040380D01*
X155846857Y-97088761D01*
X155883142Y-97137142D01*
X155919428Y-97233904D01*
X155919428Y-97330666D01*
X155883142Y-97427428D01*
X155846857Y-97475809D01*
X155774285Y-97524190D01*
X155629142Y-97572571D01*
X155556571Y-97620952D01*
X155520285Y-97669333D01*
X155484000Y-97766095D01*
X155484000Y-97862857D01*
X155520285Y-97959619D01*
X155556571Y-98008000D01*
X155629142Y-98056380D01*
X155810571Y-98056380D01*
X155919428Y-98008000D01*
X156173428Y-98056380D02*
X156354857Y-97040380D01*
X156500000Y-97766095D01*
X156645142Y-97040380D01*
X156826571Y-98056380D01*
X157153142Y-97040380D02*
X157298285Y-97040380D01*
X157370857Y-97088761D01*
X157407142Y-97137142D01*
X157479714Y-97282285D01*
X157516000Y-97475809D01*
X157516000Y-97862857D01*
X157479714Y-97959619D01*
X157443428Y-98008000D01*
X157370857Y-98056380D01*
X157225714Y-98056380D01*
X157153142Y-98008000D01*
X157116857Y-97959619D01*
X157080571Y-97862857D01*
X157080571Y-97620952D01*
X157116857Y-97524190D01*
X157153142Y-97475809D01*
X157225714Y-97427428D01*
X157370857Y-97427428D01*
X157443428Y-97475809D01*
X157479714Y-97524190D01*
X157516000Y-97620952D01*
%TO.C,SW22*%
X164621142Y-94588761D02*
X164730000Y-94540380D01*
X164911428Y-94540380D01*
X164984000Y-94588761D01*
X165020285Y-94637142D01*
X165056571Y-94733904D01*
X165056571Y-94830666D01*
X165020285Y-94927428D01*
X164984000Y-94975809D01*
X164911428Y-95024190D01*
X164766285Y-95072571D01*
X164693714Y-95120952D01*
X164657428Y-95169333D01*
X164621142Y-95266095D01*
X164621142Y-95362857D01*
X164657428Y-95459619D01*
X164693714Y-95508000D01*
X164766285Y-95556380D01*
X164947714Y-95556380D01*
X165056571Y-95508000D01*
X165310571Y-95556380D02*
X165492000Y-94540380D01*
X165637142Y-95266095D01*
X165782285Y-94540380D01*
X165963714Y-95556380D01*
X166217714Y-95459619D02*
X166254000Y-95508000D01*
X166326571Y-95556380D01*
X166508000Y-95556380D01*
X166580571Y-95508000D01*
X166616857Y-95459619D01*
X166653142Y-95362857D01*
X166653142Y-95266095D01*
X166616857Y-95120952D01*
X166181428Y-94540380D01*
X166653142Y-94540380D01*
X166943428Y-95459619D02*
X166979714Y-95508000D01*
X167052285Y-95556380D01*
X167233714Y-95556380D01*
X167306285Y-95508000D01*
X167342571Y-95459619D01*
X167378857Y-95362857D01*
X167378857Y-95266095D01*
X167342571Y-95120952D01*
X166907142Y-94540380D01*
X167378857Y-94540380D01*
%TO.C,SW64*%
X259621142Y-37588761D02*
X259730000Y-37540380D01*
X259911428Y-37540380D01*
X259984000Y-37588761D01*
X260020285Y-37637142D01*
X260056571Y-37733904D01*
X260056571Y-37830666D01*
X260020285Y-37927428D01*
X259984000Y-37975809D01*
X259911428Y-38024190D01*
X259766285Y-38072571D01*
X259693714Y-38120952D01*
X259657428Y-38169333D01*
X259621142Y-38266095D01*
X259621142Y-38362857D01*
X259657428Y-38459619D01*
X259693714Y-38508000D01*
X259766285Y-38556380D01*
X259947714Y-38556380D01*
X260056571Y-38508000D01*
X260310571Y-38556380D02*
X260492000Y-37540380D01*
X260637142Y-38266095D01*
X260782285Y-37540380D01*
X260963714Y-38556380D01*
X261580571Y-38556380D02*
X261435428Y-38556380D01*
X261362857Y-38508000D01*
X261326571Y-38459619D01*
X261254000Y-38314476D01*
X261217714Y-38120952D01*
X261217714Y-37733904D01*
X261254000Y-37637142D01*
X261290285Y-37588761D01*
X261362857Y-37540380D01*
X261508000Y-37540380D01*
X261580571Y-37588761D01*
X261616857Y-37637142D01*
X261653142Y-37733904D01*
X261653142Y-37975809D01*
X261616857Y-38072571D01*
X261580571Y-38120952D01*
X261508000Y-38169333D01*
X261362857Y-38169333D01*
X261290285Y-38120952D01*
X261254000Y-38072571D01*
X261217714Y-37975809D01*
X262306285Y-38217714D02*
X262306285Y-37540380D01*
X262124857Y-38604761D02*
X261943428Y-37879047D01*
X262415142Y-37879047D01*
%TO.C,SW19*%
X107621142Y-94588761D02*
X107730000Y-94540380D01*
X107911428Y-94540380D01*
X107984000Y-94588761D01*
X108020285Y-94637142D01*
X108056571Y-94733904D01*
X108056571Y-94830666D01*
X108020285Y-94927428D01*
X107984000Y-94975809D01*
X107911428Y-95024190D01*
X107766285Y-95072571D01*
X107693714Y-95120952D01*
X107657428Y-95169333D01*
X107621142Y-95266095D01*
X107621142Y-95362857D01*
X107657428Y-95459619D01*
X107693714Y-95508000D01*
X107766285Y-95556380D01*
X107947714Y-95556380D01*
X108056571Y-95508000D01*
X108310571Y-95556380D02*
X108492000Y-94540380D01*
X108637142Y-95266095D01*
X108782285Y-94540380D01*
X108963714Y-95556380D01*
X109653142Y-94540380D02*
X109217714Y-94540380D01*
X109435428Y-94540380D02*
X109435428Y-95556380D01*
X109362857Y-95411238D01*
X109290285Y-95314476D01*
X109217714Y-95266095D01*
X110016000Y-94540380D02*
X110161142Y-94540380D01*
X110233714Y-94588761D01*
X110270000Y-94637142D01*
X110342571Y-94782285D01*
X110378857Y-94975809D01*
X110378857Y-95362857D01*
X110342571Y-95459619D01*
X110306285Y-95508000D01*
X110233714Y-95556380D01*
X110088571Y-95556380D01*
X110016000Y-95508000D01*
X109979714Y-95459619D01*
X109943428Y-95362857D01*
X109943428Y-95120952D01*
X109979714Y-95024190D01*
X110016000Y-94975809D01*
X110088571Y-94927428D01*
X110233714Y-94927428D01*
X110306285Y-94975809D01*
X110342571Y-95024190D01*
X110378857Y-95120952D01*
%TO.C,SW46*%
X145621142Y-56588761D02*
X145730000Y-56540380D01*
X145911428Y-56540380D01*
X145984000Y-56588761D01*
X146020285Y-56637142D01*
X146056571Y-56733904D01*
X146056571Y-56830666D01*
X146020285Y-56927428D01*
X145984000Y-56975809D01*
X145911428Y-57024190D01*
X145766285Y-57072571D01*
X145693714Y-57120952D01*
X145657428Y-57169333D01*
X145621142Y-57266095D01*
X145621142Y-57362857D01*
X145657428Y-57459619D01*
X145693714Y-57508000D01*
X145766285Y-57556380D01*
X145947714Y-57556380D01*
X146056571Y-57508000D01*
X146310571Y-57556380D02*
X146492000Y-56540380D01*
X146637142Y-57266095D01*
X146782285Y-56540380D01*
X146963714Y-57556380D01*
X147580571Y-57217714D02*
X147580571Y-56540380D01*
X147399142Y-57604761D02*
X147217714Y-56879047D01*
X147689428Y-56879047D01*
X148306285Y-57556380D02*
X148161142Y-57556380D01*
X148088571Y-57508000D01*
X148052285Y-57459619D01*
X147979714Y-57314476D01*
X147943428Y-57120952D01*
X147943428Y-56733904D01*
X147979714Y-56637142D01*
X148016000Y-56588761D01*
X148088571Y-56540380D01*
X148233714Y-56540380D01*
X148306285Y-56588761D01*
X148342571Y-56637142D01*
X148378857Y-56733904D01*
X148378857Y-56975809D01*
X148342571Y-57072571D01*
X148306285Y-57120952D01*
X148233714Y-57169333D01*
X148088571Y-57169333D01*
X148016000Y-57120952D01*
X147979714Y-57072571D01*
X147943428Y-56975809D01*
%TO.C,SW26*%
X240621142Y-94588761D02*
X240730000Y-94540380D01*
X240911428Y-94540380D01*
X240984000Y-94588761D01*
X241020285Y-94637142D01*
X241056571Y-94733904D01*
X241056571Y-94830666D01*
X241020285Y-94927428D01*
X240984000Y-94975809D01*
X240911428Y-95024190D01*
X240766285Y-95072571D01*
X240693714Y-95120952D01*
X240657428Y-95169333D01*
X240621142Y-95266095D01*
X240621142Y-95362857D01*
X240657428Y-95459619D01*
X240693714Y-95508000D01*
X240766285Y-95556380D01*
X240947714Y-95556380D01*
X241056571Y-95508000D01*
X241310571Y-95556380D02*
X241492000Y-94540380D01*
X241637142Y-95266095D01*
X241782285Y-94540380D01*
X241963714Y-95556380D01*
X242217714Y-95459619D02*
X242254000Y-95508000D01*
X242326571Y-95556380D01*
X242508000Y-95556380D01*
X242580571Y-95508000D01*
X242616857Y-95459619D01*
X242653142Y-95362857D01*
X242653142Y-95266095D01*
X242616857Y-95120952D01*
X242181428Y-94540380D01*
X242653142Y-94540380D01*
X243306285Y-95556380D02*
X243161142Y-95556380D01*
X243088571Y-95508000D01*
X243052285Y-95459619D01*
X242979714Y-95314476D01*
X242943428Y-95120952D01*
X242943428Y-94733904D01*
X242979714Y-94637142D01*
X243016000Y-94588761D01*
X243088571Y-94540380D01*
X243233714Y-94540380D01*
X243306285Y-94588761D01*
X243342571Y-94637142D01*
X243378857Y-94733904D01*
X243378857Y-94975809D01*
X243342571Y-95072571D01*
X243306285Y-95120952D01*
X243233714Y-95169333D01*
X243088571Y-95169333D01*
X243016000Y-95120952D01*
X242979714Y-95072571D01*
X242943428Y-94975809D01*
%TO.C,SW58*%
X126621142Y-37588761D02*
X126730000Y-37540380D01*
X126911428Y-37540380D01*
X126984000Y-37588761D01*
X127020285Y-37637142D01*
X127056571Y-37733904D01*
X127056571Y-37830666D01*
X127020285Y-37927428D01*
X126984000Y-37975809D01*
X126911428Y-38024190D01*
X126766285Y-38072571D01*
X126693714Y-38120952D01*
X126657428Y-38169333D01*
X126621142Y-38266095D01*
X126621142Y-38362857D01*
X126657428Y-38459619D01*
X126693714Y-38508000D01*
X126766285Y-38556380D01*
X126947714Y-38556380D01*
X127056571Y-38508000D01*
X127310571Y-38556380D02*
X127492000Y-37540380D01*
X127637142Y-38266095D01*
X127782285Y-37540380D01*
X127963714Y-38556380D01*
X128616857Y-38556380D02*
X128254000Y-38556380D01*
X128217714Y-38072571D01*
X128254000Y-38120952D01*
X128326571Y-38169333D01*
X128508000Y-38169333D01*
X128580571Y-38120952D01*
X128616857Y-38072571D01*
X128653142Y-37975809D01*
X128653142Y-37733904D01*
X128616857Y-37637142D01*
X128580571Y-37588761D01*
X128508000Y-37540380D01*
X128326571Y-37540380D01*
X128254000Y-37588761D01*
X128217714Y-37637142D01*
X129088571Y-38120952D02*
X129016000Y-38169333D01*
X128979714Y-38217714D01*
X128943428Y-38314476D01*
X128943428Y-38362857D01*
X128979714Y-38459619D01*
X129016000Y-38508000D01*
X129088571Y-38556380D01*
X129233714Y-38556380D01*
X129306285Y-38508000D01*
X129342571Y-38459619D01*
X129378857Y-38362857D01*
X129378857Y-38314476D01*
X129342571Y-38217714D01*
X129306285Y-38169333D01*
X129233714Y-38120952D01*
X129088571Y-38120952D01*
X129016000Y-38072571D01*
X128979714Y-38024190D01*
X128943428Y-37927428D01*
X128943428Y-37733904D01*
X128979714Y-37637142D01*
X129016000Y-37588761D01*
X129088571Y-37540380D01*
X129233714Y-37540380D01*
X129306285Y-37588761D01*
X129342571Y-37637142D01*
X129378857Y-37733904D01*
X129378857Y-37927428D01*
X129342571Y-38024190D01*
X129306285Y-38072571D01*
X129233714Y-38120952D01*
%TO.C,SW33*%
X145621142Y-75588761D02*
X145730000Y-75540380D01*
X145911428Y-75540380D01*
X145984000Y-75588761D01*
X146020285Y-75637142D01*
X146056571Y-75733904D01*
X146056571Y-75830666D01*
X146020285Y-75927428D01*
X145984000Y-75975809D01*
X145911428Y-76024190D01*
X145766285Y-76072571D01*
X145693714Y-76120952D01*
X145657428Y-76169333D01*
X145621142Y-76266095D01*
X145621142Y-76362857D01*
X145657428Y-76459619D01*
X145693714Y-76508000D01*
X145766285Y-76556380D01*
X145947714Y-76556380D01*
X146056571Y-76508000D01*
X146310571Y-76556380D02*
X146492000Y-75540380D01*
X146637142Y-76266095D01*
X146782285Y-75540380D01*
X146963714Y-76556380D01*
X147181428Y-76556380D02*
X147653142Y-76556380D01*
X147399142Y-76169333D01*
X147508000Y-76169333D01*
X147580571Y-76120952D01*
X147616857Y-76072571D01*
X147653142Y-75975809D01*
X147653142Y-75733904D01*
X147616857Y-75637142D01*
X147580571Y-75588761D01*
X147508000Y-75540380D01*
X147290285Y-75540380D01*
X147217714Y-75588761D01*
X147181428Y-75637142D01*
X147907142Y-76556380D02*
X148378857Y-76556380D01*
X148124857Y-76169333D01*
X148233714Y-76169333D01*
X148306285Y-76120952D01*
X148342571Y-76072571D01*
X148378857Y-75975809D01*
X148378857Y-75733904D01*
X148342571Y-75637142D01*
X148306285Y-75588761D01*
X148233714Y-75540380D01*
X148016000Y-75540380D01*
X147943428Y-75588761D01*
X147907142Y-75637142D01*
%TO.C,SW20*%
X126621142Y-94588761D02*
X126730000Y-94540380D01*
X126911428Y-94540380D01*
X126984000Y-94588761D01*
X127020285Y-94637142D01*
X127056571Y-94733904D01*
X127056571Y-94830666D01*
X127020285Y-94927428D01*
X126984000Y-94975809D01*
X126911428Y-95024190D01*
X126766285Y-95072571D01*
X126693714Y-95120952D01*
X126657428Y-95169333D01*
X126621142Y-95266095D01*
X126621142Y-95362857D01*
X126657428Y-95459619D01*
X126693714Y-95508000D01*
X126766285Y-95556380D01*
X126947714Y-95556380D01*
X127056571Y-95508000D01*
X127310571Y-95556380D02*
X127492000Y-94540380D01*
X127637142Y-95266095D01*
X127782285Y-94540380D01*
X127963714Y-95556380D01*
X128217714Y-95459619D02*
X128254000Y-95508000D01*
X128326571Y-95556380D01*
X128508000Y-95556380D01*
X128580571Y-95508000D01*
X128616857Y-95459619D01*
X128653142Y-95362857D01*
X128653142Y-95266095D01*
X128616857Y-95120952D01*
X128181428Y-94540380D01*
X128653142Y-94540380D01*
X129124857Y-95556380D02*
X129197428Y-95556380D01*
X129270000Y-95508000D01*
X129306285Y-95459619D01*
X129342571Y-95362857D01*
X129378857Y-95169333D01*
X129378857Y-94927428D01*
X129342571Y-94733904D01*
X129306285Y-94637142D01*
X129270000Y-94588761D01*
X129197428Y-94540380D01*
X129124857Y-94540380D01*
X129052285Y-94588761D01*
X129016000Y-94637142D01*
X128979714Y-94733904D01*
X128943428Y-94927428D01*
X128943428Y-95169333D01*
X128979714Y-95362857D01*
X129016000Y-95459619D01*
X129052285Y-95508000D01*
X129124857Y-95556380D01*
%TO.C,SW45*%
X126621142Y-56588761D02*
X126730000Y-56540380D01*
X126911428Y-56540380D01*
X126984000Y-56588761D01*
X127020285Y-56637142D01*
X127056571Y-56733904D01*
X127056571Y-56830666D01*
X127020285Y-56927428D01*
X126984000Y-56975809D01*
X126911428Y-57024190D01*
X126766285Y-57072571D01*
X126693714Y-57120952D01*
X126657428Y-57169333D01*
X126621142Y-57266095D01*
X126621142Y-57362857D01*
X126657428Y-57459619D01*
X126693714Y-57508000D01*
X126766285Y-57556380D01*
X126947714Y-57556380D01*
X127056571Y-57508000D01*
X127310571Y-57556380D02*
X127492000Y-56540380D01*
X127637142Y-57266095D01*
X127782285Y-56540380D01*
X127963714Y-57556380D01*
X128580571Y-57217714D02*
X128580571Y-56540380D01*
X128399142Y-57604761D02*
X128217714Y-56879047D01*
X128689428Y-56879047D01*
X129342571Y-57556380D02*
X128979714Y-57556380D01*
X128943428Y-57072571D01*
X128979714Y-57120952D01*
X129052285Y-57169333D01*
X129233714Y-57169333D01*
X129306285Y-57120952D01*
X129342571Y-57072571D01*
X129378857Y-56975809D01*
X129378857Y-56733904D01*
X129342571Y-56637142D01*
X129306285Y-56588761D01*
X129233714Y-56540380D01*
X129052285Y-56540380D01*
X128979714Y-56588761D01*
X128943428Y-56637142D01*
%TO.C,SW61*%
X202621142Y-37588761D02*
X202730000Y-37540380D01*
X202911428Y-37540380D01*
X202984000Y-37588761D01*
X203020285Y-37637142D01*
X203056571Y-37733904D01*
X203056571Y-37830666D01*
X203020285Y-37927428D01*
X202984000Y-37975809D01*
X202911428Y-38024190D01*
X202766285Y-38072571D01*
X202693714Y-38120952D01*
X202657428Y-38169333D01*
X202621142Y-38266095D01*
X202621142Y-38362857D01*
X202657428Y-38459619D01*
X202693714Y-38508000D01*
X202766285Y-38556380D01*
X202947714Y-38556380D01*
X203056571Y-38508000D01*
X203310571Y-38556380D02*
X203492000Y-37540380D01*
X203637142Y-38266095D01*
X203782285Y-37540380D01*
X203963714Y-38556380D01*
X204580571Y-38556380D02*
X204435428Y-38556380D01*
X204362857Y-38508000D01*
X204326571Y-38459619D01*
X204254000Y-38314476D01*
X204217714Y-38120952D01*
X204217714Y-37733904D01*
X204254000Y-37637142D01*
X204290285Y-37588761D01*
X204362857Y-37540380D01*
X204508000Y-37540380D01*
X204580571Y-37588761D01*
X204616857Y-37637142D01*
X204653142Y-37733904D01*
X204653142Y-37975809D01*
X204616857Y-38072571D01*
X204580571Y-38120952D01*
X204508000Y-38169333D01*
X204362857Y-38169333D01*
X204290285Y-38120952D01*
X204254000Y-38072571D01*
X204217714Y-37975809D01*
X205378857Y-37540380D02*
X204943428Y-37540380D01*
X205161142Y-37540380D02*
X205161142Y-38556380D01*
X205088571Y-38411238D01*
X205016000Y-38314476D01*
X204943428Y-38266095D01*
%TO.C,SW11*%
X202621142Y-97088761D02*
X202730000Y-97040380D01*
X202911428Y-97040380D01*
X202984000Y-97088761D01*
X203020285Y-97137142D01*
X203056571Y-97233904D01*
X203056571Y-97330666D01*
X203020285Y-97427428D01*
X202984000Y-97475809D01*
X202911428Y-97524190D01*
X202766285Y-97572571D01*
X202693714Y-97620952D01*
X202657428Y-97669333D01*
X202621142Y-97766095D01*
X202621142Y-97862857D01*
X202657428Y-97959619D01*
X202693714Y-98008000D01*
X202766285Y-98056380D01*
X202947714Y-98056380D01*
X203056571Y-98008000D01*
X203310571Y-98056380D02*
X203492000Y-97040380D01*
X203637142Y-97766095D01*
X203782285Y-97040380D01*
X203963714Y-98056380D01*
X204653142Y-97040380D02*
X204217714Y-97040380D01*
X204435428Y-97040380D02*
X204435428Y-98056380D01*
X204362857Y-97911238D01*
X204290285Y-97814476D01*
X204217714Y-97766095D01*
X205378857Y-97040380D02*
X204943428Y-97040380D01*
X205161142Y-97040380D02*
X205161142Y-98056380D01*
X205088571Y-97911238D01*
X205016000Y-97814476D01*
X204943428Y-97766095D01*
%TO.C,SW36*%
X202621142Y-75588761D02*
X202730000Y-75540380D01*
X202911428Y-75540380D01*
X202984000Y-75588761D01*
X203020285Y-75637142D01*
X203056571Y-75733904D01*
X203056571Y-75830666D01*
X203020285Y-75927428D01*
X202984000Y-75975809D01*
X202911428Y-76024190D01*
X202766285Y-76072571D01*
X202693714Y-76120952D01*
X202657428Y-76169333D01*
X202621142Y-76266095D01*
X202621142Y-76362857D01*
X202657428Y-76459619D01*
X202693714Y-76508000D01*
X202766285Y-76556380D01*
X202947714Y-76556380D01*
X203056571Y-76508000D01*
X203310571Y-76556380D02*
X203492000Y-75540380D01*
X203637142Y-76266095D01*
X203782285Y-75540380D01*
X203963714Y-76556380D01*
X204181428Y-76556380D02*
X204653142Y-76556380D01*
X204399142Y-76169333D01*
X204508000Y-76169333D01*
X204580571Y-76120952D01*
X204616857Y-76072571D01*
X204653142Y-75975809D01*
X204653142Y-75733904D01*
X204616857Y-75637142D01*
X204580571Y-75588761D01*
X204508000Y-75540380D01*
X204290285Y-75540380D01*
X204217714Y-75588761D01*
X204181428Y-75637142D01*
X205306285Y-76556380D02*
X205161142Y-76556380D01*
X205088571Y-76508000D01*
X205052285Y-76459619D01*
X204979714Y-76314476D01*
X204943428Y-76120952D01*
X204943428Y-75733904D01*
X204979714Y-75637142D01*
X205016000Y-75588761D01*
X205088571Y-75540380D01*
X205233714Y-75540380D01*
X205306285Y-75588761D01*
X205342571Y-75637142D01*
X205378857Y-75733904D01*
X205378857Y-75975809D01*
X205342571Y-76072571D01*
X205306285Y-76120952D01*
X205233714Y-76169333D01*
X205088571Y-76169333D01*
X205016000Y-76120952D01*
X204979714Y-76072571D01*
X204943428Y-75975809D01*
%TO.C,SW29*%
X69621142Y-75588761D02*
X69730000Y-75540380D01*
X69911428Y-75540380D01*
X69984000Y-75588761D01*
X70020285Y-75637142D01*
X70056571Y-75733904D01*
X70056571Y-75830666D01*
X70020285Y-75927428D01*
X69984000Y-75975809D01*
X69911428Y-76024190D01*
X69766285Y-76072571D01*
X69693714Y-76120952D01*
X69657428Y-76169333D01*
X69621142Y-76266095D01*
X69621142Y-76362857D01*
X69657428Y-76459619D01*
X69693714Y-76508000D01*
X69766285Y-76556380D01*
X69947714Y-76556380D01*
X70056571Y-76508000D01*
X70310571Y-76556380D02*
X70492000Y-75540380D01*
X70637142Y-76266095D01*
X70782285Y-75540380D01*
X70963714Y-76556380D01*
X71217714Y-76459619D02*
X71254000Y-76508000D01*
X71326571Y-76556380D01*
X71508000Y-76556380D01*
X71580571Y-76508000D01*
X71616857Y-76459619D01*
X71653142Y-76362857D01*
X71653142Y-76266095D01*
X71616857Y-76120952D01*
X71181428Y-75540380D01*
X71653142Y-75540380D01*
X72016000Y-75540380D02*
X72161142Y-75540380D01*
X72233714Y-75588761D01*
X72270000Y-75637142D01*
X72342571Y-75782285D01*
X72378857Y-75975809D01*
X72378857Y-76362857D01*
X72342571Y-76459619D01*
X72306285Y-76508000D01*
X72233714Y-76556380D01*
X72088571Y-76556380D01*
X72016000Y-76508000D01*
X71979714Y-76459619D01*
X71943428Y-76362857D01*
X71943428Y-76120952D01*
X71979714Y-76024190D01*
X72016000Y-75975809D01*
X72088571Y-75927428D01*
X72233714Y-75927428D01*
X72306285Y-75975809D01*
X72342571Y-76024190D01*
X72378857Y-76120952D01*
%TO.C,SW18*%
X88621142Y-94588761D02*
X88730000Y-94540380D01*
X88911428Y-94540380D01*
X88984000Y-94588761D01*
X89020285Y-94637142D01*
X89056571Y-94733904D01*
X89056571Y-94830666D01*
X89020285Y-94927428D01*
X88984000Y-94975809D01*
X88911428Y-95024190D01*
X88766285Y-95072571D01*
X88693714Y-95120952D01*
X88657428Y-95169333D01*
X88621142Y-95266095D01*
X88621142Y-95362857D01*
X88657428Y-95459619D01*
X88693714Y-95508000D01*
X88766285Y-95556380D01*
X88947714Y-95556380D01*
X89056571Y-95508000D01*
X89310571Y-95556380D02*
X89492000Y-94540380D01*
X89637142Y-95266095D01*
X89782285Y-94540380D01*
X89963714Y-95556380D01*
X90653142Y-94540380D02*
X90217714Y-94540380D01*
X90435428Y-94540380D02*
X90435428Y-95556380D01*
X90362857Y-95411238D01*
X90290285Y-95314476D01*
X90217714Y-95266095D01*
X91088571Y-95120952D02*
X91016000Y-95169333D01*
X90979714Y-95217714D01*
X90943428Y-95314476D01*
X90943428Y-95362857D01*
X90979714Y-95459619D01*
X91016000Y-95508000D01*
X91088571Y-95556380D01*
X91233714Y-95556380D01*
X91306285Y-95508000D01*
X91342571Y-95459619D01*
X91378857Y-95362857D01*
X91378857Y-95314476D01*
X91342571Y-95217714D01*
X91306285Y-95169333D01*
X91233714Y-95120952D01*
X91088571Y-95120952D01*
X91016000Y-95072571D01*
X90979714Y-95024190D01*
X90943428Y-94927428D01*
X90943428Y-94733904D01*
X90979714Y-94637142D01*
X91016000Y-94588761D01*
X91088571Y-94540380D01*
X91233714Y-94540380D01*
X91306285Y-94588761D01*
X91342571Y-94637142D01*
X91378857Y-94733904D01*
X91378857Y-94927428D01*
X91342571Y-95024190D01*
X91306285Y-95072571D01*
X91233714Y-95120952D01*
%TO.C,SW27*%
X259621142Y-94588761D02*
X259730000Y-94540380D01*
X259911428Y-94540380D01*
X259984000Y-94588761D01*
X260020285Y-94637142D01*
X260056571Y-94733904D01*
X260056571Y-94830666D01*
X260020285Y-94927428D01*
X259984000Y-94975809D01*
X259911428Y-95024190D01*
X259766285Y-95072571D01*
X259693714Y-95120952D01*
X259657428Y-95169333D01*
X259621142Y-95266095D01*
X259621142Y-95362857D01*
X259657428Y-95459619D01*
X259693714Y-95508000D01*
X259766285Y-95556380D01*
X259947714Y-95556380D01*
X260056571Y-95508000D01*
X260310571Y-95556380D02*
X260492000Y-94540380D01*
X260637142Y-95266095D01*
X260782285Y-94540380D01*
X260963714Y-95556380D01*
X261217714Y-95459619D02*
X261254000Y-95508000D01*
X261326571Y-95556380D01*
X261508000Y-95556380D01*
X261580571Y-95508000D01*
X261616857Y-95459619D01*
X261653142Y-95362857D01*
X261653142Y-95266095D01*
X261616857Y-95120952D01*
X261181428Y-94540380D01*
X261653142Y-94540380D01*
X261907142Y-95556380D02*
X262415142Y-95556380D01*
X262088571Y-94540380D01*
%TO.C,SW62*%
X221621142Y-37588761D02*
X221730000Y-37540380D01*
X221911428Y-37540380D01*
X221984000Y-37588761D01*
X222020285Y-37637142D01*
X222056571Y-37733904D01*
X222056571Y-37830666D01*
X222020285Y-37927428D01*
X221984000Y-37975809D01*
X221911428Y-38024190D01*
X221766285Y-38072571D01*
X221693714Y-38120952D01*
X221657428Y-38169333D01*
X221621142Y-38266095D01*
X221621142Y-38362857D01*
X221657428Y-38459619D01*
X221693714Y-38508000D01*
X221766285Y-38556380D01*
X221947714Y-38556380D01*
X222056571Y-38508000D01*
X222310571Y-38556380D02*
X222492000Y-37540380D01*
X222637142Y-38266095D01*
X222782285Y-37540380D01*
X222963714Y-38556380D01*
X223580571Y-38556380D02*
X223435428Y-38556380D01*
X223362857Y-38508000D01*
X223326571Y-38459619D01*
X223254000Y-38314476D01*
X223217714Y-38120952D01*
X223217714Y-37733904D01*
X223254000Y-37637142D01*
X223290285Y-37588761D01*
X223362857Y-37540380D01*
X223508000Y-37540380D01*
X223580571Y-37588761D01*
X223616857Y-37637142D01*
X223653142Y-37733904D01*
X223653142Y-37975809D01*
X223616857Y-38072571D01*
X223580571Y-38120952D01*
X223508000Y-38169333D01*
X223362857Y-38169333D01*
X223290285Y-38120952D01*
X223254000Y-38072571D01*
X223217714Y-37975809D01*
X223943428Y-38459619D02*
X223979714Y-38508000D01*
X224052285Y-38556380D01*
X224233714Y-38556380D01*
X224306285Y-38508000D01*
X224342571Y-38459619D01*
X224378857Y-38362857D01*
X224378857Y-38266095D01*
X224342571Y-38120952D01*
X223907142Y-37540380D01*
X224378857Y-37540380D01*
%TO.C,SW51*%
X240621142Y-56588761D02*
X240730000Y-56540380D01*
X240911428Y-56540380D01*
X240984000Y-56588761D01*
X241020285Y-56637142D01*
X241056571Y-56733904D01*
X241056571Y-56830666D01*
X241020285Y-56927428D01*
X240984000Y-56975809D01*
X240911428Y-57024190D01*
X240766285Y-57072571D01*
X240693714Y-57120952D01*
X240657428Y-57169333D01*
X240621142Y-57266095D01*
X240621142Y-57362857D01*
X240657428Y-57459619D01*
X240693714Y-57508000D01*
X240766285Y-57556380D01*
X240947714Y-57556380D01*
X241056571Y-57508000D01*
X241310571Y-57556380D02*
X241492000Y-56540380D01*
X241637142Y-57266095D01*
X241782285Y-56540380D01*
X241963714Y-57556380D01*
X242616857Y-57556380D02*
X242254000Y-57556380D01*
X242217714Y-57072571D01*
X242254000Y-57120952D01*
X242326571Y-57169333D01*
X242508000Y-57169333D01*
X242580571Y-57120952D01*
X242616857Y-57072571D01*
X242653142Y-56975809D01*
X242653142Y-56733904D01*
X242616857Y-56637142D01*
X242580571Y-56588761D01*
X242508000Y-56540380D01*
X242326571Y-56540380D01*
X242254000Y-56588761D01*
X242217714Y-56637142D01*
X243378857Y-56540380D02*
X242943428Y-56540380D01*
X243161142Y-56540380D02*
X243161142Y-57556380D01*
X243088571Y-57411238D01*
X243016000Y-57314476D01*
X242943428Y-57266095D01*
%TO.C,SW3*%
X28984000Y-97088761D02*
X29092857Y-97040380D01*
X29274285Y-97040380D01*
X29346857Y-97088761D01*
X29383142Y-97137142D01*
X29419428Y-97233904D01*
X29419428Y-97330666D01*
X29383142Y-97427428D01*
X29346857Y-97475809D01*
X29274285Y-97524190D01*
X29129142Y-97572571D01*
X29056571Y-97620952D01*
X29020285Y-97669333D01*
X28984000Y-97766095D01*
X28984000Y-97862857D01*
X29020285Y-97959619D01*
X29056571Y-98008000D01*
X29129142Y-98056380D01*
X29310571Y-98056380D01*
X29419428Y-98008000D01*
X29673428Y-98056380D02*
X29854857Y-97040380D01*
X30000000Y-97766095D01*
X30145142Y-97040380D01*
X30326571Y-98056380D01*
X30544285Y-98056380D02*
X31016000Y-98056380D01*
X30762000Y-97669333D01*
X30870857Y-97669333D01*
X30943428Y-97620952D01*
X30979714Y-97572571D01*
X31016000Y-97475809D01*
X31016000Y-97233904D01*
X30979714Y-97137142D01*
X30943428Y-97088761D01*
X30870857Y-97040380D01*
X30653142Y-97040380D01*
X30580571Y-97088761D01*
X30544285Y-97137142D01*
D12*
%TO.C,SW52*%
X267500000Y-56000000D02*
X254500000Y-56000000D01*
X267500000Y-42000000D02*
X254500000Y-42000000D01*
X254000000Y-55500000D02*
X254000000Y-42500000D01*
X268000000Y-42500000D02*
X268000000Y-55500000D01*
X254000000Y-55500000D02*
G75*
G03*
X254500000Y-56000000I500001J1D01*
G01*
X254500000Y-42000000D02*
G75*
G03*
X254000000Y-42500000I1J-500001D01*
G01*
X267500000Y-56000000D02*
G75*
G03*
X268000000Y-55500000I0J500000D01*
G01*
X268000000Y-42500000D02*
G75*
G03*
X267500000Y-42000000I-500000J0D01*
G01*
%TO.C,SW42*%
X78000000Y-42500000D02*
X78000000Y-55500000D01*
X64000000Y-55500000D02*
X64000000Y-42500000D01*
X77500000Y-56000000D02*
X64500000Y-56000000D01*
X77500000Y-42000000D02*
X64500000Y-42000000D01*
X64500000Y-42000000D02*
G75*
G03*
X64000000Y-42500000I1J-500001D01*
G01*
X78000000Y-42500000D02*
G75*
G03*
X77500000Y-42000000I-500000J0D01*
G01*
X77500000Y-56000000D02*
G75*
G03*
X78000000Y-55500000I0J500000D01*
G01*
X64000000Y-55500000D02*
G75*
G03*
X64500000Y-56000000I500001J1D01*
G01*
%TO.C,SW41*%
X58500000Y-42000000D02*
X45500000Y-42000000D01*
X45000000Y-55500000D02*
X45000000Y-42500000D01*
X59000000Y-42500000D02*
X59000000Y-55500000D01*
X58500000Y-56000000D02*
X45500000Y-56000000D01*
X58500000Y-56000000D02*
G75*
G03*
X59000000Y-55500000I0J500000D01*
G01*
X45500000Y-42000000D02*
G75*
G03*
X45000000Y-42500000I1J-500001D01*
G01*
X59000000Y-42500000D02*
G75*
G03*
X58500000Y-42000000I-500000J0D01*
G01*
X45000000Y-55500000D02*
G75*
G03*
X45500000Y-56000000I500001J1D01*
G01*
%TO.C,SW43*%
X96500000Y-56000000D02*
X83500000Y-56000000D01*
X96500000Y-42000000D02*
X83500000Y-42000000D01*
X83000000Y-55500000D02*
X83000000Y-42500000D01*
X97000000Y-42500000D02*
X97000000Y-55500000D01*
X83000000Y-55500000D02*
G75*
G03*
X83500000Y-56000000I500001J1D01*
G01*
X83500000Y-42000000D02*
G75*
G03*
X83000000Y-42500000I1J-500001D01*
G01*
X97000000Y-42500000D02*
G75*
G03*
X96500000Y-42000000I-500000J0D01*
G01*
X96500000Y-56000000D02*
G75*
G03*
X97000000Y-55500000I0J500000D01*
G01*
%TO.C,SW12*%
X216000000Y-112500000D02*
X216000000Y-99500000D01*
X229500000Y-113000000D02*
X216500000Y-113000000D01*
X229500000Y-99000000D02*
X216500000Y-99000000D01*
X230000000Y-99500000D02*
X230000000Y-112500000D01*
X216500000Y-99000000D02*
G75*
G03*
X216000000Y-99500000I1J-500001D01*
G01*
X230000000Y-99500000D02*
G75*
G03*
X229500000Y-99000000I-500000J0D01*
G01*
X216000000Y-112500000D02*
G75*
G03*
X216500000Y-113000000I500001J1D01*
G01*
X229500000Y-113000000D02*
G75*
G03*
X230000000Y-112500000I0J500000D01*
G01*
%TO.C,SW4*%
X58500000Y-99000000D02*
X45500000Y-99000000D01*
X58500000Y-113000000D02*
X45500000Y-113000000D01*
X45000000Y-112500000D02*
X45000000Y-99500000D01*
X59000000Y-99500000D02*
X59000000Y-112500000D01*
X59000000Y-99500000D02*
G75*
G03*
X58500000Y-99000000I-500000J0D01*
G01*
X58500000Y-113000000D02*
G75*
G03*
X59000000Y-112500000I0J500000D01*
G01*
X45000000Y-112500000D02*
G75*
G03*
X45500000Y-113000000I500001J1D01*
G01*
X45500000Y-99000000D02*
G75*
G03*
X45000000Y-99500000I1J-500001D01*
G01*
%TO.C,SW7*%
X115500000Y-99000000D02*
X102500000Y-99000000D01*
X102000000Y-112500000D02*
X102000000Y-99500000D01*
X115500000Y-113000000D02*
X102500000Y-113000000D01*
X116000000Y-99500000D02*
X116000000Y-112500000D01*
X102500000Y-99000000D02*
G75*
G03*
X102000000Y-99500000I1J-500001D01*
G01*
X115500000Y-113000000D02*
G75*
G03*
X116000000Y-112500000I0J500000D01*
G01*
X116000000Y-99500000D02*
G75*
G03*
X115500000Y-99000000I-500000J0D01*
G01*
X102000000Y-112500000D02*
G75*
G03*
X102500000Y-113000000I500001J1D01*
G01*
%TO.C,SW57*%
X102000000Y-36500000D02*
X102000000Y-23500000D01*
X116000000Y-23500000D02*
X116000000Y-36500000D01*
X115500000Y-37000000D02*
X102500000Y-37000000D01*
X115500000Y-23000000D02*
X102500000Y-23000000D01*
X116000000Y-23500000D02*
G75*
G03*
X115500000Y-23000000I-500000J0D01*
G01*
X102500000Y-23000000D02*
G75*
G03*
X102000000Y-23500000I1J-500001D01*
G01*
X115500000Y-37000000D02*
G75*
G03*
X116000000Y-36500000I0J500000D01*
G01*
X102000000Y-36500000D02*
G75*
G03*
X102500000Y-37000000I500001J1D01*
G01*
%TO.C,SW53*%
X37000000Y-23500000D02*
X37000000Y-36500000D01*
X36500000Y-37000000D02*
X23500000Y-37000000D01*
X23000000Y-36500000D02*
X23000000Y-23500000D01*
X36500000Y-23000000D02*
X23500000Y-23000000D01*
X36500000Y-37000000D02*
G75*
G03*
X37000000Y-36500000I0J500000D01*
G01*
X23000000Y-36500000D02*
G75*
G03*
X23500000Y-37000000I500001J1D01*
G01*
X23500000Y-23000000D02*
G75*
G03*
X23000000Y-23500000I1J-500001D01*
G01*
X37000000Y-23500000D02*
G75*
G03*
X36500000Y-23000000I-500000J0D01*
G01*
%TO.C,SW31*%
X115500000Y-75000000D02*
X102500000Y-75000000D01*
X115500000Y-61000000D02*
X102500000Y-61000000D01*
X102000000Y-74500000D02*
X102000000Y-61500000D01*
X116000000Y-61500000D02*
X116000000Y-74500000D01*
X102500000Y-61000000D02*
G75*
G03*
X102000000Y-61500000I1J-500001D01*
G01*
X116000000Y-61500000D02*
G75*
G03*
X115500000Y-61000000I-500000J0D01*
G01*
X102000000Y-74500000D02*
G75*
G03*
X102500000Y-75000000I500001J1D01*
G01*
X115500000Y-75000000D02*
G75*
G03*
X116000000Y-74500000I0J500000D01*
G01*
%TO.C,SW55*%
X64000000Y-36500000D02*
X64000000Y-23500000D01*
X77500000Y-23000000D02*
X64500000Y-23000000D01*
X78000000Y-23500000D02*
X78000000Y-36500000D01*
X77500000Y-37000000D02*
X64500000Y-37000000D01*
X64000000Y-36500000D02*
G75*
G03*
X64500000Y-37000000I500001J1D01*
G01*
X77500000Y-37000000D02*
G75*
G03*
X78000000Y-36500000I0J500000D01*
G01*
X64500000Y-23000000D02*
G75*
G03*
X64000000Y-23500000I1J-500001D01*
G01*
X78000000Y-23500000D02*
G75*
G03*
X77500000Y-23000000I-500000J0D01*
G01*
%TO.C,SW25*%
X229500000Y-80000000D02*
X216500000Y-80000000D01*
X230000000Y-80500000D02*
X230000000Y-93500000D01*
X216000000Y-93500000D02*
X216000000Y-80500000D01*
X229500000Y-94000000D02*
X216500000Y-94000000D01*
X229500000Y-94000000D02*
G75*
G03*
X230000000Y-93500000I0J500000D01*
G01*
X216500000Y-80000000D02*
G75*
G03*
X216000000Y-80500000I1J-500001D01*
G01*
X230000000Y-80500000D02*
G75*
G03*
X229500000Y-80000000I-500000J0D01*
G01*
X216000000Y-93500000D02*
G75*
G03*
X216500000Y-94000000I500001J1D01*
G01*
%TO.C,SW32*%
X135000000Y-61500000D02*
X135000000Y-74500000D01*
X121000000Y-74500000D02*
X121000000Y-61500000D01*
X134500000Y-61000000D02*
X121500000Y-61000000D01*
X134500000Y-75000000D02*
X121500000Y-75000000D01*
X135000000Y-61500000D02*
G75*
G03*
X134500000Y-61000000I-500000J0D01*
G01*
X121000000Y-74500000D02*
G75*
G03*
X121500000Y-75000000I500001J1D01*
G01*
X121500000Y-61000000D02*
G75*
G03*
X121000000Y-61500000I1J-500001D01*
G01*
X134500000Y-75000000D02*
G75*
G03*
X135000000Y-74500000I0J500000D01*
G01*
%TO.C,SW49*%
X197000000Y-55500000D02*
X197000000Y-42500000D01*
X210500000Y-42000000D02*
X197500000Y-42000000D01*
X210500000Y-56000000D02*
X197500000Y-56000000D01*
X211000000Y-42500000D02*
X211000000Y-55500000D01*
X211000000Y-42500000D02*
G75*
G03*
X210500000Y-42000000I-500000J0D01*
G01*
X197000000Y-55500000D02*
G75*
G03*
X197500000Y-56000000I500001J1D01*
G01*
X197500000Y-42000000D02*
G75*
G03*
X197000000Y-42500000I1J-500001D01*
G01*
X210500000Y-56000000D02*
G75*
G03*
X211000000Y-55500000I0J500000D01*
G01*
%TO.C,SW15*%
X36500000Y-94000000D02*
X23500000Y-94000000D01*
X37000000Y-80500000D02*
X37000000Y-93500000D01*
X23000000Y-93500000D02*
X23000000Y-80500000D01*
X36500000Y-80000000D02*
X23500000Y-80000000D01*
X23000000Y-93500000D02*
G75*
G03*
X23500000Y-94000000I500001J1D01*
G01*
X37000000Y-80500000D02*
G75*
G03*
X36500000Y-80000000I-500000J0D01*
G01*
X36500000Y-94000000D02*
G75*
G03*
X37000000Y-93500000I0J500000D01*
G01*
X23500000Y-80000000D02*
G75*
G03*
X23000000Y-80500000I1J-500001D01*
G01*
%TO.C,SW28*%
X59000000Y-61500000D02*
X59000000Y-74500000D01*
X58500000Y-61000000D02*
X45500000Y-61000000D01*
X58500000Y-75000000D02*
X45500000Y-75000000D01*
X45000000Y-74500000D02*
X45000000Y-61500000D01*
X59000000Y-61500000D02*
G75*
G03*
X58500000Y-61000000I-500000J0D01*
G01*
X45500000Y-61000000D02*
G75*
G03*
X45000000Y-61500000I1J-500001D01*
G01*
X45000000Y-74500000D02*
G75*
G03*
X45500000Y-75000000I500001J1D01*
G01*
X58500000Y-75000000D02*
G75*
G03*
X59000000Y-74500000I0J500000D01*
G01*
%TO.C,SW16*%
X58500000Y-80000000D02*
X45500000Y-80000000D01*
X59000000Y-80500000D02*
X59000000Y-93500000D01*
X58500000Y-94000000D02*
X45500000Y-94000000D01*
X45000000Y-93500000D02*
X45000000Y-80500000D01*
X45500000Y-80000000D02*
G75*
G03*
X45000000Y-80500000I1J-500001D01*
G01*
X45000000Y-93500000D02*
G75*
G03*
X45500000Y-94000000I500001J1D01*
G01*
X59000000Y-80500000D02*
G75*
G03*
X58500000Y-80000000I-500000J0D01*
G01*
X58500000Y-94000000D02*
G75*
G03*
X59000000Y-93500000I0J500000D01*
G01*
%TO.C,SW30*%
X83000000Y-74500000D02*
X83000000Y-61500000D01*
X97000000Y-61500000D02*
X97000000Y-74500000D01*
X96500000Y-75000000D02*
X83500000Y-75000000D01*
X96500000Y-61000000D02*
X83500000Y-61000000D01*
X83000000Y-74500000D02*
G75*
G03*
X83500000Y-75000000I500001J1D01*
G01*
X97000000Y-61500000D02*
G75*
G03*
X96500000Y-61000000I-500000J0D01*
G01*
X83500000Y-61000000D02*
G75*
G03*
X83000000Y-61500000I1J-500001D01*
G01*
X96500000Y-75000000D02*
G75*
G03*
X97000000Y-74500000I0J500000D01*
G01*
%TO.C,SW56*%
X83000000Y-36500000D02*
X83000000Y-23500000D01*
X96500000Y-37000000D02*
X83500000Y-37000000D01*
X96500000Y-23000000D02*
X83500000Y-23000000D01*
X97000000Y-23500000D02*
X97000000Y-36500000D01*
X83000000Y-36500000D02*
G75*
G03*
X83500000Y-37000000I500001J1D01*
G01*
X96500000Y-37000000D02*
G75*
G03*
X97000000Y-36500000I0J500000D01*
G01*
X97000000Y-23500000D02*
G75*
G03*
X96500000Y-23000000I-500000J0D01*
G01*
X83500000Y-23000000D02*
G75*
G03*
X83000000Y-23500000I1J-500001D01*
G01*
%TO.C,SW35*%
X178000000Y-74500000D02*
X178000000Y-61500000D01*
X192000000Y-61500000D02*
X192000000Y-74500000D01*
X191500000Y-61000000D02*
X178500000Y-61000000D01*
X191500000Y-75000000D02*
X178500000Y-75000000D01*
X191500000Y-75000000D02*
G75*
G03*
X192000000Y-74500000I0J500000D01*
G01*
X178000000Y-74500000D02*
G75*
G03*
X178500000Y-75000000I500001J1D01*
G01*
X178500000Y-61000000D02*
G75*
G03*
X178000000Y-61500000I1J-500001D01*
G01*
X192000000Y-61500000D02*
G75*
G03*
X191500000Y-61000000I-500000J0D01*
G01*
%TO.C,SW47*%
X173000000Y-42500000D02*
X173000000Y-55500000D01*
X172500000Y-42000000D02*
X159500000Y-42000000D01*
X159000000Y-55500000D02*
X159000000Y-42500000D01*
X172500000Y-56000000D02*
X159500000Y-56000000D01*
X159500000Y-42000000D02*
G75*
G03*
X159000000Y-42500000I1J-500001D01*
G01*
X172500000Y-56000000D02*
G75*
G03*
X173000000Y-55500000I0J500000D01*
G01*
X159000000Y-55500000D02*
G75*
G03*
X159500000Y-56000000I500001J1D01*
G01*
X173000000Y-42500000D02*
G75*
G03*
X172500000Y-42000000I-500000J0D01*
G01*
%TO.C,SW39*%
X268000000Y-61500000D02*
X268000000Y-74500000D01*
X254000000Y-74500000D02*
X254000000Y-61500000D01*
X267500000Y-75000000D02*
X254500000Y-75000000D01*
X267500000Y-61000000D02*
X254500000Y-61000000D01*
X268000000Y-61500000D02*
G75*
G03*
X267500000Y-61000000I-500000J0D01*
G01*
X267500000Y-75000000D02*
G75*
G03*
X268000000Y-74500000I0J500000D01*
G01*
X254000000Y-74500000D02*
G75*
G03*
X254500000Y-75000000I500001J1D01*
G01*
X254500000Y-61000000D02*
G75*
G03*
X254000000Y-61500000I1J-500001D01*
G01*
%TO.C,SW13*%
X248500000Y-113000000D02*
X235500000Y-113000000D01*
X235000000Y-112500000D02*
X235000000Y-99500000D01*
X249000000Y-99500000D02*
X249000000Y-112500000D01*
X248500000Y-99000000D02*
X235500000Y-99000000D01*
X248500000Y-113000000D02*
G75*
G03*
X249000000Y-112500000I0J500000D01*
G01*
X249000000Y-99500000D02*
G75*
G03*
X248500000Y-99000000I-500000J0D01*
G01*
X235500000Y-99000000D02*
G75*
G03*
X235000000Y-99500000I1J-500001D01*
G01*
X235000000Y-112500000D02*
G75*
G03*
X235500000Y-113000000I500001J1D01*
G01*
%TO.C,SW63*%
X248500000Y-37000000D02*
X235500000Y-37000000D01*
X235000000Y-36500000D02*
X235000000Y-23500000D01*
X248500000Y-23000000D02*
X235500000Y-23000000D01*
X249000000Y-23500000D02*
X249000000Y-36500000D01*
X248500000Y-37000000D02*
G75*
G03*
X249000000Y-36500000I0J500000D01*
G01*
X235500000Y-23000000D02*
G75*
G03*
X235000000Y-23500000I1J-500001D01*
G01*
X249000000Y-23500000D02*
G75*
G03*
X248500000Y-23000000I-500000J0D01*
G01*
X235000000Y-36500000D02*
G75*
G03*
X235500000Y-37000000I500001J1D01*
G01*
%TO.C,SW23*%
X191500000Y-80000000D02*
X178500000Y-80000000D01*
X178000000Y-93500000D02*
X178000000Y-80500000D01*
X192000000Y-80500000D02*
X192000000Y-93500000D01*
X191500000Y-94000000D02*
X178500000Y-94000000D01*
X191500000Y-94000000D02*
G75*
G03*
X192000000Y-93500000I0J500000D01*
G01*
X178500000Y-80000000D02*
G75*
G03*
X178000000Y-80500000I1J-500001D01*
G01*
X192000000Y-80500000D02*
G75*
G03*
X191500000Y-80000000I-500000J0D01*
G01*
X178000000Y-93500000D02*
G75*
G03*
X178500000Y-94000000I500001J1D01*
G01*
%TO.C,SW5*%
X64000000Y-112500000D02*
X64000000Y-99500000D01*
X77500000Y-113000000D02*
X64500000Y-113000000D01*
X77500000Y-99000000D02*
X64500000Y-99000000D01*
X78000000Y-99500000D02*
X78000000Y-112500000D01*
X77500000Y-113000000D02*
G75*
G03*
X78000000Y-112500000I0J500000D01*
G01*
X78000000Y-99500000D02*
G75*
G03*
X77500000Y-99000000I-500000J0D01*
G01*
X64500000Y-99000000D02*
G75*
G03*
X64000000Y-99500000I1J-500001D01*
G01*
X64000000Y-112500000D02*
G75*
G03*
X64500000Y-113000000I500001J1D01*
G01*
%TO.C,SW48*%
X191500000Y-42000000D02*
X178500000Y-42000000D01*
X191500000Y-56000000D02*
X178500000Y-56000000D01*
X178000000Y-55500000D02*
X178000000Y-42500000D01*
X192000000Y-42500000D02*
X192000000Y-55500000D01*
X178000000Y-55500000D02*
G75*
G03*
X178500000Y-56000000I500001J1D01*
G01*
X192000000Y-42500000D02*
G75*
G03*
X191500000Y-42000000I-500000J0D01*
G01*
X191500000Y-56000000D02*
G75*
G03*
X192000000Y-55500000I0J500000D01*
G01*
X178500000Y-42000000D02*
G75*
G03*
X178000000Y-42500000I1J-500001D01*
G01*
%TO.C,SW21*%
X153500000Y-80000000D02*
X140500000Y-80000000D01*
X140000000Y-93500000D02*
X140000000Y-80500000D01*
X153500000Y-94000000D02*
X140500000Y-94000000D01*
X154000000Y-80500000D02*
X154000000Y-93500000D01*
X140500000Y-80000000D02*
G75*
G03*
X140000000Y-80500000I1J-500001D01*
G01*
X154000000Y-80500000D02*
G75*
G03*
X153500000Y-80000000I-500000J0D01*
G01*
X140000000Y-93500000D02*
G75*
G03*
X140500000Y-94000000I500001J1D01*
G01*
X153500000Y-94000000D02*
G75*
G03*
X154000000Y-93500000I0J500000D01*
G01*
%TO.C,SW17*%
X64000000Y-93500000D02*
X64000000Y-80500000D01*
X77500000Y-94000000D02*
X64500000Y-94000000D01*
X78000000Y-80500000D02*
X78000000Y-93500000D01*
X77500000Y-80000000D02*
X64500000Y-80000000D01*
X64000000Y-93500000D02*
G75*
G03*
X64500000Y-94000000I500001J1D01*
G01*
X77500000Y-94000000D02*
G75*
G03*
X78000000Y-93500000I0J500000D01*
G01*
X78000000Y-80500000D02*
G75*
G03*
X77500000Y-80000000I-500000J0D01*
G01*
X64500000Y-80000000D02*
G75*
G03*
X64000000Y-80500000I1J-500001D01*
G01*
%TO.C,SW38*%
X249000000Y-61500000D02*
X249000000Y-74500000D01*
X235000000Y-74500000D02*
X235000000Y-61500000D01*
X248500000Y-75000000D02*
X235500000Y-75000000D01*
X248500000Y-61000000D02*
X235500000Y-61000000D01*
X248500000Y-75000000D02*
G75*
G03*
X249000000Y-74500000I0J500000D01*
G01*
X235500000Y-61000000D02*
G75*
G03*
X235000000Y-61500000I1J-500001D01*
G01*
X235000000Y-74500000D02*
G75*
G03*
X235500000Y-75000000I500001J1D01*
G01*
X249000000Y-61500000D02*
G75*
G03*
X248500000Y-61000000I-500000J0D01*
G01*
%TO.C,SW60*%
X191500000Y-37000000D02*
X178500000Y-37000000D01*
X191500000Y-23000000D02*
X178500000Y-23000000D01*
X178000000Y-36500000D02*
X178000000Y-23500000D01*
X192000000Y-23500000D02*
X192000000Y-36500000D01*
X178500000Y-23000000D02*
G75*
G03*
X178000000Y-23500000I1J-500001D01*
G01*
X178000000Y-36500000D02*
G75*
G03*
X178500000Y-37000000I500001J1D01*
G01*
X191500000Y-37000000D02*
G75*
G03*
X192000000Y-36500000I0J500000D01*
G01*
X192000000Y-23500000D02*
G75*
G03*
X191500000Y-23000000I-500000J0D01*
G01*
%TO.C,SW6*%
X96500000Y-99000000D02*
X83500000Y-99000000D01*
X97000000Y-99500000D02*
X97000000Y-112500000D01*
X96500000Y-113000000D02*
X83500000Y-113000000D01*
X83000000Y-112500000D02*
X83000000Y-99500000D01*
X83000000Y-112500000D02*
G75*
G03*
X83500000Y-113000000I500001J1D01*
G01*
X83500000Y-99000000D02*
G75*
G03*
X83000000Y-99500000I1J-500001D01*
G01*
X97000000Y-99500000D02*
G75*
G03*
X96500000Y-99000000I-500000J0D01*
G01*
X96500000Y-113000000D02*
G75*
G03*
X97000000Y-112500000I0J500000D01*
G01*
%TO.C,SW40*%
X36500000Y-42000000D02*
X23500000Y-42000000D01*
X36500000Y-56000000D02*
X23500000Y-56000000D01*
X23000000Y-55500000D02*
X23000000Y-42500000D01*
X37000000Y-42500000D02*
X37000000Y-55500000D01*
X36500000Y-56000000D02*
G75*
G03*
X37000000Y-55500000I0J500000D01*
G01*
X37000000Y-42500000D02*
G75*
G03*
X36500000Y-42000000I-500000J0D01*
G01*
X23000000Y-55500000D02*
G75*
G03*
X23500000Y-56000000I500001J1D01*
G01*
X23500000Y-42000000D02*
G75*
G03*
X23000000Y-42500000I1J-500001D01*
G01*
%TO.C,SW8*%
X135000000Y-99500000D02*
X135000000Y-112500000D01*
X134500000Y-113000000D02*
X121500000Y-113000000D01*
X134500000Y-99000000D02*
X121500000Y-99000000D01*
X121000000Y-112500000D02*
X121000000Y-99500000D01*
X121500000Y-99000000D02*
G75*
G03*
X121000000Y-99500000I1J-500001D01*
G01*
X134500000Y-113000000D02*
G75*
G03*
X135000000Y-112500000I0J500000D01*
G01*
X121000000Y-112500000D02*
G75*
G03*
X121500000Y-113000000I500001J1D01*
G01*
X135000000Y-99500000D02*
G75*
G03*
X134500000Y-99000000I-500000J0D01*
G01*
%TO.C,SW14*%
X268000000Y-99500000D02*
X268000000Y-112500000D01*
X267500000Y-113000000D02*
X254500000Y-113000000D01*
X267500000Y-99000000D02*
X254500000Y-99000000D01*
X254000000Y-112500000D02*
X254000000Y-99500000D01*
X267500000Y-113000000D02*
G75*
G03*
X268000000Y-112500000I0J500000D01*
G01*
X268000000Y-99500000D02*
G75*
G03*
X267500000Y-99000000I-500000J0D01*
G01*
X254500000Y-99000000D02*
G75*
G03*
X254000000Y-99500000I1J-500001D01*
G01*
X254000000Y-112500000D02*
G75*
G03*
X254500000Y-113000000I500001J1D01*
G01*
%TO.C,SW44*%
X115500000Y-42000000D02*
X102500000Y-42000000D01*
X115500000Y-56000000D02*
X102500000Y-56000000D01*
X102000000Y-55500000D02*
X102000000Y-42500000D01*
X116000000Y-42500000D02*
X116000000Y-55500000D01*
X116000000Y-42500000D02*
G75*
G03*
X115500000Y-42000000I-500000J0D01*
G01*
X115500000Y-56000000D02*
G75*
G03*
X116000000Y-55500000I0J500000D01*
G01*
X102000000Y-55500000D02*
G75*
G03*
X102500000Y-56000000I500001J1D01*
G01*
X102500000Y-42000000D02*
G75*
G03*
X102000000Y-42500000I1J-500001D01*
G01*
%TO.C,SW24*%
X197000000Y-93500000D02*
X197000000Y-80500000D01*
X210500000Y-80000000D02*
X197500000Y-80000000D01*
X210500000Y-94000000D02*
X197500000Y-94000000D01*
X211000000Y-80500000D02*
X211000000Y-93500000D01*
X210500000Y-94000000D02*
G75*
G03*
X211000000Y-93500000I0J500000D01*
G01*
X197500000Y-80000000D02*
G75*
G03*
X197000000Y-80500000I1J-500001D01*
G01*
X197000000Y-93500000D02*
G75*
G03*
X197500000Y-94000000I500001J1D01*
G01*
X211000000Y-80500000D02*
G75*
G03*
X210500000Y-80000000I-500000J0D01*
G01*
%TO.C,SW54*%
X59000000Y-23500000D02*
X59000000Y-36500000D01*
X58500000Y-37000000D02*
X45500000Y-37000000D01*
X58500000Y-23000000D02*
X45500000Y-23000000D01*
X45000000Y-36500000D02*
X45000000Y-23500000D01*
X59000000Y-23500000D02*
G75*
G03*
X58500000Y-23000000I-500000J0D01*
G01*
X45000000Y-36500000D02*
G75*
G03*
X45500000Y-37000000I500001J1D01*
G01*
X45500000Y-23000000D02*
G75*
G03*
X45000000Y-23500000I1J-500001D01*
G01*
X58500000Y-37000000D02*
G75*
G03*
X59000000Y-36500000I0J500000D01*
G01*
%TO.C,SW59*%
X154000000Y-23500000D02*
X154000000Y-36500000D01*
X159000000Y-36500000D02*
X159000000Y-23500000D01*
X173000000Y-23500000D02*
X173000000Y-36500000D01*
X163000000Y-23000000D02*
X150000000Y-23000000D01*
X153500000Y-23000000D02*
X140500000Y-23000000D01*
X172500000Y-37000000D02*
X159500000Y-37000000D01*
X149500000Y-36500000D02*
X149500000Y-23500000D01*
X163500000Y-23500000D02*
X163500000Y-36500000D01*
X153500000Y-37000000D02*
X140500000Y-37000000D01*
X163000000Y-37000000D02*
X150000000Y-37000000D01*
X172500000Y-23000000D02*
X159500000Y-23000000D01*
X140000000Y-36500000D02*
X140000000Y-23500000D01*
X159000000Y-36500000D02*
G75*
G03*
X159500000Y-37000000I500000J0D01*
G01*
X140500000Y-23000000D02*
G75*
G03*
X140000000Y-23500000I1J-500001D01*
G01*
X172500000Y-37000000D02*
G75*
G03*
X173000000Y-36500000I0J500000D01*
G01*
X149500000Y-36500000D02*
G75*
G03*
X150000000Y-37000000I500001J1D01*
G01*
X154000000Y-23500000D02*
G75*
G03*
X153500000Y-23000000I-500001J-1D01*
G01*
X153500000Y-37000000D02*
G75*
G03*
X154000000Y-36500000I-1J500001D01*
G01*
X173000000Y-23500000D02*
G75*
G03*
X172500000Y-23000000I-500000J0D01*
G01*
X150000000Y-23000000D02*
G75*
G03*
X149500000Y-23500000I1J-500001D01*
G01*
X140000000Y-36500000D02*
G75*
G03*
X140500000Y-37000000I500001J1D01*
G01*
X159500000Y-23000000D02*
G75*
G03*
X159000000Y-23500000I0J-500000D01*
G01*
X163000000Y-37000000D02*
G75*
G03*
X163500000Y-36500000I0J500000D01*
G01*
X163500000Y-23500000D02*
G75*
G03*
X163000000Y-23000000I-500000J0D01*
G01*
%TO.C,SW50*%
X230000000Y-42500000D02*
X230000000Y-55500000D01*
X216000000Y-55500000D02*
X216000000Y-42500000D01*
X229500000Y-42000000D02*
X216500000Y-42000000D01*
X229500000Y-56000000D02*
X216500000Y-56000000D01*
X229500000Y-56000000D02*
G75*
G03*
X230000000Y-55500000I0J500000D01*
G01*
X216500000Y-42000000D02*
G75*
G03*
X216000000Y-42500000I1J-500001D01*
G01*
X216000000Y-55500000D02*
G75*
G03*
X216500000Y-56000000I500001J1D01*
G01*
X230000000Y-42500000D02*
G75*
G03*
X229500000Y-42000000I-500000J0D01*
G01*
%TO.C,SW37*%
X216000000Y-74500000D02*
X216000000Y-61500000D01*
X230000000Y-61500000D02*
X230000000Y-74500000D01*
X229500000Y-75000000D02*
X216500000Y-75000000D01*
X229500000Y-61000000D02*
X216500000Y-61000000D01*
X216500000Y-61000000D02*
G75*
G03*
X216000000Y-61500000I1J-500001D01*
G01*
X230000000Y-61500000D02*
G75*
G03*
X229500000Y-61000000I-500000J0D01*
G01*
X229500000Y-75000000D02*
G75*
G03*
X230000000Y-74500000I0J500000D01*
G01*
X216000000Y-74500000D02*
G75*
G03*
X216500000Y-75000000I500001J1D01*
G01*
%TO.C,SW34*%
X172500000Y-61000000D02*
X159500000Y-61000000D01*
X159000000Y-74500000D02*
X159000000Y-61500000D01*
X173000000Y-61500000D02*
X173000000Y-74500000D01*
X172500000Y-75000000D02*
X159500000Y-75000000D01*
X173000000Y-61500000D02*
G75*
G03*
X172500000Y-61000000I-500000J0D01*
G01*
X159500000Y-61000000D02*
G75*
G03*
X159000000Y-61500000I1J-500001D01*
G01*
X159000000Y-74500000D02*
G75*
G03*
X159500000Y-75000000I500001J1D01*
G01*
X172500000Y-75000000D02*
G75*
G03*
X173000000Y-74500000I0J500000D01*
G01*
%TO.C,SW10*%
X192000000Y-99500000D02*
X192000000Y-112500000D01*
X191500000Y-99000000D02*
X178500000Y-99000000D01*
X191500000Y-113000000D02*
X178500000Y-113000000D01*
X178000000Y-112500000D02*
X178000000Y-99500000D01*
X178000000Y-112500000D02*
G75*
G03*
X178500000Y-113000000I500001J1D01*
G01*
X191500000Y-113000000D02*
G75*
G03*
X192000000Y-112500000I0J500000D01*
G01*
X178500000Y-99000000D02*
G75*
G03*
X178000000Y-99500000I1J-500001D01*
G01*
X192000000Y-99500000D02*
G75*
G03*
X191500000Y-99000000I-500000J0D01*
G01*
%TO.C,SW9*%
X140000000Y-112500000D02*
X140000000Y-99500000D01*
X163000000Y-113000000D02*
X150000000Y-113000000D01*
X163500000Y-99500000D02*
X163500000Y-112500000D01*
X153500000Y-99000000D02*
X140500000Y-99000000D01*
X154000000Y-99500000D02*
X154000000Y-112500000D01*
X172500000Y-113000000D02*
X159500000Y-113000000D01*
X159000000Y-112500000D02*
X159000000Y-99500000D01*
X153500000Y-113000000D02*
X140500000Y-113000000D01*
X149500000Y-112500000D02*
X149500000Y-99500000D01*
X172500000Y-99000000D02*
X159500000Y-99000000D01*
X163000000Y-99000000D02*
X150000000Y-99000000D01*
X173000000Y-99500000D02*
X173000000Y-112500000D01*
X154000000Y-99500000D02*
G75*
G03*
X153500000Y-99000000I-500001J-1D01*
G01*
X163000000Y-113000000D02*
G75*
G03*
X163500000Y-112500000I0J500000D01*
G01*
X153500000Y-113000000D02*
G75*
G03*
X154000000Y-112500000I-1J500001D01*
G01*
X173000000Y-99500000D02*
G75*
G03*
X172500000Y-99000000I-500000J0D01*
G01*
X159500000Y-99000000D02*
G75*
G03*
X159000000Y-99500000I0J-500000D01*
G01*
X163500000Y-99500000D02*
G75*
G03*
X163000000Y-99000000I-500000J0D01*
G01*
X149500000Y-112500000D02*
G75*
G03*
X150000000Y-113000000I500001J1D01*
G01*
X150000000Y-99000000D02*
G75*
G03*
X149500000Y-99500000I1J-500001D01*
G01*
X140000000Y-112500000D02*
G75*
G03*
X140500000Y-113000000I500001J1D01*
G01*
X140500000Y-99000000D02*
G75*
G03*
X140000000Y-99500000I1J-500001D01*
G01*
X159000000Y-112500000D02*
G75*
G03*
X159500000Y-113000000I500000J0D01*
G01*
X172500000Y-113000000D02*
G75*
G03*
X173000000Y-112500000I0J500000D01*
G01*
%TO.C,SW22*%
X173000000Y-80500000D02*
X173000000Y-93500000D01*
X159000000Y-93500000D02*
X159000000Y-80500000D01*
X172500000Y-80000000D02*
X159500000Y-80000000D01*
X172500000Y-94000000D02*
X159500000Y-94000000D01*
X159000000Y-93500000D02*
G75*
G03*
X159500000Y-94000000I500001J1D01*
G01*
X172500000Y-94000000D02*
G75*
G03*
X173000000Y-93500000I0J500000D01*
G01*
X173000000Y-80500000D02*
G75*
G03*
X172500000Y-80000000I-500000J0D01*
G01*
X159500000Y-80000000D02*
G75*
G03*
X159000000Y-80500000I1J-500001D01*
G01*
%TO.C,SW64*%
X254000000Y-36500000D02*
X254000000Y-23500000D01*
X267500000Y-23000000D02*
X254500000Y-23000000D01*
X268000000Y-23500000D02*
X268000000Y-36500000D01*
X267500000Y-37000000D02*
X254500000Y-37000000D01*
X254500000Y-23000000D02*
G75*
G03*
X254000000Y-23500000I1J-500001D01*
G01*
X254000000Y-36500000D02*
G75*
G03*
X254500000Y-37000000I500001J1D01*
G01*
X267500000Y-37000000D02*
G75*
G03*
X268000000Y-36500000I0J500000D01*
G01*
X268000000Y-23500000D02*
G75*
G03*
X267500000Y-23000000I-500000J0D01*
G01*
%TO.C,SW19*%
X116000000Y-80500000D02*
X116000000Y-93500000D01*
X115500000Y-94000000D02*
X102500000Y-94000000D01*
X102000000Y-93500000D02*
X102000000Y-80500000D01*
X115500000Y-80000000D02*
X102500000Y-80000000D01*
X102000000Y-93500000D02*
G75*
G03*
X102500000Y-94000000I500001J1D01*
G01*
X115500000Y-94000000D02*
G75*
G03*
X116000000Y-93500000I0J500000D01*
G01*
X102500000Y-80000000D02*
G75*
G03*
X102000000Y-80500000I1J-500001D01*
G01*
X116000000Y-80500000D02*
G75*
G03*
X115500000Y-80000000I-500000J0D01*
G01*
%TO.C,SW46*%
X153500000Y-42000000D02*
X140500000Y-42000000D01*
X153500000Y-56000000D02*
X140500000Y-56000000D01*
X140000000Y-55500000D02*
X140000000Y-42500000D01*
X154000000Y-42500000D02*
X154000000Y-55500000D01*
X140000000Y-55500000D02*
G75*
G03*
X140500000Y-56000000I500001J1D01*
G01*
X153500000Y-56000000D02*
G75*
G03*
X154000000Y-55500000I0J500000D01*
G01*
X140500000Y-42000000D02*
G75*
G03*
X140000000Y-42500000I1J-500001D01*
G01*
X154000000Y-42500000D02*
G75*
G03*
X153500000Y-42000000I-500000J0D01*
G01*
%TO.C,SW26*%
X248500000Y-94000000D02*
X235500000Y-94000000D01*
X249000000Y-80500000D02*
X249000000Y-93500000D01*
X235000000Y-93500000D02*
X235000000Y-80500000D01*
X248500000Y-80000000D02*
X235500000Y-80000000D01*
X249000000Y-80500000D02*
G75*
G03*
X248500000Y-80000000I-500000J0D01*
G01*
X235500000Y-80000000D02*
G75*
G03*
X235000000Y-80500000I1J-500001D01*
G01*
X248500000Y-94000000D02*
G75*
G03*
X249000000Y-93500000I0J500000D01*
G01*
X235000000Y-93500000D02*
G75*
G03*
X235500000Y-94000000I500001J1D01*
G01*
%TO.C,SW58*%
X134500000Y-23000000D02*
X121500000Y-23000000D01*
X121000000Y-36500000D02*
X121000000Y-23500000D01*
X135000000Y-23500000D02*
X135000000Y-36500000D01*
X134500000Y-37000000D02*
X121500000Y-37000000D01*
X134500000Y-37000000D02*
G75*
G03*
X135000000Y-36500000I0J500000D01*
G01*
X121000000Y-36500000D02*
G75*
G03*
X121500000Y-37000000I500001J1D01*
G01*
X121500000Y-23000000D02*
G75*
G03*
X121000000Y-23500000I1J-500001D01*
G01*
X135000000Y-23500000D02*
G75*
G03*
X134500000Y-23000000I-500000J0D01*
G01*
%TO.C,SW33*%
X153500000Y-61000000D02*
X140500000Y-61000000D01*
X153500000Y-75000000D02*
X140500000Y-75000000D01*
X140000000Y-74500000D02*
X140000000Y-61500000D01*
X154000000Y-61500000D02*
X154000000Y-74500000D01*
X140000000Y-74500000D02*
G75*
G03*
X140500000Y-75000000I500001J1D01*
G01*
X140500000Y-61000000D02*
G75*
G03*
X140000000Y-61500000I1J-500001D01*
G01*
X153500000Y-75000000D02*
G75*
G03*
X154000000Y-74500000I0J500000D01*
G01*
X154000000Y-61500000D02*
G75*
G03*
X153500000Y-61000000I-500000J0D01*
G01*
%TO.C,SW20*%
X121000000Y-93500000D02*
X121000000Y-80500000D01*
X134500000Y-80000000D02*
X121500000Y-80000000D01*
X134500000Y-94000000D02*
X121500000Y-94000000D01*
X135000000Y-80500000D02*
X135000000Y-93500000D01*
X121000000Y-93500000D02*
G75*
G03*
X121500000Y-94000000I500001J1D01*
G01*
X135000000Y-80500000D02*
G75*
G03*
X134500000Y-80000000I-500000J0D01*
G01*
X134500000Y-94000000D02*
G75*
G03*
X135000000Y-93500000I0J500000D01*
G01*
X121500000Y-80000000D02*
G75*
G03*
X121000000Y-80500000I1J-500001D01*
G01*
%TO.C,SW45*%
X121000000Y-55500000D02*
X121000000Y-42500000D01*
X134500000Y-42000000D02*
X121500000Y-42000000D01*
X135000000Y-42500000D02*
X135000000Y-55500000D01*
X134500000Y-56000000D02*
X121500000Y-56000000D01*
X121500000Y-42000000D02*
G75*
G03*
X121000000Y-42500000I1J-500001D01*
G01*
X121000000Y-55500000D02*
G75*
G03*
X121500000Y-56000000I500001J1D01*
G01*
X135000000Y-42500000D02*
G75*
G03*
X134500000Y-42000000I-500000J0D01*
G01*
X134500000Y-56000000D02*
G75*
G03*
X135000000Y-55500000I0J500000D01*
G01*
%TO.C,SW61*%
X210500000Y-23000000D02*
X197500000Y-23000000D01*
X210500000Y-37000000D02*
X197500000Y-37000000D01*
X197000000Y-36500000D02*
X197000000Y-23500000D01*
X211000000Y-23500000D02*
X211000000Y-36500000D01*
X197500000Y-23000000D02*
G75*
G03*
X197000000Y-23500000I1J-500001D01*
G01*
X197000000Y-36500000D02*
G75*
G03*
X197500000Y-37000000I500001J1D01*
G01*
X210500000Y-37000000D02*
G75*
G03*
X211000000Y-36500000I0J500000D01*
G01*
X211000000Y-23500000D02*
G75*
G03*
X210500000Y-23000000I-500000J0D01*
G01*
%TO.C,SW11*%
X210500000Y-99000000D02*
X197500000Y-99000000D01*
X211000000Y-99500000D02*
X211000000Y-112500000D01*
X210500000Y-113000000D02*
X197500000Y-113000000D01*
X197000000Y-112500000D02*
X197000000Y-99500000D01*
X210500000Y-113000000D02*
G75*
G03*
X211000000Y-112500000I0J500000D01*
G01*
X197000000Y-112500000D02*
G75*
G03*
X197500000Y-113000000I500001J1D01*
G01*
X211000000Y-99500000D02*
G75*
G03*
X210500000Y-99000000I-500000J0D01*
G01*
X197500000Y-99000000D02*
G75*
G03*
X197000000Y-99500000I1J-500001D01*
G01*
%TO.C,SW36*%
X197000000Y-74500000D02*
X197000000Y-61500000D01*
X210500000Y-61000000D02*
X197500000Y-61000000D01*
X211000000Y-61500000D02*
X211000000Y-74500000D01*
X210500000Y-75000000D02*
X197500000Y-75000000D01*
X197000000Y-74500000D02*
G75*
G03*
X197500000Y-75000000I500001J1D01*
G01*
X197500000Y-61000000D02*
G75*
G03*
X197000000Y-61500000I1J-500001D01*
G01*
X210500000Y-75000000D02*
G75*
G03*
X211000000Y-74500000I0J500000D01*
G01*
X211000000Y-61500000D02*
G75*
G03*
X210500000Y-61000000I-500000J0D01*
G01*
%TO.C,SW29*%
X78000000Y-61500000D02*
X78000000Y-74500000D01*
X77500000Y-61000000D02*
X64500000Y-61000000D01*
X77500000Y-75000000D02*
X64500000Y-75000000D01*
X64000000Y-74500000D02*
X64000000Y-61500000D01*
X64000000Y-74500000D02*
G75*
G03*
X64500000Y-75000000I500001J1D01*
G01*
X77500000Y-75000000D02*
G75*
G03*
X78000000Y-74500000I0J500000D01*
G01*
X78000000Y-61500000D02*
G75*
G03*
X77500000Y-61000000I-500000J0D01*
G01*
X64500000Y-61000000D02*
G75*
G03*
X64000000Y-61500000I1J-500001D01*
G01*
%TO.C,SW18*%
X83000000Y-93500000D02*
X83000000Y-80500000D01*
X97000000Y-80500000D02*
X97000000Y-93500000D01*
X96500000Y-80000000D02*
X83500000Y-80000000D01*
X96500000Y-94000000D02*
X83500000Y-94000000D01*
X83000000Y-93500000D02*
G75*
G03*
X83500000Y-94000000I500001J1D01*
G01*
X83500000Y-80000000D02*
G75*
G03*
X83000000Y-80500000I1J-500001D01*
G01*
X96500000Y-94000000D02*
G75*
G03*
X97000000Y-93500000I0J500000D01*
G01*
X97000000Y-80500000D02*
G75*
G03*
X96500000Y-80000000I-500000J0D01*
G01*
%TO.C,SW27*%
X267500000Y-94000000D02*
X254500000Y-94000000D01*
X267500000Y-80000000D02*
X254500000Y-80000000D01*
X268000000Y-80500000D02*
X268000000Y-93500000D01*
X254000000Y-93500000D02*
X254000000Y-80500000D01*
X254500000Y-80000000D02*
G75*
G03*
X254000000Y-80500000I1J-500001D01*
G01*
X267500000Y-94000000D02*
G75*
G03*
X268000000Y-93500000I0J500000D01*
G01*
X254000000Y-93500000D02*
G75*
G03*
X254500000Y-94000000I500001J1D01*
G01*
X268000000Y-80500000D02*
G75*
G03*
X267500000Y-80000000I-500000J0D01*
G01*
%TO.C,SW62*%
X229500000Y-23000000D02*
X216500000Y-23000000D01*
X229500000Y-37000000D02*
X216500000Y-37000000D01*
X216000000Y-36500000D02*
X216000000Y-23500000D01*
X230000000Y-23500000D02*
X230000000Y-36500000D01*
X216000000Y-36500000D02*
G75*
G03*
X216500000Y-37000000I500001J1D01*
G01*
X230000000Y-23500000D02*
G75*
G03*
X229500000Y-23000000I-500000J0D01*
G01*
X216500000Y-23000000D02*
G75*
G03*
X216000000Y-23500000I1J-500001D01*
G01*
X229500000Y-37000000D02*
G75*
G03*
X230000000Y-36500000I0J500000D01*
G01*
%TO.C,SW51*%
X248500000Y-42000000D02*
X235500000Y-42000000D01*
X235000000Y-55500000D02*
X235000000Y-42500000D01*
X249000000Y-42500000D02*
X249000000Y-55500000D01*
X248500000Y-56000000D02*
X235500000Y-56000000D01*
X248500000Y-56000000D02*
G75*
G03*
X249000000Y-55500000I0J500000D01*
G01*
X249000000Y-42500000D02*
G75*
G03*
X248500000Y-42000000I-500000J0D01*
G01*
X235000000Y-55500000D02*
G75*
G03*
X235500000Y-56000000I500001J1D01*
G01*
X235500000Y-42000000D02*
G75*
G03*
X235000000Y-42500000I1J-500001D01*
G01*
%TO.C,SW3*%
X23000000Y-112500000D02*
X23000000Y-99500000D01*
X36500000Y-99000000D02*
X23500000Y-99000000D01*
X37000000Y-99500000D02*
X37000000Y-112500000D01*
X36500000Y-113000000D02*
X23500000Y-113000000D01*
X23000000Y-112500000D02*
G75*
G03*
X23500000Y-113000000I500001J1D01*
G01*
X23500000Y-99000000D02*
G75*
G03*
X23000000Y-99500000I1J-500001D01*
G01*
X36500000Y-113000000D02*
G75*
G03*
X37000000Y-112500000I0J500000D01*
G01*
X37000000Y-99500000D02*
G75*
G03*
X36500000Y-99000000I-500000J0D01*
G01*
%TD*%
M02*
