M48
; DRILL file {KiCad 6.0.11-2627ca5db0~126~ubuntu22.04.1} date Mon 13 Feb 2023 08:28:25 AM -04
; FORMAT={-:-/ absolute / inch / decimal}
; #@! TF.CreationDate,2023-02-13T08:28:25-04:00
; #@! TF.GenerationSoftware,Kicad,Pcbnew,6.0.11-2627ca5db0~126~ubuntu22.04.1
; #@! TF.FileFunction,Plated,1,2,PTH
FMAT,2
INCH
; #@! TA.AperFunction,Plated,PTH,ViaDrill
T1C0.0118
; #@! TA.AperFunction,Plated,PTH,ComponentDrill
T2C0.0236
; #@! TA.AperFunction,Plated,PTH,ComponentDrill
T3C0.0472
%
G90
G05
T1
X0.8858Y-1.2402
X0.8858Y-1.3189
X0.8858Y-3.4843
X0.8858Y-3.563
X0.9154Y-2.6378
X0.9154Y-2.7461
X0.9252Y-3.6417
X1.0039Y-2.3425
X1.0039Y-2.3819
X1.0039Y-2.4213
X1.0236Y-1.3976
X1.0236Y-2.2244
X1.0236Y-4.3898
X1.0315Y-2.5807
X1.0315Y-2.7736
X1.0433Y-3.5236
X1.0433Y-3.6417
X1.0827Y-2.9035
X1.1122Y-2.3425
X1.1122Y-2.3819
X1.1122Y-2.4213
X1.1417Y-2.5394
X1.1476Y-2.6378
X1.1516Y-2.5689
X1.1614Y-2.8543
X1.1713Y-2.7559
X1.1713Y-2.7953
X1.1909Y-2.874
X1.2008Y-2.3228
X1.2008Y-2.5295
X1.2205Y-2.8937
X1.2402Y-2.3228
X1.2992Y-1.1811
X1.3091Y-3.0118
X1.3189Y-2.7165
X1.3189Y-2.7756
X1.3287Y-2.9429
X1.3386Y-3.5827
X1.3386Y-4.3504
X1.3386Y-4.4291
X1.3583Y-2.0866
X1.3583Y-2.5787
X1.3583Y-2.6378
X1.3878Y-2.9035
X1.4075Y-2.4409
X1.4075Y-2.5394
X1.4173Y-1.3386
X1.437Y-2.4705
X1.4409Y-2.9213
X1.4469Y-3.1398
X1.4567Y-4.3504
X1.4665Y-2.4409
X1.4764Y-2.0472
X1.4764Y-2.126
X1.4862Y-3.1398
X1.4961Y-1.1909
X1.5157Y-2.126
X1.5354Y-3.4252
X1.5453Y-2.7264
X1.565Y-1.2303
X1.565Y-2.0472
X1.565Y-2.126
X1.565Y-2.1752
X1.5748Y-1.1909
X1.5945Y-3.0157
X1.5945Y-3.0807
X1.6142Y-0.9449
X1.6142Y-2.0276
X1.6142Y-2.1949
X1.6339Y-2.5492
X1.6535Y-1.2402
X1.6634Y-2.0472
X1.6634Y-2.126
X1.6634Y-2.1752
X1.6831Y-2.5591
X1.6929Y-2.3819
X1.6929Y-2.4409
X1.6929Y-2.5984
X1.6929Y-2.874
X1.6929Y-3.4252
X1.7323Y-1.1909
X1.7323Y-2.815
X1.7421Y-3.0118
X1.752Y-2.3819
X1.752Y-2.4409
X1.7913Y-1.2402
X1.7913Y-3.6417
X1.811Y-2.1457
X1.8898Y-1.3976
X1.8898Y-2.8642
X1.8898Y-4.3898
X1.8996Y-1.0925
X1.9094Y-3.5236
X1.9094Y-3.6417
X1.9488Y-2.7854
X2.1654Y-1.1811
X2.1654Y-2.6772
X2.1654Y-3.4252
X2.2047Y-2.0866
X2.2047Y-3.5827
X2.2047Y-4.3504
X2.2047Y-4.4291
X2.2835Y-1.3386
X2.2835Y-2.8346
X2.2933Y-3.3366
X2.3031Y-3.5236
X2.3031Y-3.563
X2.3228Y-4.3504
X2.3622Y-0.9449
X2.4016Y-2.7756
X2.4213Y-1.5551
X2.4606Y-2.8346
X2.4803Y-0.9449
X2.5Y-2.6772
X2.5394Y-2.7756
X2.5394Y-2.8346
X2.5492Y-3.3366
X2.5591Y-2.1457
X2.5591Y-3.5236
X2.5591Y-3.563
X2.5591Y-3.6024
X2.6378Y-1.3976
X2.6378Y-2.8937
X2.6378Y-4.3898
X2.6575Y-2.6772
X2.6575Y-3.5236
X2.6575Y-3.6417
X2.6969Y-2.7362
X2.9134Y-1.1811
X2.9134Y-2.4606
X2.9134Y-2.5197
X2.9134Y-2.6772
X2.9134Y-3.4252
X2.9528Y-2.0866
X2.9528Y-3.5827
X2.9528Y-4.3504
X2.9528Y-4.4291
X2.9724Y-2.4606
X2.9724Y-2.5197
X3.0315Y-1.3386
X3.0315Y-2.8346
X3.0709Y-4.3504
X3.1102Y-0.9449
X3.1102Y-3.4252
X3.1496Y-2.5591
X3.1496Y-4.0846
X3.1693Y-1.5551
X3.189Y-2.5591
X3.1988Y-3.3366
X3.2283Y-0.9449
X3.248Y-2.7756
X3.248Y-3.3661
X3.2874Y-3.6417
X3.3071Y-2.1457
X3.3858Y-1.3976
X3.3858Y-2.8937
X3.3858Y-4.3898
X3.4055Y-3.4252
X3.4055Y-3.5236
X3.4055Y-3.6417
X3.4449Y-3.6909
X3.6614Y-1.1811
X3.6614Y-2.6772
X3.6614Y-3.4252
X3.7008Y-2.0866
X3.7008Y-3.5827
X3.7008Y-4.3504
X3.7008Y-4.4291
X3.7795Y-1.3386
X3.7795Y-2.8346
X3.8189Y-4.3504
X3.8583Y-0.9449
X3.9173Y-1.5551
X3.9173Y-2.3031
X3.9173Y-3.0512
X3.9764Y-0.9449
X4.0354Y-3.6417
X4.0551Y-2.1457
X4.1339Y-1.3976
X4.1339Y-2.8937
X4.1339Y-4.3898
X4.1535Y-3.5236
X4.1535Y-3.6417
X4.1929Y-3.7106
X4.4094Y-1.1811
X4.4094Y-2.6772
X4.4488Y-2.0866
X4.4488Y-3.5827
X4.4488Y-4.3504
X4.4488Y-4.4291
X4.5276Y-1.3386
X4.5276Y-2.8346
X4.5669Y-4.3504
X4.6063Y-0.9449
X4.6654Y-1.5551
X4.6654Y-2.3031
X4.6654Y-3.0512
X4.7244Y-0.9449
X4.8031Y-2.1457
X4.8031Y-3.6417
X4.8819Y-1.3976
X4.8819Y-2.8937
X4.8819Y-4.3898
X4.9409Y-3.7303
X5.1575Y-1.1811
X5.1575Y-2.6772
X5.1969Y-2.0866
X5.1969Y-3.5827
X5.1969Y-4.3504
X5.1969Y-4.4291
X5.2756Y-1.3386
X5.2756Y-2.8346
X5.315Y-4.3504
X5.3543Y-0.9449
X5.3937Y-1.1811
X5.3937Y-4.4488
X5.4134Y-1.5551
X5.4134Y-2.3031
X5.4134Y-3.0512
X5.4528Y-1.1811
X5.4528Y-4.4488
X5.4724Y-0.9449
X5.5512Y-2.1457
X5.5512Y-3.6417
X5.6299Y-2.8937
X5.6398Y-1.3976
X5.6398Y-4.3898
X5.6496Y-1.1811
X5.689Y-3.75
X5.9055Y-2.6772
X5.935Y-4.2421
X5.935Y-4.3307
X5.935Y-4.4291
X5.9449Y-2.0866
X5.9449Y-3.5827
X6.0039Y-1.3189
X6.0138Y-1.3976
X6.0138Y-4.3898
X6.0236Y-2.8346
X6.063Y-1.1417
X6.1614Y-1.5551
X6.2598Y-1.1417
X6.2992Y-2.1457
X6.2992Y-3.6417
X6.3091Y-4.2421
X6.3091Y-4.3307
X6.3091Y-4.4291
X6.378Y-1.3189
X6.378Y-2.8937
X6.3878Y-1.3976
X6.3878Y-4.3898
X6.437Y-3.7697
X6.6535Y-1.1811
X6.6535Y-2.6772
X6.6831Y-4.2421
X6.6831Y-4.3307
X6.6831Y-4.4291
X6.6929Y-2.0866
X6.6929Y-3.5827
X6.752Y-1.3189
X6.7717Y-2.8346
X6.8504Y-0.9449
X6.8701Y-1.1811
X6.9094Y-1.5551
X6.9094Y-2.3031
X6.9094Y-3.0512
X6.9291Y-1.1811
X6.9685Y-0.9449
X7.0472Y-2.1457
X7.0472Y-3.6417
X7.126Y-1.3976
X7.126Y-2.8937
X7.126Y-4.3898
X7.185Y-3.7894
X7.4016Y-1.1811
X7.4016Y-2.6772
X7.4409Y-2.0866
X7.4409Y-3.5827
X7.4409Y-4.3504
X7.4409Y-4.4291
X7.5197Y-1.3386
X7.5197Y-2.8346
X7.5591Y-4.3504
X7.5984Y-0.9449
X7.6575Y-1.5551
X7.6575Y-2.3031
X7.6575Y-3.0512
X7.7165Y-0.9449
X7.7953Y-2.1457
X7.7953Y-3.6417
X7.874Y-1.3976
X7.874Y-2.8937
X7.874Y-4.3898
X7.9331Y-3.8091
X8.1496Y-1.1811
X8.1496Y-2.6772
X8.189Y-2.0866
X8.189Y-3.5827
X8.189Y-4.3504
X8.189Y-4.4291
X8.2677Y-1.3386
X8.2677Y-2.8346
X8.3071Y-4.3504
X8.3465Y-0.9449
X8.4055Y-1.5551
X8.4055Y-2.3031
X8.4055Y-3.0512
X8.4055Y-3.7992
X8.4646Y-0.9449
X8.5433Y-2.1457
X8.5433Y-3.6417
X8.622Y-1.3976
X8.622Y-2.8937
X8.622Y-4.3898
X8.6811Y-3.8287
X8.8976Y-1.1811
X8.8976Y-2.6772
X8.937Y-2.0866
X8.937Y-3.5827
X8.937Y-4.3504
X8.937Y-4.4291
X9.0157Y-1.3386
X9.0157Y-2.8346
X9.0551Y-4.3504
X9.0945Y-0.9449
X9.1339Y-1.1811
X9.1535Y-1.5551
X9.1535Y-2.3031
X9.1535Y-3.0512
X9.1535Y-3.7992
X9.1732Y-1.1811
X9.2126Y-0.9449
X9.2913Y-2.1457
X9.2913Y-3.6417
X9.3701Y-1.3976
X9.3701Y-2.8937
X9.3701Y-4.3898
X9.3898Y-1.1811
X9.4291Y-3.8386
X9.626Y-3.5433
X9.6457Y-1.1811
X9.6457Y-2.6772
X9.685Y-2.0866
X9.685Y-3.3071
X9.685Y-3.3661
X9.685Y-4.3504
X9.685Y-4.4291
X9.7638Y-1.3386
X9.7638Y-2.8346
X9.8031Y-4.3504
X9.8425Y-0.9449
X9.9016Y-2.3031
X9.9016Y-3.0512
X9.9606Y-0.9449
X10.0394Y-2.1457
X10.0394Y-3.6417
X10.1181Y-1.3976
X10.1181Y-2.7362
X10.1181Y-2.815
X10.1181Y-2.9724
X10.1181Y-4.3898
X10.1772Y-3.8386
X10.374Y-2.187
X10.374Y-2.2657
X10.374Y-4.1535
X10.374Y-4.2717
X10.376Y-3.6831
X10.376Y-3.7579
X10.3937Y-1.1811
X10.3937Y-2.6772
X10.4331Y-2.0866
X10.4331Y-3.5827
X10.4724Y-4.2717
X10.4921Y-2.3031
X10.4921Y-3.0512
X10.4921Y-3.7992
X10.5118Y-1.3386
X10.5512Y-2.3031
X10.5512Y-3.0512
X10.5512Y-3.7992
T3
X0.9843Y-1.0315
X0.9843Y-1.7795
X0.9843Y-3.2756
X0.9843Y-4.0236
X1.1811Y-0.9488
X1.1811Y-1.6969
X1.1811Y-3.1929
X1.1811Y-3.9409
X1.8504Y-1.0315
X1.8504Y-1.7795
X1.8504Y-2.5276
X1.8504Y-3.2756
X1.8504Y-4.0236
X2.0472Y-0.9488
X2.0472Y-1.6969
X2.0472Y-2.4449
X2.0472Y-3.1929
X2.0472Y-3.9409
X2.5984Y-1.0315
X2.5984Y-1.7795
X2.5984Y-2.5276
X2.5984Y-3.2756
X2.5984Y-4.0236
X2.7953Y-0.9488
X2.7953Y-1.6969
X2.7953Y-2.4449
X2.7953Y-3.1929
X2.7953Y-3.9409
X3.3465Y-1.0315
X3.3465Y-1.7795
X3.3465Y-2.5276
X3.3465Y-3.2756
X3.3465Y-4.0236
X3.5433Y-0.9488
X3.5433Y-1.6969
X3.5433Y-2.4449
X3.5433Y-3.1929
X3.5433Y-3.9409
X4.0945Y-1.0315
X4.0945Y-1.7795
X4.0945Y-2.5276
X4.0945Y-3.2756
X4.0945Y-4.0236
X4.2913Y-0.9488
X4.2913Y-1.6969
X4.2913Y-2.4449
X4.2913Y-3.1929
X4.2913Y-3.9409
X4.8425Y-1.0315
X4.8425Y-1.7795
X4.8425Y-2.5276
X4.8425Y-3.2756
X4.8425Y-4.0236
X5.0394Y-0.9488
X5.0394Y-1.6969
X5.0394Y-2.4449
X5.0394Y-3.1929
X5.0394Y-3.9409
X5.5906Y-1.0315
X5.5906Y-1.7795
X5.5906Y-2.5276
X5.5906Y-3.2756
X5.5906Y-4.0236
X5.7874Y-0.9488
X5.7874Y-1.6969
X5.7874Y-2.4449
X5.7874Y-3.1929
X5.7874Y-3.9409
X5.9646Y-1.0315
X5.9646Y-4.0236
X6.1614Y-0.9488
X6.1614Y-3.9409
X6.3386Y-1.0315
X6.3386Y-1.7795
X6.3386Y-2.5276
X6.3386Y-3.2756
X6.3386Y-4.0236
X6.5354Y-0.9488
X6.5354Y-1.6969
X6.5354Y-2.4449
X6.5354Y-3.1929
X6.5354Y-3.9409
X7.0866Y-1.0315
X7.0866Y-1.7795
X7.0866Y-2.5276
X7.0866Y-3.2756
X7.0866Y-4.0236
X7.2835Y-0.9488
X7.2835Y-1.6969
X7.2835Y-2.4449
X7.2835Y-3.1929
X7.2835Y-3.9409
X7.8346Y-1.0315
X7.8346Y-1.7795
X7.8346Y-2.5276
X7.8346Y-3.2756
X7.8346Y-4.0236
X8.0315Y-0.9488
X8.0315Y-1.6969
X8.0315Y-2.4449
X8.0315Y-3.1929
X8.0315Y-3.9409
X8.5827Y-1.0315
X8.5827Y-1.7795
X8.5827Y-2.5276
X8.5827Y-3.2756
X8.5827Y-4.0236
X8.7795Y-0.9488
X8.7795Y-1.6969
X8.7795Y-2.4449
X8.7795Y-3.1929
X8.7795Y-3.9409
X9.3307Y-1.0315
X9.3307Y-1.7795
X9.3307Y-2.5276
X9.3307Y-3.2756
X9.3307Y-4.0236
X9.5276Y-0.9488
X9.5276Y-1.6969
X9.5276Y-2.4449
X9.5276Y-3.1929
X9.5276Y-3.9409
X10.0787Y-1.0315
X10.0787Y-1.7795
X10.0787Y-2.5276
X10.0787Y-3.2756
X10.0787Y-4.0236
X10.2756Y-0.9488
X10.2756Y-1.6969
X10.2756Y-2.4449
X10.2756Y-3.1929
X10.2756Y-3.9409
T2
G00X0.8661Y-2.5071
M15
G01X0.8425Y-2.5071
M16
G05
G00X0.8661Y-2.8472
M15
G01X0.8425Y-2.8472
M16
G05
G00X1.0406Y-2.5071
M15
G01X0.9972Y-2.5071
M16
G05
G00X1.0406Y-2.8472
M15
G01X0.9972Y-2.8472
M16
G05
T0
M30
