%TF.GenerationSoftware,KiCad,Pcbnew,6.0.11-2627ca5db0~126~ubuntu22.04.1*%
%TF.CreationDate,2023-02-13T08:28:21-04:00*%
%TF.ProjectId,Topo_v0,546f706f-5f76-4302-9e6b-696361645f70,v0*%
%TF.SameCoordinates,Original*%
%TF.FileFunction,Paste,Top*%
%TF.FilePolarity,Positive*%
%FSLAX46Y46*%
G04 Gerber Fmt 4.6, Leading zero omitted, Abs format (unit mm)*
G04 Created by KiCad (PCBNEW 6.0.11-2627ca5db0~126~ubuntu22.04.1) date 2023-02-13 08:28:21*
%MOMM*%
%LPD*%
G01*
G04 APERTURE LIST*
G04 Aperture macros list*
%AMRoundRect*
0 Rectangle with rounded corners*
0 $1 Rounding radius*
0 $2 $3 $4 $5 $6 $7 $8 $9 X,Y pos of 4 corners*
0 Add a 4 corners polygon primitive as box body*
4,1,4,$2,$3,$4,$5,$6,$7,$8,$9,$2,$3,0*
0 Add four circle primitives for the rounded corners*
1,1,$1+$1,$2,$3*
1,1,$1+$1,$4,$5*
1,1,$1+$1,$6,$7*
1,1,$1+$1,$8,$9*
0 Add four rect primitives between the rounded corners*
20,1,$1+$1,$2,$3,$4,$5,0*
20,1,$1+$1,$4,$5,$6,$7,0*
20,1,$1+$1,$6,$7,$8,$9,0*
20,1,$1+$1,$8,$9,$2,$3,0*%
G04 Aperture macros list end*
%ADD10C,0.120000*%
%ADD11R,0.600000X0.450000*%
%ADD12RoundRect,0.140000X0.140000X0.170000X-0.140000X0.170000X-0.140000X-0.170000X0.140000X-0.170000X0*%
%ADD13RoundRect,0.140000X-0.140000X-0.170000X0.140000X-0.170000X0.140000X0.170000X-0.140000X0.170000X0*%
%ADD14RoundRect,0.205000X-0.495000X-0.205000X0.495000X-0.205000X0.495000X0.205000X-0.495000X0.205000X0*%
%ADD15RoundRect,0.205000X0.495000X0.205000X-0.495000X0.205000X-0.495000X-0.205000X0.495000X-0.205000X0*%
%ADD16RoundRect,0.312500X0.312500X-0.562500X0.312500X0.562500X-0.312500X0.562500X-0.312500X-0.562500X0*%
%ADD17RoundRect,0.140000X-0.170000X0.140000X-0.170000X-0.140000X0.170000X-0.140000X0.170000X0.140000X0*%
%ADD18RoundRect,0.135000X-0.135000X-0.185000X0.135000X-0.185000X0.135000X0.185000X-0.135000X0.185000X0*%
%ADD19R,1.100000X1.500000*%
%ADD20RoundRect,0.140000X0.170000X-0.140000X0.170000X0.140000X-0.170000X0.140000X-0.170000X-0.140000X0*%
%ADD21R,1.400000X1.200000*%
%ADD22RoundRect,0.250000X-0.275000X-0.275000X0.275000X-0.275000X0.275000X0.275000X-0.275000X0.275000X0*%
%ADD23RoundRect,0.062500X-0.475000X-0.062500X0.475000X-0.062500X0.475000X0.062500X-0.475000X0.062500X0*%
%ADD24RoundRect,0.062500X-0.062500X-0.475000X0.062500X-0.475000X0.062500X0.475000X-0.062500X0.475000X0*%
%ADD25RoundRect,0.135000X-0.185000X0.135000X-0.185000X-0.135000X0.185000X-0.135000X0.185000X0.135000X0*%
%ADD26R,0.700000X0.750000*%
%ADD27R,1.000000X0.700000*%
%ADD28R,0.600000X0.700000*%
%ADD29RoundRect,0.135000X0.135000X0.185000X-0.135000X0.185000X-0.135000X-0.185000X0.135000X-0.185000X0*%
%ADD30RoundRect,0.250000X-0.412500X-0.925000X0.412500X-0.925000X0.412500X0.925000X-0.412500X0.925000X0*%
%ADD31RoundRect,0.135000X0.185000X-0.135000X0.185000X0.135000X-0.185000X0.135000X-0.185000X-0.135000X0*%
%ADD32RoundRect,0.147500X-0.172500X0.147500X-0.172500X-0.147500X0.172500X-0.147500X0.172500X0.147500X0*%
%ADD33R,1.450000X0.600000*%
%ADD34R,1.450000X0.300000*%
G04 APERTURE END LIST*
%TO.C,H6*%
G36*
X249700000Y-40500000D02*
G01*
X250500000Y-41300000D01*
X251300000Y-41500000D01*
X251300000Y-42300000D01*
X250300000Y-42100000D01*
X249500000Y-41500000D01*
X248900000Y-40700000D01*
X248700000Y-39700000D01*
X249500000Y-39700000D01*
X249700000Y-40500000D01*
G37*
D10*
X249700000Y-40500000D02*
X250500000Y-41300000D01*
X251300000Y-41500000D01*
X251300000Y-42300000D01*
X250300000Y-42100000D01*
X249500000Y-41500000D01*
X248900000Y-40700000D01*
X248700000Y-39700000D01*
X249500000Y-39700000D01*
X249700000Y-40500000D01*
G36*
X251300000Y-37500000D02*
G01*
X250500000Y-37700000D01*
X249700000Y-38500000D01*
X249500000Y-39300000D01*
X248700000Y-39300000D01*
X248900000Y-38300000D01*
X249500000Y-37500000D01*
X250300000Y-36900000D01*
X251300000Y-36700000D01*
X251300000Y-37500000D01*
G37*
X251300000Y-37500000D02*
X250500000Y-37700000D01*
X249700000Y-38500000D01*
X249500000Y-39300000D01*
X248700000Y-39300000D01*
X248900000Y-38300000D01*
X249500000Y-37500000D01*
X250300000Y-36900000D01*
X251300000Y-36700000D01*
X251300000Y-37500000D01*
G36*
X252700000Y-36900000D02*
G01*
X253500000Y-37500000D01*
X254100000Y-38300000D01*
X254300000Y-39300000D01*
X253500000Y-39300000D01*
X253300000Y-38500000D01*
X252500000Y-37700000D01*
X251700000Y-37500000D01*
X251700000Y-36700000D01*
X252700000Y-36900000D01*
G37*
X252700000Y-36900000D02*
X253500000Y-37500000D01*
X254100000Y-38300000D01*
X254300000Y-39300000D01*
X253500000Y-39300000D01*
X253300000Y-38500000D01*
X252500000Y-37700000D01*
X251700000Y-37500000D01*
X251700000Y-36700000D01*
X252700000Y-36900000D01*
G36*
X254100000Y-40700000D02*
G01*
X253500000Y-41500000D01*
X252700000Y-42100000D01*
X251700000Y-42300000D01*
X251700000Y-41500000D01*
X252500000Y-41300000D01*
X253300000Y-40500000D01*
X253500000Y-39700000D01*
X254300000Y-39700000D01*
X254100000Y-40700000D01*
G37*
X254100000Y-40700000D02*
X253500000Y-41500000D01*
X252700000Y-42100000D01*
X251700000Y-42300000D01*
X251700000Y-41500000D01*
X252500000Y-41300000D01*
X253300000Y-40500000D01*
X253500000Y-39700000D01*
X254300000Y-39700000D01*
X254100000Y-40700000D01*
%TO.C,H1*%
G36*
X43600000Y-97700000D02*
G01*
X43000000Y-98500000D01*
X42200000Y-99100000D01*
X41200000Y-99300000D01*
X41200000Y-98500000D01*
X42000000Y-98300000D01*
X42800000Y-97500000D01*
X43000000Y-96700000D01*
X43800000Y-96700000D01*
X43600000Y-97700000D01*
G37*
X43600000Y-97700000D02*
X43000000Y-98500000D01*
X42200000Y-99100000D01*
X41200000Y-99300000D01*
X41200000Y-98500000D01*
X42000000Y-98300000D01*
X42800000Y-97500000D01*
X43000000Y-96700000D01*
X43800000Y-96700000D01*
X43600000Y-97700000D01*
G36*
X42200000Y-93900000D02*
G01*
X43000000Y-94500000D01*
X43600000Y-95300000D01*
X43800000Y-96300000D01*
X43000000Y-96300000D01*
X42800000Y-95500000D01*
X42000000Y-94700000D01*
X41200000Y-94500000D01*
X41200000Y-93700000D01*
X42200000Y-93900000D01*
G37*
X42200000Y-93900000D02*
X43000000Y-94500000D01*
X43600000Y-95300000D01*
X43800000Y-96300000D01*
X43000000Y-96300000D01*
X42800000Y-95500000D01*
X42000000Y-94700000D01*
X41200000Y-94500000D01*
X41200000Y-93700000D01*
X42200000Y-93900000D01*
G36*
X40800000Y-94500000D02*
G01*
X40000000Y-94700000D01*
X39200000Y-95500000D01*
X39000000Y-96300000D01*
X38200000Y-96300000D01*
X38400000Y-95300000D01*
X39000000Y-94500000D01*
X39800000Y-93900000D01*
X40800000Y-93700000D01*
X40800000Y-94500000D01*
G37*
X40800000Y-94500000D02*
X40000000Y-94700000D01*
X39200000Y-95500000D01*
X39000000Y-96300000D01*
X38200000Y-96300000D01*
X38400000Y-95300000D01*
X39000000Y-94500000D01*
X39800000Y-93900000D01*
X40800000Y-93700000D01*
X40800000Y-94500000D01*
G36*
X39200000Y-97500000D02*
G01*
X40000000Y-98300000D01*
X40800000Y-98500000D01*
X40800000Y-99300000D01*
X39800000Y-99100000D01*
X39000000Y-98500000D01*
X38400000Y-97700000D01*
X38200000Y-96700000D01*
X39000000Y-96700000D01*
X39200000Y-97500000D01*
G37*
X39200000Y-97500000D02*
X40000000Y-98300000D01*
X40800000Y-98500000D01*
X40800000Y-99300000D01*
X39800000Y-99100000D01*
X39000000Y-98500000D01*
X38400000Y-97700000D01*
X38200000Y-96700000D01*
X39000000Y-96700000D01*
X39200000Y-97500000D01*
%TO.C,H3*%
G36*
X156300000Y-75500000D02*
G01*
X155500000Y-75700000D01*
X154700000Y-76500000D01*
X154500000Y-77300000D01*
X153700000Y-77300000D01*
X153900000Y-76300000D01*
X154500000Y-75500000D01*
X155300000Y-74900000D01*
X156300000Y-74700000D01*
X156300000Y-75500000D01*
G37*
X156300000Y-75500000D02*
X155500000Y-75700000D01*
X154700000Y-76500000D01*
X154500000Y-77300000D01*
X153700000Y-77300000D01*
X153900000Y-76300000D01*
X154500000Y-75500000D01*
X155300000Y-74900000D01*
X156300000Y-74700000D01*
X156300000Y-75500000D01*
G36*
X154700000Y-78500000D02*
G01*
X155500000Y-79300000D01*
X156300000Y-79500000D01*
X156300000Y-80300000D01*
X155300000Y-80100000D01*
X154500000Y-79500000D01*
X153900000Y-78700000D01*
X153700000Y-77700000D01*
X154500000Y-77700000D01*
X154700000Y-78500000D01*
G37*
X154700000Y-78500000D02*
X155500000Y-79300000D01*
X156300000Y-79500000D01*
X156300000Y-80300000D01*
X155300000Y-80100000D01*
X154500000Y-79500000D01*
X153900000Y-78700000D01*
X153700000Y-77700000D01*
X154500000Y-77700000D01*
X154700000Y-78500000D01*
G36*
X159100000Y-78700000D02*
G01*
X158500000Y-79500000D01*
X157700000Y-80100000D01*
X156700000Y-80300000D01*
X156700000Y-79500000D01*
X157500000Y-79300000D01*
X158300000Y-78500000D01*
X158500000Y-77700000D01*
X159300000Y-77700000D01*
X159100000Y-78700000D01*
G37*
X159100000Y-78700000D02*
X158500000Y-79500000D01*
X157700000Y-80100000D01*
X156700000Y-80300000D01*
X156700000Y-79500000D01*
X157500000Y-79300000D01*
X158300000Y-78500000D01*
X158500000Y-77700000D01*
X159300000Y-77700000D01*
X159100000Y-78700000D01*
G36*
X157700000Y-74900000D02*
G01*
X158500000Y-75500000D01*
X159100000Y-76300000D01*
X159300000Y-77300000D01*
X158500000Y-77300000D01*
X158300000Y-76500000D01*
X157500000Y-75700000D01*
X156700000Y-75500000D01*
X156700000Y-74700000D01*
X157700000Y-74900000D01*
G37*
X157700000Y-74900000D02*
X158500000Y-75500000D01*
X159100000Y-76300000D01*
X159300000Y-77300000D01*
X158500000Y-77300000D01*
X158300000Y-76500000D01*
X157500000Y-75700000D01*
X156700000Y-75500000D01*
X156700000Y-74700000D01*
X157700000Y-74900000D01*
%TO.C,H4*%
G36*
X159100000Y-59700000D02*
G01*
X158500000Y-60500000D01*
X157700000Y-61100000D01*
X156700000Y-61300000D01*
X156700000Y-60500000D01*
X157500000Y-60300000D01*
X158300000Y-59500000D01*
X158500000Y-58700000D01*
X159300000Y-58700000D01*
X159100000Y-59700000D01*
G37*
X159100000Y-59700000D02*
X158500000Y-60500000D01*
X157700000Y-61100000D01*
X156700000Y-61300000D01*
X156700000Y-60500000D01*
X157500000Y-60300000D01*
X158300000Y-59500000D01*
X158500000Y-58700000D01*
X159300000Y-58700000D01*
X159100000Y-59700000D01*
G36*
X156300000Y-56500000D02*
G01*
X155500000Y-56700000D01*
X154700000Y-57500000D01*
X154500000Y-58300000D01*
X153700000Y-58300000D01*
X153900000Y-57300000D01*
X154500000Y-56500000D01*
X155300000Y-55900000D01*
X156300000Y-55700000D01*
X156300000Y-56500000D01*
G37*
X156300000Y-56500000D02*
X155500000Y-56700000D01*
X154700000Y-57500000D01*
X154500000Y-58300000D01*
X153700000Y-58300000D01*
X153900000Y-57300000D01*
X154500000Y-56500000D01*
X155300000Y-55900000D01*
X156300000Y-55700000D01*
X156300000Y-56500000D01*
G36*
X154700000Y-59500000D02*
G01*
X155500000Y-60300000D01*
X156300000Y-60500000D01*
X156300000Y-61300000D01*
X155300000Y-61100000D01*
X154500000Y-60500000D01*
X153900000Y-59700000D01*
X153700000Y-58700000D01*
X154500000Y-58700000D01*
X154700000Y-59500000D01*
G37*
X154700000Y-59500000D02*
X155500000Y-60300000D01*
X156300000Y-60500000D01*
X156300000Y-61300000D01*
X155300000Y-61100000D01*
X154500000Y-60500000D01*
X153900000Y-59700000D01*
X153700000Y-58700000D01*
X154500000Y-58700000D01*
X154700000Y-59500000D01*
G36*
X157700000Y-55900000D02*
G01*
X158500000Y-56500000D01*
X159100000Y-57300000D01*
X159300000Y-58300000D01*
X158500000Y-58300000D01*
X158300000Y-57500000D01*
X157500000Y-56700000D01*
X156700000Y-56500000D01*
X156700000Y-55700000D01*
X157700000Y-55900000D01*
G37*
X157700000Y-55900000D02*
X158500000Y-56500000D01*
X159100000Y-57300000D01*
X159300000Y-58300000D01*
X158500000Y-58300000D01*
X158300000Y-57500000D01*
X157500000Y-56700000D01*
X156700000Y-56500000D01*
X156700000Y-55700000D01*
X157700000Y-55900000D01*
%TO.C,H2*%
G36*
X252700000Y-93900000D02*
G01*
X253500000Y-94500000D01*
X254100000Y-95300000D01*
X254300000Y-96300000D01*
X253500000Y-96300000D01*
X253300000Y-95500000D01*
X252500000Y-94700000D01*
X251700000Y-94500000D01*
X251700000Y-93700000D01*
X252700000Y-93900000D01*
G37*
X252700000Y-93900000D02*
X253500000Y-94500000D01*
X254100000Y-95300000D01*
X254300000Y-96300000D01*
X253500000Y-96300000D01*
X253300000Y-95500000D01*
X252500000Y-94700000D01*
X251700000Y-94500000D01*
X251700000Y-93700000D01*
X252700000Y-93900000D01*
G36*
X249700000Y-97500000D02*
G01*
X250500000Y-98300000D01*
X251300000Y-98500000D01*
X251300000Y-99300000D01*
X250300000Y-99100000D01*
X249500000Y-98500000D01*
X248900000Y-97700000D01*
X248700000Y-96700000D01*
X249500000Y-96700000D01*
X249700000Y-97500000D01*
G37*
X249700000Y-97500000D02*
X250500000Y-98300000D01*
X251300000Y-98500000D01*
X251300000Y-99300000D01*
X250300000Y-99100000D01*
X249500000Y-98500000D01*
X248900000Y-97700000D01*
X248700000Y-96700000D01*
X249500000Y-96700000D01*
X249700000Y-97500000D01*
G36*
X251300000Y-94500000D02*
G01*
X250500000Y-94700000D01*
X249700000Y-95500000D01*
X249500000Y-96300000D01*
X248700000Y-96300000D01*
X248900000Y-95300000D01*
X249500000Y-94500000D01*
X250300000Y-93900000D01*
X251300000Y-93700000D01*
X251300000Y-94500000D01*
G37*
X251300000Y-94500000D02*
X250500000Y-94700000D01*
X249700000Y-95500000D01*
X249500000Y-96300000D01*
X248700000Y-96300000D01*
X248900000Y-95300000D01*
X249500000Y-94500000D01*
X250300000Y-93900000D01*
X251300000Y-93700000D01*
X251300000Y-94500000D01*
G36*
X254100000Y-97700000D02*
G01*
X253500000Y-98500000D01*
X252700000Y-99100000D01*
X251700000Y-99300000D01*
X251700000Y-98500000D01*
X252500000Y-98300000D01*
X253300000Y-97500000D01*
X253500000Y-96700000D01*
X254300000Y-96700000D01*
X254100000Y-97700000D01*
G37*
X254100000Y-97700000D02*
X253500000Y-98500000D01*
X252700000Y-99100000D01*
X251700000Y-99300000D01*
X251700000Y-98500000D01*
X252500000Y-98300000D01*
X253300000Y-97500000D01*
X253500000Y-96700000D01*
X254300000Y-96700000D01*
X254100000Y-97700000D01*
%TO.C,H5*%
G36*
X39200000Y-40500000D02*
G01*
X40000000Y-41300000D01*
X40800000Y-41500000D01*
X40800000Y-42300000D01*
X39800000Y-42100000D01*
X39000000Y-41500000D01*
X38400000Y-40700000D01*
X38200000Y-39700000D01*
X39000000Y-39700000D01*
X39200000Y-40500000D01*
G37*
X39200000Y-40500000D02*
X40000000Y-41300000D01*
X40800000Y-41500000D01*
X40800000Y-42300000D01*
X39800000Y-42100000D01*
X39000000Y-41500000D01*
X38400000Y-40700000D01*
X38200000Y-39700000D01*
X39000000Y-39700000D01*
X39200000Y-40500000D01*
G36*
X43600000Y-40700000D02*
G01*
X43000000Y-41500000D01*
X42200000Y-42100000D01*
X41200000Y-42300000D01*
X41200000Y-41500000D01*
X42000000Y-41300000D01*
X42800000Y-40500000D01*
X43000000Y-39700000D01*
X43800000Y-39700000D01*
X43600000Y-40700000D01*
G37*
X43600000Y-40700000D02*
X43000000Y-41500000D01*
X42200000Y-42100000D01*
X41200000Y-42300000D01*
X41200000Y-41500000D01*
X42000000Y-41300000D01*
X42800000Y-40500000D01*
X43000000Y-39700000D01*
X43800000Y-39700000D01*
X43600000Y-40700000D01*
G36*
X42200000Y-36900000D02*
G01*
X43000000Y-37500000D01*
X43600000Y-38300000D01*
X43800000Y-39300000D01*
X43000000Y-39300000D01*
X42800000Y-38500000D01*
X42000000Y-37700000D01*
X41200000Y-37500000D01*
X41200000Y-36700000D01*
X42200000Y-36900000D01*
G37*
X42200000Y-36900000D02*
X43000000Y-37500000D01*
X43600000Y-38300000D01*
X43800000Y-39300000D01*
X43000000Y-39300000D01*
X42800000Y-38500000D01*
X42000000Y-37700000D01*
X41200000Y-37500000D01*
X41200000Y-36700000D01*
X42200000Y-36900000D01*
G36*
X40800000Y-37500000D02*
G01*
X40000000Y-37700000D01*
X39200000Y-38500000D01*
X39000000Y-39300000D01*
X38200000Y-39300000D01*
X38400000Y-38300000D01*
X39000000Y-37500000D01*
X39800000Y-36900000D01*
X40800000Y-36700000D01*
X40800000Y-37500000D01*
G37*
X40800000Y-37500000D02*
X40000000Y-37700000D01*
X39200000Y-38500000D01*
X39000000Y-39300000D01*
X38200000Y-39300000D01*
X38400000Y-38300000D01*
X39000000Y-37500000D01*
X39800000Y-36900000D01*
X40800000Y-36700000D01*
X40800000Y-37500000D01*
%TD*%
D11*
%TO.C,D21*%
X163050000Y-81000000D03*
X160950000Y-81000000D03*
%TD*%
%TO.C,D49*%
X220050000Y-43000000D03*
X217950000Y-43000000D03*
%TD*%
%TO.C,D6*%
X125050000Y-100000000D03*
X122950000Y-100000000D03*
%TD*%
D12*
%TO.C,C54*%
X47980000Y-54500000D03*
X47020000Y-54500000D03*
%TD*%
D11*
%TO.C,D50*%
X239050000Y-43000000D03*
X236950000Y-43000000D03*
%TD*%
D12*
%TO.C,C60*%
X161980000Y-54500000D03*
X161020000Y-54500000D03*
%TD*%
D13*
%TO.C,C23*%
X190020000Y-110500000D03*
X190980000Y-110500000D03*
%TD*%
D14*
%TO.C,D73*%
X168550000Y-109950000D03*
X168550000Y-111450000D03*
X163450000Y-111450000D03*
X163450000Y-109950000D03*
%TD*%
D13*
%TO.C,C77*%
X227020000Y-34000000D03*
X227980000Y-34000000D03*
%TD*%
D11*
%TO.C,D47*%
X182050000Y-43000000D03*
X179950000Y-43000000D03*
%TD*%
D15*
%TO.C,D87*%
X182450000Y-92450000D03*
X182450000Y-90950000D03*
X187550000Y-90950000D03*
X187550000Y-92450000D03*
%TD*%
%TO.C,D80*%
X49450000Y-92450000D03*
X49450000Y-90950000D03*
X54550000Y-90950000D03*
X54550000Y-92450000D03*
%TD*%
D11*
%TO.C,D34*%
X182050000Y-62000000D03*
X179950000Y-62000000D03*
%TD*%
D14*
%TO.C,D119*%
X73550000Y-33950000D03*
X73550000Y-35450000D03*
X68450000Y-35450000D03*
X68450000Y-33950000D03*
%TD*%
D11*
%TO.C,D16*%
X68050000Y-81000000D03*
X65950000Y-81000000D03*
%TD*%
%TO.C,D28*%
X68050000Y-62000000D03*
X65950000Y-62000000D03*
%TD*%
%TO.C,D5*%
X106050000Y-100000000D03*
X103950000Y-100000000D03*
%TD*%
D13*
%TO.C,C17*%
X95000000Y-110500000D03*
X95960000Y-110500000D03*
%TD*%
D11*
%TO.C,D15*%
X49050000Y-81000000D03*
X46950000Y-81000000D03*
%TD*%
D15*
%TO.C,D103*%
X258450000Y-73450000D03*
X258450000Y-71950000D03*
X263550000Y-71950000D03*
X263550000Y-73450000D03*
%TD*%
%TO.C,D89*%
X220450000Y-92450000D03*
X220450000Y-90950000D03*
X225550000Y-90950000D03*
X225550000Y-92450000D03*
%TD*%
D13*
%TO.C,C6*%
X31770000Y-70000000D03*
X32730000Y-70000000D03*
%TD*%
D14*
%TO.C,D67*%
X73550000Y-109950000D03*
X73550000Y-111450000D03*
X68450000Y-111450000D03*
X68450000Y-109950000D03*
%TD*%
D16*
%TO.C,J1*%
X38000000Y-29000000D03*
X40000000Y-29000000D03*
X42000000Y-29000000D03*
X44000000Y-29000000D03*
%TD*%
D17*
%TO.C,C10*%
X44000000Y-65020000D03*
X44000000Y-65980000D03*
%TD*%
D13*
%TO.C,C75*%
X189020000Y-34000000D03*
X189980000Y-34000000D03*
%TD*%
D11*
%TO.C,D14*%
X27050000Y-81000000D03*
X24950000Y-81000000D03*
%TD*%
D13*
%TO.C,C69*%
X94020000Y-34000000D03*
X94980000Y-34000000D03*
%TD*%
%TO.C,C41*%
X56020000Y-72000000D03*
X56980000Y-72000000D03*
%TD*%
D12*
%TO.C,C29*%
X47480000Y-92500000D03*
X46520000Y-92500000D03*
%TD*%
%TO.C,C61*%
X180980000Y-54500000D03*
X180020000Y-54500000D03*
%TD*%
D14*
%TO.C,D128*%
X225550000Y-33950000D03*
X225550000Y-35450000D03*
X220450000Y-35450000D03*
X220450000Y-33950000D03*
%TD*%
D12*
%TO.C,C33*%
X123980000Y-92500000D03*
X123020000Y-92500000D03*
%TD*%
D14*
%TO.C,D65*%
X32550000Y-109950000D03*
X32550000Y-111450000D03*
X27450000Y-111450000D03*
X27450000Y-109950000D03*
%TD*%
D15*
%TO.C,D88*%
X201450000Y-92450000D03*
X201450000Y-90950000D03*
X206550000Y-90950000D03*
X206550000Y-92450000D03*
%TD*%
D11*
%TO.C,D33*%
X163050000Y-62000000D03*
X160950000Y-62000000D03*
%TD*%
D15*
%TO.C,D86*%
X163450000Y-92450000D03*
X163450000Y-90950000D03*
X168550000Y-90950000D03*
X168550000Y-92450000D03*
%TD*%
D11*
%TO.C,D19*%
X125050000Y-81000000D03*
X122950000Y-81000000D03*
%TD*%
%TO.C,D36*%
X220050000Y-62000000D03*
X217950000Y-62000000D03*
%TD*%
D12*
%TO.C,C31*%
X85480000Y-92500000D03*
X84520000Y-92500000D03*
%TD*%
D14*
%TO.C,D72*%
X159050000Y-109950000D03*
X159050000Y-111450000D03*
X153950000Y-111450000D03*
X153950000Y-109950000D03*
%TD*%
D12*
%TO.C,C65*%
X256980000Y-54500000D03*
X256020000Y-54500000D03*
%TD*%
D11*
%TO.C,D41*%
X68050000Y-43000000D03*
X65950000Y-43000000D03*
%TD*%
%TO.C,D1*%
X27050000Y-100000000D03*
X24950000Y-100000000D03*
%TD*%
D15*
%TO.C,D85*%
X144450000Y-92450000D03*
X144450000Y-90950000D03*
X149550000Y-90950000D03*
X149550000Y-92450000D03*
%TD*%
D11*
%TO.C,D7*%
X144050000Y-100000000D03*
X141950000Y-100000000D03*
%TD*%
%TO.C,D56*%
X106050000Y-24000000D03*
X103950000Y-24000000D03*
%TD*%
D13*
%TO.C,C25*%
X228020000Y-110500000D03*
X228980000Y-110500000D03*
%TD*%
D14*
%TO.C,D130*%
X263550000Y-33950000D03*
X263550000Y-35450000D03*
X258450000Y-35450000D03*
X258450000Y-33950000D03*
%TD*%
%TO.C,D74*%
X187550000Y-109950000D03*
X187550000Y-111450000D03*
X182450000Y-111450000D03*
X182450000Y-109950000D03*
%TD*%
D12*
%TO.C,C64*%
X237980000Y-54500000D03*
X237020000Y-54500000D03*
%TD*%
D11*
%TO.C,D17*%
X87050000Y-81000000D03*
X84950000Y-81000000D03*
%TD*%
D14*
%TO.C,D122*%
X130550000Y-33950000D03*
X130550000Y-35450000D03*
X125450000Y-35450000D03*
X125450000Y-33950000D03*
%TD*%
D11*
%TO.C,D13*%
X258050000Y-100000000D03*
X255950000Y-100000000D03*
%TD*%
D13*
%TO.C,C14*%
X35020000Y-110500000D03*
X35980000Y-110500000D03*
%TD*%
D14*
%TO.C,D99*%
X187550000Y-71950000D03*
X187550000Y-73450000D03*
X182450000Y-73450000D03*
X182450000Y-71950000D03*
%TD*%
D17*
%TO.C,C53*%
X26000000Y-54520000D03*
X26000000Y-55480000D03*
%TD*%
D15*
%TO.C,D113*%
X201450000Y-54450000D03*
X201450000Y-52950000D03*
X206550000Y-52950000D03*
X206550000Y-54450000D03*
%TD*%
%TO.C,D106*%
X68450000Y-54450000D03*
X68450000Y-52950000D03*
X73550000Y-52950000D03*
X73550000Y-54450000D03*
%TD*%
D11*
%TO.C,D38*%
X258050000Y-62000000D03*
X255950000Y-62000000D03*
%TD*%
D12*
%TO.C,C28*%
X25480000Y-92500000D03*
X24520000Y-92500000D03*
%TD*%
D14*
%TO.C,D75*%
X206550000Y-109950000D03*
X206550000Y-111450000D03*
X201450000Y-111450000D03*
X201450000Y-109950000D03*
%TD*%
D18*
%TO.C,R4*%
X28240000Y-65750000D03*
X29260000Y-65750000D03*
%TD*%
D14*
%TO.C,D102*%
X244550000Y-71950000D03*
X244550000Y-73450000D03*
X239450000Y-73450000D03*
X239450000Y-71950000D03*
%TD*%
%TO.C,D70*%
X130550000Y-109950000D03*
X130550000Y-111450000D03*
X125450000Y-111450000D03*
X125450000Y-109950000D03*
%TD*%
%TO.C,D94*%
X92550000Y-71950000D03*
X92550000Y-73450000D03*
X87450000Y-73450000D03*
X87450000Y-71950000D03*
%TD*%
D12*
%TO.C,C57*%
X104980000Y-54500000D03*
X104020000Y-54500000D03*
%TD*%
D11*
%TO.C,D24*%
X220050000Y-81000000D03*
X217950000Y-81000000D03*
%TD*%
D13*
%TO.C,C79*%
X265020000Y-34000000D03*
X265980000Y-34000000D03*
%TD*%
D12*
%TO.C,C35*%
X161980000Y-92500000D03*
X161020000Y-92500000D03*
%TD*%
D14*
%TO.C,D124*%
X159050000Y-33950000D03*
X159050000Y-35450000D03*
X153950000Y-35450000D03*
X153950000Y-33950000D03*
%TD*%
D11*
%TO.C,D64*%
X258050000Y-24000000D03*
X255950000Y-24000000D03*
%TD*%
D12*
%TO.C,C58*%
X123980000Y-54500000D03*
X123020000Y-54500000D03*
%TD*%
D13*
%TO.C,C16*%
X76020000Y-110500000D03*
X76980000Y-110500000D03*
%TD*%
D11*
%TO.C,D8*%
X163050000Y-100000000D03*
X160950000Y-100000000D03*
%TD*%
D13*
%TO.C,C18*%
X114020000Y-110500000D03*
X114980000Y-110500000D03*
%TD*%
%TO.C,C76*%
X208020000Y-34000000D03*
X208980000Y-34000000D03*
%TD*%
D14*
%TO.C,D96*%
X130550000Y-71950000D03*
X130550000Y-73450000D03*
X125450000Y-73450000D03*
X125450000Y-71950000D03*
%TD*%
D13*
%TO.C,C70*%
X113020000Y-34000000D03*
X113980000Y-34000000D03*
%TD*%
D11*
%TO.C,D31*%
X125050000Y-62000000D03*
X122950000Y-62000000D03*
%TD*%
D14*
%TO.C,D125*%
X168550000Y-33950000D03*
X168550000Y-35450000D03*
X163450000Y-35450000D03*
X163450000Y-33950000D03*
%TD*%
D13*
%TO.C,C74*%
X169827836Y-33500000D03*
X170787836Y-33500000D03*
%TD*%
D12*
%TO.C,C59*%
X142980000Y-54500000D03*
X142020000Y-54500000D03*
%TD*%
%TO.C,C55*%
X66980000Y-54500000D03*
X66020000Y-54500000D03*
%TD*%
D14*
%TO.C,D121*%
X111550000Y-33950000D03*
X111550000Y-35450000D03*
X106450000Y-35450000D03*
X106450000Y-33950000D03*
%TD*%
D12*
%TO.C,C2*%
X31480000Y-65750000D03*
X30520000Y-65750000D03*
%TD*%
D13*
%TO.C,C48*%
X189020000Y-72000000D03*
X189980000Y-72000000D03*
%TD*%
D19*
%TO.C,SW2*%
X41000000Y-62950000D03*
X41000000Y-54050000D03*
%TD*%
D11*
%TO.C,D59*%
X163050000Y-24000000D03*
X160950000Y-24000000D03*
%TD*%
D14*
%TO.C,D127*%
X206550000Y-33950000D03*
X206550000Y-35450000D03*
X201450000Y-35450000D03*
X201450000Y-33950000D03*
%TD*%
D11*
%TO.C,D9*%
X182050000Y-100000000D03*
X179950000Y-100000000D03*
%TD*%
D20*
%TO.C,C22*%
X169750000Y-109380000D03*
X169750000Y-108420000D03*
%TD*%
D13*
%TO.C,C68*%
X75020000Y-34000000D03*
X75980000Y-34000000D03*
%TD*%
D11*
%TO.C,D18*%
X106050000Y-81000000D03*
X103950000Y-81000000D03*
%TD*%
D21*
%TO.C,Y1*%
X37100000Y-76650000D03*
X34900000Y-76650000D03*
X34900000Y-78350000D03*
X37100000Y-78350000D03*
%TD*%
D12*
%TO.C,C81*%
X39730000Y-75250000D03*
X38770000Y-75250000D03*
%TD*%
D13*
%TO.C,C43*%
X94020000Y-72000000D03*
X94980000Y-72000000D03*
%TD*%
D12*
%TO.C,C39*%
X237980000Y-92500000D03*
X237020000Y-92500000D03*
%TD*%
D11*
%TO.C,D54*%
X68050000Y-24000000D03*
X65950000Y-24000000D03*
%TD*%
D15*
%TO.C,D104*%
X27450000Y-54450000D03*
X27450000Y-52950000D03*
X32550000Y-52950000D03*
X32550000Y-54450000D03*
%TD*%
D11*
%TO.C,D42*%
X87050000Y-43000000D03*
X84950000Y-43000000D03*
%TD*%
%TO.C,D57*%
X125050000Y-24000000D03*
X122950000Y-24000000D03*
%TD*%
D17*
%TO.C,C80*%
X29500000Y-63520000D03*
X29500000Y-64480000D03*
%TD*%
D12*
%TO.C,C9*%
X35480000Y-74750000D03*
X34520000Y-74750000D03*
%TD*%
D11*
%TO.C,D22*%
X182050000Y-81000000D03*
X179950000Y-81000000D03*
%TD*%
%TO.C,D20*%
X144050000Y-81000000D03*
X141950000Y-81000000D03*
%TD*%
D13*
%TO.C,C71*%
X132020000Y-34000000D03*
X132980000Y-34000000D03*
%TD*%
D15*
%TO.C,D83*%
X106450000Y-92450000D03*
X106450000Y-90950000D03*
X111550000Y-90950000D03*
X111550000Y-92450000D03*
%TD*%
D17*
%TO.C,C11*%
X44000000Y-72020000D03*
X44000000Y-72980000D03*
%TD*%
D15*
%TO.C,D82*%
X87450000Y-92450000D03*
X87450000Y-90950000D03*
X92550000Y-90950000D03*
X92550000Y-92450000D03*
%TD*%
D11*
%TO.C,D48*%
X201050000Y-43000000D03*
X198950000Y-43000000D03*
%TD*%
D14*
%TO.C,D97*%
X149550000Y-71950000D03*
X149550000Y-73450000D03*
X144450000Y-73450000D03*
X144450000Y-71950000D03*
%TD*%
D22*
%TO.C,U1*%
X37300000Y-67300000D03*
X38600000Y-68600000D03*
X39900000Y-67300000D03*
X41200000Y-69900000D03*
X38600000Y-69900000D03*
X41200000Y-71200000D03*
X38600000Y-71200000D03*
X41200000Y-67300000D03*
X39900000Y-71200000D03*
X39900000Y-68600000D03*
X39900000Y-69900000D03*
X38600000Y-67300000D03*
X37300000Y-68600000D03*
X41200000Y-68600000D03*
X37300000Y-69900000D03*
X37300000Y-71200000D03*
D23*
X35912500Y-66750000D03*
X35912500Y-67250000D03*
X35912500Y-67750000D03*
X35912500Y-68250000D03*
X35912500Y-68750000D03*
X35912500Y-69250000D03*
X35912500Y-69750000D03*
X35912500Y-70250000D03*
X35912500Y-70750000D03*
X35912500Y-71250000D03*
X35912500Y-71750000D03*
D24*
X36750000Y-72587500D03*
X37250000Y-72587500D03*
X37750000Y-72587500D03*
X38250000Y-72587500D03*
X38750000Y-72587500D03*
X39250000Y-72587500D03*
X39750000Y-72587500D03*
X40250000Y-72587500D03*
X40750000Y-72587500D03*
X41250000Y-72587500D03*
X41750000Y-72587500D03*
D23*
X42587500Y-71750000D03*
X42587500Y-71250000D03*
X42587500Y-70750000D03*
X42587500Y-70250000D03*
X42587500Y-69750000D03*
X42587500Y-69250000D03*
X42587500Y-68750000D03*
X42587500Y-68250000D03*
X42587500Y-67750000D03*
X42587500Y-67250000D03*
X42587500Y-66750000D03*
D24*
X41750000Y-65912500D03*
X41250000Y-65912500D03*
X40750000Y-65912500D03*
X40250000Y-65912500D03*
X39750000Y-65912500D03*
X39250000Y-65912500D03*
X38750000Y-65912500D03*
X38250000Y-65912500D03*
X37750000Y-65912500D03*
X37250000Y-65912500D03*
X36750000Y-65912500D03*
%TD*%
D11*
%TO.C,D12*%
X239050000Y-100000000D03*
X236950000Y-100000000D03*
%TD*%
%TO.C,D30*%
X106050000Y-62000000D03*
X103950000Y-62000000D03*
%TD*%
D13*
%TO.C,C42*%
X75020000Y-72000000D03*
X75980000Y-72000000D03*
%TD*%
D14*
%TO.C,D71*%
X149550000Y-109950000D03*
X149550000Y-111450000D03*
X144450000Y-111450000D03*
X144450000Y-109950000D03*
%TD*%
D15*
%TO.C,D107*%
X87450000Y-54450000D03*
X87450000Y-52950000D03*
X92550000Y-52950000D03*
X92550000Y-54450000D03*
%TD*%
D13*
%TO.C,C19*%
X133020000Y-110500000D03*
X133980000Y-110500000D03*
%TD*%
%TO.C,C24*%
X209020000Y-110500000D03*
X209980000Y-110500000D03*
%TD*%
D12*
%TO.C,C36*%
X180980000Y-92500000D03*
X180020000Y-92500000D03*
%TD*%
D13*
%TO.C,C15*%
X57020000Y-110500000D03*
X57980000Y-110500000D03*
%TD*%
D11*
%TO.C,D63*%
X239050000Y-24000000D03*
X236950000Y-24000000D03*
%TD*%
D13*
%TO.C,C78*%
X246020000Y-34000000D03*
X246980000Y-34000000D03*
%TD*%
D14*
%TO.C,D101*%
X225550000Y-71950000D03*
X225550000Y-73450000D03*
X220450000Y-73450000D03*
X220450000Y-71950000D03*
%TD*%
%TO.C,D118*%
X54550000Y-33950000D03*
X54550000Y-35450000D03*
X49450000Y-35450000D03*
X49450000Y-33950000D03*
%TD*%
%TO.C,D78*%
X263550000Y-109950000D03*
X263550000Y-111450000D03*
X258450000Y-111450000D03*
X258450000Y-109950000D03*
%TD*%
D13*
%TO.C,C45*%
X132020000Y-72000000D03*
X132980000Y-72000000D03*
%TD*%
D14*
%TO.C,D77*%
X244550000Y-109950000D03*
X244550000Y-111450000D03*
X239450000Y-111450000D03*
X239450000Y-109950000D03*
%TD*%
D20*
%TO.C,C13*%
X37250000Y-63730000D03*
X37250000Y-62770000D03*
%TD*%
D11*
%TO.C,D25*%
X239050000Y-81000000D03*
X236950000Y-81000000D03*
%TD*%
%TO.C,D29*%
X87050000Y-62000000D03*
X84950000Y-62000000D03*
%TD*%
D15*
%TO.C,D90*%
X239450000Y-92450000D03*
X239450000Y-90950000D03*
X244550000Y-90950000D03*
X244550000Y-92450000D03*
%TD*%
D11*
%TO.C,D60*%
X182050000Y-24000000D03*
X179950000Y-24000000D03*
%TD*%
D12*
%TO.C,C38*%
X218980000Y-92500000D03*
X218020000Y-92500000D03*
%TD*%
D13*
%TO.C,C73*%
X160270000Y-33500000D03*
X161230000Y-33500000D03*
%TD*%
D14*
%TO.C,D69*%
X111550000Y-109950000D03*
X111550000Y-111450000D03*
X106450000Y-111450000D03*
X106450000Y-109950000D03*
%TD*%
D25*
%TO.C,R1*%
X28500000Y-63490000D03*
X28500000Y-64510000D03*
%TD*%
D14*
%TO.C,D68*%
X92550000Y-109950000D03*
X92550000Y-111450000D03*
X87450000Y-111450000D03*
X87450000Y-109950000D03*
%TD*%
D15*
%TO.C,D84*%
X125450000Y-92450000D03*
X125450000Y-90950000D03*
X130550000Y-90950000D03*
X130550000Y-92450000D03*
%TD*%
D13*
%TO.C,C72*%
X150770000Y-33500000D03*
X151730000Y-33500000D03*
%TD*%
D12*
%TO.C,C30*%
X66480000Y-92500000D03*
X65520000Y-92500000D03*
%TD*%
D11*
%TO.C,D26*%
X258050000Y-81000000D03*
X255950000Y-81000000D03*
%TD*%
%TO.C,D43*%
X106050000Y-43000000D03*
X103950000Y-43000000D03*
%TD*%
%TO.C,D52*%
X27050000Y-24000000D03*
X24950000Y-24000000D03*
%TD*%
%TO.C,D51*%
X258050000Y-43000000D03*
X255950000Y-43000000D03*
%TD*%
%TO.C,D39*%
X27050000Y-43000000D03*
X24950000Y-43000000D03*
%TD*%
D13*
%TO.C,C46*%
X151020000Y-72000000D03*
X151980000Y-72000000D03*
%TD*%
D14*
%TO.C,D95*%
X111550000Y-71950000D03*
X111550000Y-73450000D03*
X106450000Y-73450000D03*
X106450000Y-71950000D03*
%TD*%
D18*
%TO.C,R5*%
X28240000Y-70250000D03*
X29260000Y-70250000D03*
%TD*%
D26*
%TO.C,SW1*%
X39400000Y-76675000D03*
X42600000Y-76675000D03*
X39400000Y-78325000D03*
X42600000Y-78325000D03*
%TD*%
D27*
%TO.C,TVS1*%
X28750000Y-69000000D03*
D28*
X30450000Y-69000000D03*
X30450000Y-67000000D03*
X28550000Y-67000000D03*
%TD*%
D13*
%TO.C,C47*%
X170020000Y-72000000D03*
X170980000Y-72000000D03*
%TD*%
D17*
%TO.C,C52*%
X257000000Y-73520000D03*
X257000000Y-74480000D03*
%TD*%
D20*
%TO.C,C27*%
X263500000Y-107480000D03*
X263500000Y-106520000D03*
%TD*%
D13*
%TO.C,C50*%
X227020000Y-72000000D03*
X227980000Y-72000000D03*
%TD*%
D11*
%TO.C,D55*%
X87050000Y-24000000D03*
X84950000Y-24000000D03*
%TD*%
D12*
%TO.C,C56*%
X85980000Y-54500000D03*
X85020000Y-54500000D03*
%TD*%
D15*
%TO.C,D116*%
X258450000Y-54450000D03*
X258450000Y-52950000D03*
X263550000Y-52950000D03*
X263550000Y-54450000D03*
%TD*%
D14*
%TO.C,D120*%
X92550000Y-33950000D03*
X92550000Y-35450000D03*
X87450000Y-35450000D03*
X87450000Y-33950000D03*
%TD*%
D11*
%TO.C,D27*%
X49050000Y-62000000D03*
X46950000Y-62000000D03*
%TD*%
%TO.C,D35*%
X201050000Y-62000000D03*
X198950000Y-62000000D03*
%TD*%
D20*
%TO.C,C12*%
X35750000Y-63730000D03*
X35750000Y-62770000D03*
%TD*%
D13*
%TO.C,C44*%
X113020000Y-72000000D03*
X113980000Y-72000000D03*
%TD*%
D15*
%TO.C,D110*%
X144450000Y-54450000D03*
X144450000Y-52950000D03*
X149550000Y-52950000D03*
X149550000Y-54450000D03*
%TD*%
D11*
%TO.C,D4*%
X87050000Y-100000000D03*
X84950000Y-100000000D03*
%TD*%
D14*
%TO.C,D93*%
X73550000Y-71950000D03*
X73550000Y-73450000D03*
X68450000Y-73450000D03*
X68450000Y-71950000D03*
%TD*%
D12*
%TO.C,C34*%
X142980000Y-92500000D03*
X142020000Y-92500000D03*
%TD*%
D13*
%TO.C,C4*%
X30520000Y-63750000D03*
X31480000Y-63750000D03*
%TD*%
D14*
%TO.C,D98*%
X168550000Y-71950000D03*
X168550000Y-73450000D03*
X163450000Y-73450000D03*
X163450000Y-71950000D03*
%TD*%
D11*
%TO.C,D58*%
X144050000Y-24000000D03*
X141950000Y-24000000D03*
%TD*%
D15*
%TO.C,D115*%
X239450000Y-54450000D03*
X239450000Y-52950000D03*
X244550000Y-52950000D03*
X244550000Y-54450000D03*
%TD*%
%TO.C,D105*%
X49450000Y-54450000D03*
X49450000Y-52950000D03*
X54550000Y-52950000D03*
X54550000Y-54450000D03*
%TD*%
D11*
%TO.C,D62*%
X220050000Y-24000000D03*
X217950000Y-24000000D03*
%TD*%
D13*
%TO.C,C51*%
X246020000Y-72000000D03*
X246980000Y-72000000D03*
%TD*%
D14*
%TO.C,D100*%
X206550000Y-71950000D03*
X206550000Y-73450000D03*
X201450000Y-73450000D03*
X201450000Y-71950000D03*
%TD*%
D12*
%TO.C,C32*%
X104480000Y-92500000D03*
X103520000Y-92500000D03*
%TD*%
D14*
%TO.C,D126*%
X187550000Y-33950000D03*
X187550000Y-35450000D03*
X182450000Y-35450000D03*
X182450000Y-33950000D03*
%TD*%
D12*
%TO.C,C3*%
X31480000Y-64750000D03*
X30520000Y-64750000D03*
%TD*%
D11*
%TO.C,D23*%
X201050000Y-81000000D03*
X198950000Y-81000000D03*
%TD*%
D15*
%TO.C,D109*%
X125450000Y-54450000D03*
X125450000Y-52950000D03*
X130550000Y-52950000D03*
X130550000Y-54450000D03*
%TD*%
%TO.C,D112*%
X182450000Y-54450000D03*
X182450000Y-52950000D03*
X187550000Y-52950000D03*
X187550000Y-54450000D03*
%TD*%
D11*
%TO.C,D46*%
X163050000Y-43000000D03*
X160950000Y-43000000D03*
%TD*%
D17*
%TO.C,C5*%
X30500000Y-59770000D03*
X30500000Y-60730000D03*
%TD*%
D13*
%TO.C,C7*%
X31770000Y-71000000D03*
X32730000Y-71000000D03*
%TD*%
D14*
%TO.C,D129*%
X244550000Y-33950000D03*
X244550000Y-35450000D03*
X239450000Y-35450000D03*
X239450000Y-33950000D03*
%TD*%
%TO.C,D117*%
X32550000Y-33950000D03*
X32550000Y-35450000D03*
X27450000Y-35450000D03*
X27450000Y-33950000D03*
%TD*%
D13*
%TO.C,C67*%
X56020000Y-34000000D03*
X56980000Y-34000000D03*
%TD*%
D11*
%TO.C,D3*%
X68050000Y-100000000D03*
X65950000Y-100000000D03*
%TD*%
D12*
%TO.C,C37*%
X199980000Y-92500000D03*
X199020000Y-92500000D03*
%TD*%
D11*
%TO.C,D53*%
X49050000Y-24000000D03*
X46950000Y-24000000D03*
%TD*%
D15*
%TO.C,D79*%
X27450000Y-92450000D03*
X27450000Y-90950000D03*
X32550000Y-90950000D03*
X32550000Y-92450000D03*
%TD*%
D14*
%TO.C,D92*%
X54550000Y-71950000D03*
X54550000Y-73450000D03*
X49450000Y-73450000D03*
X49450000Y-71950000D03*
%TD*%
D11*
%TO.C,D10*%
X201050000Y-100000000D03*
X198950000Y-100000000D03*
%TD*%
D15*
%TO.C,D91*%
X258450000Y-92450000D03*
X258450000Y-90950000D03*
X263550000Y-90950000D03*
X263550000Y-92450000D03*
%TD*%
D13*
%TO.C,C49*%
X208020000Y-72000000D03*
X208980000Y-72000000D03*
%TD*%
D15*
%TO.C,D81*%
X68450000Y-92450000D03*
X68450000Y-90950000D03*
X73550000Y-90950000D03*
X73550000Y-92450000D03*
%TD*%
D14*
%TO.C,D123*%
X149550000Y-33950000D03*
X149550000Y-35450000D03*
X144450000Y-35450000D03*
X144450000Y-33950000D03*
%TD*%
D12*
%TO.C,C63*%
X218980000Y-54500000D03*
X218020000Y-54500000D03*
%TD*%
D29*
%TO.C,R8*%
X32760000Y-67500000D03*
X31740000Y-67500000D03*
%TD*%
D18*
%TO.C,R3*%
X42240000Y-64000000D03*
X43260000Y-64000000D03*
%TD*%
%TO.C,R6*%
X46990000Y-71750000D03*
X48010000Y-71750000D03*
%TD*%
D30*
%TO.C,C1*%
X23712500Y-60500000D03*
X26787500Y-60500000D03*
%TD*%
D11*
%TO.C,D32*%
X144050000Y-62000000D03*
X141950000Y-62000000D03*
%TD*%
D15*
%TO.C,D108*%
X106450000Y-54450000D03*
X106450000Y-52950000D03*
X111550000Y-52950000D03*
X111550000Y-54450000D03*
%TD*%
D29*
%TO.C,R7*%
X32760000Y-68500000D03*
X31740000Y-68500000D03*
%TD*%
D31*
%TO.C,R2*%
X44250000Y-78260000D03*
X44250000Y-77240000D03*
%TD*%
D14*
%TO.C,D76*%
X225550000Y-109950000D03*
X225550000Y-111450000D03*
X220450000Y-111450000D03*
X220450000Y-109950000D03*
%TD*%
D12*
%TO.C,C62*%
X199980000Y-54500000D03*
X199020000Y-54500000D03*
%TD*%
D32*
%TO.C,FB1*%
X31500000Y-61765000D03*
X31500000Y-62735000D03*
%TD*%
D17*
%TO.C,C82*%
X33250000Y-77270000D03*
X33250000Y-78230000D03*
%TD*%
D15*
%TO.C,D114*%
X220450000Y-54450000D03*
X220450000Y-52950000D03*
X225550000Y-52950000D03*
X225550000Y-54450000D03*
%TD*%
D11*
%TO.C,D40*%
X49050000Y-43000000D03*
X46950000Y-43000000D03*
%TD*%
D14*
%TO.C,D66*%
X54550000Y-109950000D03*
X54550000Y-111450000D03*
X49450000Y-111450000D03*
X49450000Y-109950000D03*
%TD*%
D12*
%TO.C,C40*%
X256980000Y-92500000D03*
X256020000Y-92500000D03*
%TD*%
D20*
%TO.C,C8*%
X31500000Y-60730000D03*
X31500000Y-59770000D03*
%TD*%
D11*
%TO.C,D2*%
X49050000Y-100000000D03*
X46950000Y-100000000D03*
%TD*%
%TO.C,D61*%
X201050000Y-24000000D03*
X198950000Y-24000000D03*
%TD*%
D13*
%TO.C,C26*%
X247020000Y-110500000D03*
X247980000Y-110500000D03*
%TD*%
D11*
%TO.C,D11*%
X220050000Y-100000000D03*
X217950000Y-100000000D03*
%TD*%
%TO.C,D37*%
X239050000Y-62000000D03*
X236950000Y-62000000D03*
%TD*%
D20*
%TO.C,C21*%
X160250000Y-109380000D03*
X160250000Y-108420000D03*
%TD*%
D15*
%TO.C,D111*%
X163450000Y-54450000D03*
X163450000Y-52950000D03*
X168550000Y-52950000D03*
X168550000Y-54450000D03*
%TD*%
D11*
%TO.C,D45*%
X144050000Y-43000000D03*
X141950000Y-43000000D03*
%TD*%
%TO.C,D44*%
X125050000Y-43000000D03*
X122950000Y-43000000D03*
%TD*%
D13*
%TO.C,C66*%
X34020000Y-34000000D03*
X34980000Y-34000000D03*
%TD*%
D33*
%TO.C,P1*%
X26795000Y-64750000D03*
X26795000Y-65550000D03*
D34*
X26795000Y-66750000D03*
X26795000Y-67750000D03*
X26795000Y-68250000D03*
X26795000Y-69250000D03*
D33*
X26795000Y-70450000D03*
X26795000Y-71250000D03*
X26795000Y-71250000D03*
X26795000Y-70450000D03*
D34*
X26795000Y-69750000D03*
X26795000Y-68750000D03*
X26795000Y-67250000D03*
X26795000Y-66250000D03*
D33*
X26795000Y-65550000D03*
X26795000Y-64750000D03*
%TD*%
D20*
%TO.C,C20*%
X150750000Y-109380000D03*
X150750000Y-108420000D03*
%TD*%
M02*
